STARTFONT 2.1
FONT -FontForge-Metropolis-Bold-R-Normal--64-610-75-75-P-385-ISO10646-1
SIZE 61 75 75
FONTBOUNDINGBOX 90 84 -14 -20
COMMENT "Generated by fontforge, http://fontforge.sourceforge.net"
COMMENT "Copyright \(c\) 2016 by Chris Simpson."
STARTPROPERTIES 39
FOUNDRY "FontForge"
FAMILY_NAME "Metropolis"
WEIGHT_NAME "Bold"
SLANT "R"
SETWIDTH_NAME "Normal"
ADD_STYLE_NAME ""
PIXEL_SIZE 64
POINT_SIZE 610
RESOLUTION_X 75
RESOLUTION_Y 75
SPACING "P"
AVERAGE_WIDTH 385
CHARSET_REGISTRY "ISO10646"
CHARSET_ENCODING "1"
FONTNAME_REGISTRY ""
CHARSET_COLLECTIONS "ISO8859-2 ISO8859-9 ISO8859-4 ISO10646-1"
FONT_NAME "Metropolis-Bold"
FACE_NAME "Metropolis Bold"
COPYRIGHT "Copyright \(c\) 2016 by Chris Simpson."
FONT_VERSION "001.000"
FONT_ASCENT 51
FONT_DESCENT 13
UNDERLINE_POSITION -9
UNDERLINE_THICKNESS 2
X_HEIGHT 33
CAP_HEIGHT 44
RAW_ASCENT 795
RAW_DESCENT 205
NORM_SPACE 18
RELATIVE_WEIGHT 70
RELATIVE_SETWIDTH 50
SUPERSCRIPT_X 0
SUPERSCRIPT_Y 22
SUPERSCRIPT_SIZE 38
SUBSCRIPT_X 0
SUBSCRIPT_Y 4
SUBSCRIPT_SIZE 38
AVG_LOWERCASE_WIDTH 359
AVG_UPPERCASE_WIDTH 450
ENDPROPERTIES
CHARS 300
STARTCHAR space
ENCODING 32
SWIDTH 279 0
DWIDTH 18 0
BBX 1 1 0 0
BITMAP
00
ENDCHAR
STARTCHAR exclam
ENCODING 33
SWIDTH 307 0
DWIDTH 20 0
BBX 12 46 4 -1
BITMAP
7FE0
7FE0
7FE0
7FE0
7FE0
7FE0
7FE0
7FE0
7FE0
7FE0
7FC0
7FC0
3FC0
3FC0
3FC0
3FC0
3FC0
3FC0
3FC0
3FC0
3FC0
3FC0
3FC0
3FC0
3F80
3F80
1F80
1F80
1F80
0000
0000
0000
0000
0000
0E00
3F80
7FC0
7FE0
FFE0
FFF0
FFF0
FFE0
FFE0
7FE0
3FC0
0F00
ENDCHAR
STARTCHAR quotedbl
ENCODING 34
SWIDTH 516 0
DWIDTH 33 0
BBX 25 19 4 26
BITMAP
1E003C00
7F007F00
7F80FF00
FF80FF80
FFC1FF80
FFC1FF80
FFC1FF80
FF81FF80
FF80FF80
FF80FF80
7F80FF00
7F80FF00
7F80FF00
7F007F00
3F007E00
3F007E00
3E003E00
3E003E00
1E003C00
ENDCHAR
STARTCHAR numbersign
ENCODING 35
SWIDTH 675 0
DWIDTH 43 0
BBX 39 46 2 -1
BITMAP
0003F807F0
0003F80FE0
0003F80FE0
0003F80FE0
0007F00FE0
0007F01FC0
0007F01FC0
0007F01FC0
000FE01FC0
000FE03F80
000FE03F80
03FFFFFFFE
07FFFFFFFE
07FFFFFFFE
07FFFFFFFC
07FFFFFFFC
0FFFFFFFFC
0FFFFFFFFC
003F80FE00
003F80FE00
003F00FE00
007F00FC00
007F01FC00
007F01FC00
007E01FC00
00FE01FC00
00FE03F800
00FE03F800
3FFFFFFFE0
7FFFFFFFE0
7FFFFFFFC0
7FFFFFFFC0
7FFFFFFFC0
FFFFFFFFC0
FFFFFFFF80
03F80FE000
03F00FE000
07F00FE000
07F01FC000
07F01FC000
07F01FC000
0FE01FC000
0FE03F8000
0FE03F8000
0FE03F8000
0FC03F8000
ENDCHAR
STARTCHAR dollar
ENCODING 36
SWIDTH 633 0
DWIDTH 41 0
BBX 36 54 2 -5
BITMAP
0001F80000
0001F80000
0001F80000
0001F80000
000FFF0000
007FFFE000
00FFFFFC00
03FFFFFF00
07FFFFFF80
0FFFFFFFC0
1FFFFFFFE0
1FFFFFFFC0
3FFDFBFF80
3FF9F8FF00
3FF1F83F00
3FE1F80E00
7FE1F80400
7FE1F80000
7FE1F80000
7FF1F80000
3FF9F80000
3FFFF80000
3FFFF80000
1FFFFF0000
1FFFFFE000
0FFFFFF800
07FFFFFE00
01FFFFFF00
00FFFFFFC0
001FFFFFC0
0003FFFFE0
0001FFFFE0
0001FBFFF0
0001F8FFF0
0001F83FF0
0001F83FF0
0001F83FF0
0C01F83FF0
1F01F83FF0
3FC1F83FF0
7FE1F87FE0
7FFFF9FFE0
FFFFFFFFE0
FFFFFFFFC0
7FFFFFFF80
1FFFFFFF00
0FFFFFFE00
03FFFFFC00
007FFFF000
000FFF8000
0001F80000
0001F80000
0001F80000
0001F80000
ENDCHAR
STARTCHAR percent
ENCODING 37
SWIDTH 837 0
DWIDTH 54 0
BBX 49 46 2 -1
BITMAP
00FE00000FE000
03FF80000FE000
0FFFC0001FC000
1FFFE0003F8000
3FFFF0003F8000
3FFFF8007F0000
7F83F800FE0000
7F01FC00FE0000
7E01FC01FC0000
FE00FC03F80000
FE00FC03F80000
FE00FC07F00000
FE00FC0FE00000
FE00FC0FE00000
7E01FC1FC00000
7F01FC3F800000
7F83F83F800000
3FFFF87F000000
3FFFF0FE000000
1FFFE0FE000000
0FFFC1FC000000
07FF83F8000000
00FE03F8000000
000007F01F8000
00000FE0FFF000
00000FE1FFF800
00001FC3FFFC00
00003F87FFFE00
00003F87FFFF00
00007F0FE07F00
0000FE0FC03F00
0000FE1FC03F80
0001FC1FC01F80
0003F81FC01F80
0003F81F801F80
0007F01F801F80
000FE01FC01F80
000FE01FC03F80
001FC00FE03F80
003F800FE07F00
003F8007FFFF00
007F0007FFFE00
00FE0003FFFC00
00FE0001FFF800
01FC0000FFF000
03F800001FC000
ENDCHAR
STARTCHAR ampersand
ENCODING 38
SWIDTH 679 0
DWIDTH 43 0
BBX 39 46 2 -1
BITMAP
0001FE0000
000FFF8000
001FFFE000
003FFFF000
007FFFF800
00FFFFF800
01FFFFFC00
01FF07FC00
01FE03FE00
03FE01FE00
03FC01FE00
03FC01FE00
03FC01FE00
03FE01FE00
03FE03FE00
01FF07FC00
01FF1FF800
00FFFFF800
00FFFFF000
007FFFC000
007FFF8000
01FFFE0000
03FFF800C0
0FFFFC01F0
1FFFFE01FC
3FFFFF03FE
7FFBFF83FC
7FE1FFC7FC
FFC0FFC7F8
FFC0FFEFF8
FF807FFFF0
FF803FFFE0
FF801FFFE0
FF800FFFC0
FF8007FF80
FFC003FF80
FFC003FFC0
FFE00FFFE0
7FF83FFFF0
7FFFFFFFF8
3FFFFFFFFC
1FFFFFFFFE
0FFFFFCFFE
07FFFF07FC
01FFFC03F0
003FE001C0
ENDCHAR
STARTCHAR quotesingle
ENCODING 39
SWIDTH 276 0
DWIDTH 18 0
BBX 10 19 4 26
BITMAP
1E00
7F00
7F80
FF80
FFC0
FFC0
FFC0
FF80
FF80
FF80
7F80
7F80
7F80
7F00
3F00
3F00
3E00
3E00
1E00
ENDCHAR
STARTCHAR parenleft
ENCODING 40
SWIDTH 383 0
DWIDTH 25 0
BBX 19 56 3 -11
BITMAP
000200
000700
000F80
001FC0
003FE0
007FE0
00FFC0
01FF80
03FF80
03FF00
07FE00
0FFC00
0FFC00
1FF800
1FF800
1FF000
3FF000
3FE000
3FE000
7FE000
7FC000
7FC000
7FC000
7FC000
FFC000
FFC000
FFC000
FFC000
FFC000
FFC000
FFC000
FFC000
FFC000
7FC000
7FC000
7FC000
7FE000
7FE000
3FE000
3FE000
3FF000
1FF000
1FF800
0FF800
0FFC00
07FE00
07FE00
03FF00
01FF80
00FFC0
007FE0
007FE0
003FC0
000F80
000700
000200
ENDCHAR
STARTCHAR parenright
ENCODING 41
SWIDTH 383 0
DWIDTH 25 0
BBX 19 55 2 -11
BITMAP
0E0000
1F0000
3F8000
7FC000
FFE000
7FF000
3FF000
1FF800
0FFC00
07FC00
07FE00
03FF00
03FF00
01FF00
01FF80
00FF80
00FFC0
007FC0
007FC0
007FC0
007FE0
003FE0
003FE0
003FE0
003FE0
003FE0
003FE0
003FE0
003FE0
003FE0
003FE0
003FE0
003FE0
007FE0
007FE0
007FC0
007FC0
00FFC0
00FF80
00FF80
01FF80
01FF00
03FF00
07FE00
07FE00
0FFC00
1FF800
3FF800
3FF000
7FE000
7FC000
3F8000
1F0000
0E0000
0C0000
ENDCHAR
STARTCHAR asterisk
ENCODING 42
SWIDTH 398 0
DWIDTH 25 0
BBX 21 22 2 23
BITMAP
007800
00F800
00F800
00F800
707870
7C78F8
FE71F8
7F73F8
3FB7F0
0FFFC0
01FC00
01FC00
0FFFC0
3FFFF0
7F73F8
FE71F8
7C78F8
307870
00F800
00F800
00F800
007800
ENDCHAR
STARTCHAR plus
ENCODING 43
SWIDTH 603 0
DWIDTH 39 0
BBX 31 31 4 6
BITMAP
001FE000
001FE000
001FE000
001FE000
001FE000
001FE000
001FE000
001FE000
001FE000
001FE000
001FE000
001FE000
FFFFFFFE
FFFFFFFE
FFFFFFFE
FFFFFFFE
FFFFFFFE
FFFFFFFE
FFFFFFFE
FFFFFFFE
001FE000
001FE000
001FE000
001FE000
001FE000
001FE000
001FE000
001FE000
001FE000
001FE000
001FE000
ENDCHAR
STARTCHAR comma
ENCODING 44
SWIDTH 293 0
DWIDTH 19 0
BBX 11 20 4 -9
BITMAP
0E00
3F80
7FC0
FFC0
FFE0
FFE0
FFE0
FFE0
FFE0
7FE0
7FE0
1FE0
07E0
07C0
0FC0
1F80
1F00
3F00
3E00
1C00
ENDCHAR
STARTCHAR hyphen
ENCODING 45
SWIDTH 364 0
DWIDTH 23 0
BBX 17 8 3 14
BITMAP
FFFF80
FFFF80
FFFF80
FFFF80
FFFF80
FFFF80
FFFF80
FFFF80
ENDCHAR
STARTCHAR period
ENCODING 46
SWIDTH 290 0
DWIDTH 19 0
BBX 12 12 3 -1
BITMAP
0700
1FC0
3FE0
7FE0
7FF0
FFF0
FFF0
7FF0
7FF0
3FE0
3FC0
0F80
ENDCHAR
STARTCHAR slash
ENCODING 47
SWIDTH 462 0
DWIDTH 30 0
BBX 31 52 -1 -5
BITMAP
000007FE
000007FE
00000FFC
00000FFC
00000FF8
00001FF8
00001FF8
00003FF0
00003FF0
00007FE0
00007FE0
00007FC0
0000FFC0
0000FFC0
0001FF80
0001FF80
0003FF00
0003FF00
0003FE00
0007FE00
0007FE00
000FFC00
000FFC00
001FF800
001FF800
001FF800
003FF000
003FF000
007FE000
007FE000
007FC000
00FFC000
00FFC000
01FF8000
01FF8000
03FF0000
03FF0000
03FE0000
07FE0000
07FE0000
0FFC0000
0FFC0000
1FF80000
1FF80000
1FF00000
3FF00000
3FF00000
7FE00000
7FE00000
7FC00000
FFC00000
FFC00000
ENDCHAR
STARTCHAR zero
ENCODING 48
SWIDTH 706 0
DWIDTH 45 0
BBX 39 46 3 -1
BITMAP
0001FF0000
000FFFE000
003FFFF800
00FFFFFE00
01FFFFFF00
03FFFFFF80
07FFFFFFC0
0FFFFFFFE0
0FFFFFFFE0
1FFF01FFF0
1FFC007FF8
3FF8003FF8
3FF0001FF8
7FF0001FFC
7FE0000FFC
7FE0000FFC
FFC00007FE
FFC00007FE
FFC00007FE
FFC00007FE
FFC00007FE
FFC00003FE
FFC00003FE
FFC00003FE
FFC00003FE
FFC00007FE
FFC00007FE
FFC00007FE
FFC00007FE
7FC00007FE
7FE0000FFC
7FE0000FFC
7FF0001FFC
3FF0001FF8
3FF8003FF8
1FFC007FF8
1FFF01FFF0
0FFFFFFFE0
07FFFFFFE0
07FFFFFFC0
03FFFFFF80
01FFFFFF00
007FFFFE00
003FFFF800
000FFFE000
0001FF0000
ENDCHAR
STARTCHAR one
ENCODING 49
SWIDTH 415 0
DWIDTH 27 0
BBX 21 46 1 -1
BITMAP
000FF8
001FF8
007FF8
00FFF8
01FFF8
07FFF8
0FFFF8
3FFFF8
7FFFF8
FFFFF8
7FFFF8
7FFFF8
3F9FF8
3F1FF8
1C1FF8
181FF8
001FF8
001FF8
001FF8
001FF8
001FF8
001FF8
001FF8
001FF8
001FF8
001FF8
001FF8
001FF8
001FF8
001FF8
001FF8
001FF8
001FF8
001FF8
001FF8
001FF8
001FF8
001FF8
001FF8
001FF8
001FF8
001FF8
001FF8
001FF8
001FF8
001FF8
ENDCHAR
STARTCHAR two
ENCODING 50
SWIDTH 611 0
DWIDTH 39 0
BBX 33 46 3 -1
BITMAP
000FF80000
00FFFF0000
03FFFFC000
07FFFFE000
1FFFFFF800
3FFFFFFC00
7FFFFFFC00
FFFFFFFE00
FFFFFFFE00
FFF00FFF00
7FC007FF00
3F8003FF00
1F0001FF80
0E0001FF80
040001FF80
000001FF80
000001FF80
000003FF00
000003FF00
000007FF00
000007FF00
00000FFE00
00001FFE00
00003FFC00
00007FF800
0000FFF000
0003FFF000
0007FFE000
000FFF8000
001FFF0000
007FFE0000
00FFFC0000
01FFF80000
03FFE00000
07FFC00000
1FFF800000
3FFF000000
7FFFFFFF80
FFFFFFFF80
FFFFFFFF80
FFFFFFFF80
FFFFFFFF80
FFFFFFFF80
FFFFFFFF80
FFFFFFFF80
FFFFFFFF80
ENDCHAR
STARTCHAR three
ENCODING 51
SWIDTH 606 0
DWIDTH 39 0
BBX 34 46 2 -1
BITMAP
000FFC0000
007FFFC000
01FFFFF000
07FFFFF800
0FFFFFFC00
1FFFFFFE00
3FFFFFFF00
7FFFFFFF00
7FFE7FFF80
3FF007FF80
1FC003FF80
0F0001FF80
060001FF80
000000FF80
000000FF80
000001FF80
000001FF00
000003FF00
00000FFE00
001FFFFC00
001FFFF800
001FFFF000
001FFF8000
001FFFF000
001FFFFC00
001FFFFE00
001FFFFF00
000007FF80
000001FF80
000000FFC0
000000FFC0
0000007FC0
0000007FC0
0C0000FFC0
1F0000FFC0
3F8001FFC0
7FE003FFC0
7FFFFFFF80
FFFFFFFF80
FFFFFFFF00
3FFFFFFF00
1FFFFFFE00
0FFFFFF800
03FFFFF000
00FFFFC000
000FFC0000
ENDCHAR
STARTCHAR four
ENCODING 52
SWIDTH 648 0
DWIDTH 41 0
BBX 37 44 2 -1
BITMAP
00000FFE00
00001FFE00
00003FFE00
00007FFE00
00007FFE00
0000FFFE00
0001FFFE00
0003FFFE00
0003FFFE00
0007FFFE00
000FFFFE00
000FFBFE00
001FF3FE00
003FE3FE00
007FE3FE00
007FC3FE00
00FF83FE00
01FF83FE00
03FF03FE00
03FE03FE00
07FC03FE00
0FFC03FE00
1FF803FE00
1FF003FE00
3FE003FE00
7FE003FE00
FFC003FE00
FFFFFFFFF8
FFFFFFFFF8
FFFFFFFFF8
FFFFFFFFF8
FFFFFFFFF8
FFFFFFFFF8
FFFFFFFFF8
FFFFFFFFF8
000003FE00
000003FE00
000003FE00
000003FE00
000003FE00
000003FE00
000003FE00
000003FE00
000003FE00
ENDCHAR
STARTCHAR five
ENCODING 53
SWIDTH 618 0
DWIDTH 40 0
BBX 34 46 3 -1
BITMAP
3FFFFFFE00
3FFFFFFE00
3FFFFFFE00
3FFFFFFE00
3FFFFFFE00
3FFFFFFE00
3FFFFFFE00
3FFFFFFE00
3FFFFFFE00
3FE0000000
3FE0000000
3FE0000000
3FE0000000
3FE0000000
3FE0000000
3FE0000000
3FE1FE0000
3FE7FFC000
3FFFFFF000
3FFFFFF800
3FFFFFFC00
3FFFFFFE00
3FFFFFFF00
3FFFFFFF00
3FF00FFF80
07C003FF80
018001FF80
000000FFC0
000000FFC0
000000FFC0
000000FFC0
000000FFC0
000000FFC0
0C0000FFC0
1E0001FF80
3F8003FF80
7FE007FF80
7FFC1FFF00
FFFFFFFF00
FFFFFFFE00
7FFFFFFC00
3FFFFFF800
1FFFFFF000
07FFFFE000
00FFFF8000
001FF80000
ENDCHAR
STARTCHAR six
ENCODING 54
SWIDTH 643 0
DWIDTH 41 0
BBX 35 46 3 -1
BITMAP
0001FF8000
000FFFF000
003FFFFC00
007FFFFF00
01FFFFFF80
03FFFFFF80
07FFFFFF00
07FFFFFF00
0FFFC3FE00
1FFE007C00
1FFC001C00
3FF8000800
3FF0000000
7FF0000000
7FE0000000
7FE0000000
FFC03E0000
FFC3FFE000
FFCFFFF800
FFDFFFFC00
FFFFFFFE00
FFFFFFFF00
FFFFFFFF80
FFFFFFFFC0
FFFE07FFC0
FFF801FFE0
FFF000FFE0
FFE0007FE0
FFC0007FE0
FFC0007FE0
FFC0003FE0
7FC0007FE0
7FE0007FE0
7FE0007FE0
7FE0007FE0
3FF000FFC0
3FF801FFC0
1FFE07FFC0
1FFFFFFF80
0FFFFFFF00
07FFFFFF00
03FFFFFE00
01FFFFFC00
00FFFFF000
003FFFC000
0003FE0000
ENDCHAR
STARTCHAR seven
ENCODING 55
SWIDTH 604 0
DWIDTH 39 0
BBX 33 46 3 -1
BITMAP
FFFFFFFF80
FFFFFFFF80
FFFFFFFF80
FFFFFFFF80
FFFFFFFF80
FFFFFFFF80
FFFFFFFF80
FFFFFFFF80
FFFFFFFF00
000007FF00
000007FE00
00000FFE00
00000FFC00
00001FFC00
00001FF800
00001FF800
00003FF000
00003FF000
00007FF000
00007FE000
0000FFE000
0000FFC000
0001FFC000
0001FF8000
0003FF8000
0003FF0000
0007FF0000
0007FE0000
000FFE0000
000FFC0000
000FFC0000
001FFC0000
001FF80000
003FF80000
003FF00000
007FF00000
007FE00000
00FFE00000
00FFC00000
01FFC00000
01FF800000
03FF800000
03FF800000
07FF000000
07FF000000
07FE000000
ENDCHAR
STARTCHAR eight
ENCODING 56
SWIDTH 624 0
DWIDTH 40 0
BBX 36 46 2 -1
BITMAP
0007FE0000
007FFFC000
01FFFFF000
03FFFFFC00
07FFFFFE00
0FFFFFFF00
1FFFFFFF80
3FFFFFFF80
3FFE07FFC0
3FF801FFC0
3FF000FFC0
7FE0007FE0
7FE0007FE0
3FE0007FC0
3FE0007FC0
3FE000FFC0
3FF000FFC0
1FF803FF80
0FFE0FFF00
07FFFFFE00
03FFFFFC00
01FFFFF800
00FFFFE000
03FFFFFC00
07FFFFFE00
0FFFFFFF00
1FFFBFFF80
3FFC03FFC0
7FF000FFC0
7FE0007FE0
7FC0003FE0
FFC0003FE0
FFC0003FF0
FFC0003FF0
FFC0003FF0
FFE0007FE0
7FF000FFE0
7FFC03FFE0
3FFFFFFFC0
3FFFFFFFC0
1FFFFFFF80
0FFFFFFF00
07FFFFFE00
01FFFFF800
007FFFE000
0007FE0000
ENDCHAR
STARTCHAR nine
ENCODING 57
SWIDTH 643 0
DWIDTH 41 0
BBX 35 46 3 -1
BITMAP
000FFC0000
007FFF8000
01FFFFE000
03FFFFF000
0FFFFFF800
1FFFFFFC00
1FFFFFFE00
3FFFFFFF00
7FFC0FFF00
7FF003FF80
7FE001FF80
FFE000FFC0
FFC000FFC0
FFC0007FC0
FFC0007FE0
FFC0007FE0
FFC0007FE0
FFC0007FE0
FFC000FFE0
FFE001FFE0
7FF003FFE0
7FFC0FFFE0
7FFFFFFFE0
3FFFFFFFE0
1FFFFFFFE0
0FFFFFFFE0
07FFFF7FE0
03FFFE7FE0
00FFF87FE0
000F807FE0
000000FFC0
000000FFC0
000001FFC0
000001FF80
020003FF80
070007FF00
07C00FFF00
0FF87FFE00
1FFFFFFE00
1FFFFFFC00
3FFFFFF800
3FFFFFF000
1FFFFFE000
07FFFF8000
01FFFE0000
001FF00000
ENDCHAR
STARTCHAR colon
ENCODING 58
SWIDTH 290 0
DWIDTH 19 0
BBX 12 35 3 -1
BITMAP
0F80
3FC0
7FE0
7FF0
7FF0
FFF0
FFF0
7FF0
7FE0
3FE0
1FC0
0700
0000
0000
0000
0000
0000
0000
0000
0000
0000
0000
0000
0700
1FC0
3FE0
7FE0
7FF0
FFF0
FFF0
7FF0
7FF0
3FE0
3FC0
0F80
ENDCHAR
STARTCHAR semicolon
ENCODING 59
SWIDTH 293 0
DWIDTH 19 0
BBX 11 43 4 -9
BITMAP
1F00
3F80
7FC0
FFE0
FFE0
FFE0
FFE0
FFE0
FFE0
7FC0
3F80
0E00
0000
0000
0000
0000
0000
0000
0000
0000
0000
0000
0000
0E00
3F80
7FC0
FFC0
FFE0
FFE0
FFE0
FFE0
FFE0
7FE0
7FE0
1FE0
07E0
07C0
0FC0
1F80
1F00
3F00
3E00
1C00
ENDCHAR
STARTCHAR less
ENCODING 60
SWIDTH 593 0
DWIDTH 38 0
BBX 29 33 4 5
BITMAP
00000018
00000078
000001F8
00000FF8
00003FF8
0000FFF8
0007FFF8
001FFFF0
007FFFC0
01FFFF00
0FFFF800
3FFFE000
FFFF0000
FFFC0000
FFE00000
FF800000
FE000000
FFC00000
FFF00000
FFFE0000
7FFF8000
1FFFF000
07FFFC00
00FFFF80
003FFFE0
000FFFF8
0003FFF8
00007FF8
00001FF8
000007F8
000000F8
00000038
00000008
ENDCHAR
STARTCHAR equal
ENCODING 61
SWIDTH 603 0
DWIDTH 39 0
BBX 31 23 4 10
BITMAP
FFFFFFFE
FFFFFFFE
FFFFFFFE
FFFFFFFE
FFFFFFFE
FFFFFFFE
FFFFFFFE
FFFFFFFE
00000000
00000000
00000000
00000000
00000000
00000000
00000000
FFFFFFFE
FFFFFFFE
FFFFFFFE
FFFFFFFE
FFFFFFFE
FFFFFFFE
FFFFFFFE
FFFFFFFE
ENDCHAR
STARTCHAR greater
ENCODING 62
SWIDTH 593 0
DWIDTH 38 0
BBX 29 33 5 5
BITMAP
C0000000
F0000000
FC000000
FF800000
FFE00000
FFF80000
FFFE0000
7FFFC000
1FFFF000
07FFFC00
00FFFF80
003FFFE0
0007FFF8
0001FFF8
00003FF8
00000FF8
000007F8
00001FF8
00007FF8
0003FFF8
000FFFF0
007FFFC0
01FFFF00
0FFFF800
3FFFE000
FFFF8000
FFFC0000
FFF00000
FFC00000
FF000000
F8000000
E0000000
80000000
ENDCHAR
STARTCHAR question
ENCODING 63
SWIDTH 505 0
DWIDTH 32 0
BBX 29 46 1 -1
BITMAP
001FE000
01FFFC00
07FFFF00
0FFFFF80
3FFFFFC0
7FFFFFE0
FFFFFFF0
7FFFFFF0
3FFBFFF8
3F807FF8
1F001FF8
0C001FF8
00000FF8
00000FF8
00000FF8
00001FF8
00003FF8
00007FF0
0001FFF0
003FFFE0
003FFFC0
003FFFC0
003FFF00
003FFE00
003FF800
003FC000
003FC000
003FC000
003FC000
003FC000
00000000
00000000
00000000
00000000
00060000
003F8000
007FC000
007FE000
00FFE000
00FFF000
00FFF000
00FFE000
007FE000
007FE000
003FC000
001F0000
ENDCHAR
STARTCHAR at
ENCODING 64
SWIDTH 880 0
DWIDTH 56 0
BBX 50 51 3 -8
BITMAP
000007FF000000
00003FFFE00000
0001FFFFFC0000
0007F0007F0000
000F80000F8000
003E000003C000
0078000000F000
00F00000007800
01E00000003C00
03800000001C00
07000000000E00
0F001FF0400700
0E007FFC7F8700
1C00FFFE7F0380
1C03FFFFFF0380
3803FFFFFF0180
3007FFFFFF01C0
700FFE0FFF01C0
701FF807FE01C0
601FF003FE00C0
E03FE003FE00C0
E03FC001FE00C0
E03FC001FE00C0
E03FC003FC00C0
C07F8003FC00C0
C07F8003FC01C0
C07F8003FC01C0
C07FC007FC01C0
C03FC007F801C0
E03FC00FF80380
E03FE03FF80380
E03FFCFFFC0700
601FFFFFFC1F00
701FFFFBFFFE00
700FFFF3FFFC00
3007FFE1FFF800
3801FFC0FFE000
18007E003F8000
1C000000000000
0E000000000000
0F000000000000
07800000000000
03C00000000000
01E00000000000
00F00000040000
007C00001E0000
001F00007E0000
000FF007F80000
0003FFFFE00000
00007FFF000000
000001C0000000
ENDCHAR
STARTCHAR A
ENCODING 65
SWIDTH 751 0
DWIDTH 48 0
BBX 46 46 1 -1
BITMAP
00003FF80000
00007FF80000
00007FF80000
0000FFFC0000
0000FFFC0000
0000FFFC0000
0001FFFE0000
0001FFFE0000
0003FFFF0000
0003FFFF0000
0003FFFF0000
0007FFFF8000
0007FFFF8000
000FFFFFC000
000FFFFFC000
000FFCFFC000
001FFCFFE000
001FFCFFE000
001FF87FF000
003FF87FF000
003FF07FF000
007FF03FF800
007FF03FF800
007FE01FF800
00FFE01FFC00
00FFE01FFC00
01FFC00FFE00
01FFC00FFE00
01FF8007FE00
03FF8007FF00
03FF8007FF00
07FFFFFFFF80
07FFFFFFFF80
07FFFFFFFF80
0FFFFFFFFFC0
0FFFFFFFFFC0
0FFFFFFFFFE0
1FFFFFFFFFE0
1FFFFFFFFFE0
3FF800007FF0
3FF800007FF0
3FF000003FF0
7FF000003FF8
7FE000001FF8
FFE000001FFC
FFE000001FFC
ENDCHAR
STARTCHAR B
ENCODING 66
SWIDTH 699 0
DWIDTH 45 0
BBX 37 46 5 -1
BITMAP
FFFFFFC000
FFFFFFF800
FFFFFFFE00
FFFFFFFF00
FFFFFFFF80
FFFFFFFFC0
FFFFFFFFC0
FFFFFFFFE0
FF8003FFE0
FF8000FFE0
FF80007FE0
FF80007FE0
FF80003FE0
FF80003FE0
FF80007FE0
FF80007FE0
FF8000FFC0
FF8001FFC0
FF8007FF80
FFFFFFFF00
FFFFFFFE00
FFFFFFF800
FFFFFFFE00
FFFFFFFF00
FFFFFFFF80
FFFFFFFFC0
FF8000FFE0
FF80007FF0
FF80003FF0
FF80001FF8
FF80001FF8
FF80000FF8
FF80000FF8
FF80001FF8
FF80001FF8
FF80003FF8
FF80007FF8
FF8000FFF8
FFFFFFFFF0
FFFFFFFFF0
FFFFFFFFE0
FFFFFFFFC0
FFFFFFFF80
FFFFFFFF00
FFFFFFFC00
FFFFFFE000
ENDCHAR
STARTCHAR C
ENCODING 67
SWIDTH 696 0
DWIDTH 45 0
BBX 40 46 3 -1
BITMAP
00003FF000
0001FFFE00
000FFFFFC0
001FFFFFE0
007FFFFFF8
00FFFFFFFC
01FFFFFFFE
03FFFFFFFF
07FFFFFFFE
0FFFC00FFC
1FFF0003F8
1FFE0001F0
3FFC0000C0
3FF8000000
7FF0000000
7FE0000000
7FE0000000
FFC0000000
FFC0000000
FFC0000000
FFC0000000
FF80000000
FF80000000
FF80000000
FF80000000
FFC0000000
FFC0000000
FFC0000000
FFC0000000
7FE0000000
7FE0000000
7FF0000000
3FF8000000
3FFC0000C0
1FFE0001F0
1FFF0003F8
0FFFC00FFC
07FFFFFFFE
03FFFFFFFF
01FFFFFFFE
00FFFFFFFC
007FFFFFF8
001FFFFFE0
0007FFFF80
0001FFFE00
00003FF000
ENDCHAR
STARTCHAR D
ENCODING 68
SWIDTH 761 0
DWIDTH 49 0
BBX 41 46 5 -1
BITMAP
FFFFF8000000
FFFFFF800000
FFFFFFF00000
FFFFFFFC0000
FFFFFFFE0000
FFFFFFFF8000
FFFFFFFFC000
FFFFFFFFE000
FFFFFFFFF000
FF8003FFF800
FF8000FFF800
FF80003FFC00
FF80001FFC00
FF80000FFE00
FF800007FE00
FF800007FF00
FF800003FF00
FF800003FF00
FF800003FF00
FF800001FF00
FF800001FF80
FF800001FF80
FF800001FF80
FF800001FF80
FF800001FF80
FF800001FF80
FF800001FF80
FF800003FF00
FF800003FF00
FF800003FF00
FF800007FF00
FF80000FFE00
FF80000FFE00
FF80001FFC00
FF80003FFC00
FF8000FFF800
FF8003FFF800
FFFFFFFFF000
FFFFFFFFE000
FFFFFFFFC000
FFFFFFFF8000
FFFFFFFE0000
FFFFFFFC0000
FFFFFFF00000
FFFFFF800000
FFFFF8000000
ENDCHAR
STARTCHAR E
ENCODING 69
SWIDTH 641 0
DWIDTH 41 0
BBX 34 46 4 -1
BITMAP
FFFFFFFFC0
FFFFFFFFC0
FFFFFFFFC0
FFFFFFFFC0
FFFFFFFFC0
FFFFFFFFC0
FFFFFFFFC0
FFFFFFFFC0
FFFFFFFFC0
FFC0000000
FFC0000000
FFC0000000
FFC0000000
FFC0000000
FFC0000000
FFC0000000
FFC0000000
FFC0000000
FFFFFFFF00
FFFFFFFF00
FFFFFFFF00
FFFFFFFF00
FFFFFFFF00
FFFFFFFF00
FFFFFFFF00
FFFFFFFF00
FFFFFFFF00
FFC0000000
FFC0000000
FFC0000000
FFC0000000
FFC0000000
FFC0000000
FFC0000000
FFC0000000
FFC0000000
FFC0000000
FFFFFFFFC0
FFFFFFFFC0
FFFFFFFFC0
FFFFFFFFC0
FFFFFFFFC0
FFFFFFFFC0
FFFFFFFFC0
FFFFFFFFC0
FFFFFFFFC0
ENDCHAR
STARTCHAR F
ENCODING 70
SWIDTH 634 0
DWIDTH 41 0
BBX 34 46 4 -1
BITMAP
FFFFFFFFC0
FFFFFFFFC0
FFFFFFFFC0
FFFFFFFFC0
FFFFFFFFC0
FFFFFFFFC0
FFFFFFFFC0
FFFFFFFFC0
FFFFFFFFC0
FFC0000000
FFC0000000
FFC0000000
FFC0000000
FFC0000000
FFC0000000
FFC0000000
FFC0000000
FFC0000000
FFC0000000
FFFFFFFF00
FFFFFFFF00
FFFFFFFF00
FFFFFFFF00
FFFFFFFF00
FFFFFFFF00
FFFFFFFF00
FFFFFFFF00
FFFFFFFF00
FFC0000000
FFC0000000
FFC0000000
FFC0000000
FFC0000000
FFC0000000
FFC0000000
FFC0000000
FFC0000000
FFC0000000
FFC0000000
FFC0000000
FFC0000000
FFC0000000
FFC0000000
FFC0000000
FFC0000000
FFC0000000
ENDCHAR
STARTCHAR G
ENCODING 71
SWIDTH 743 0
DWIDTH 48 0
BBX 41 46 3 -1
BITMAP
00003FF00000
0001FFFF0000
0007FFFFC000
001FFFFFF000
007FFFFFFC00
00FFFFFFFE00
01FFFFFFFF00
03FFFFFFFF80
07FFFFFFFF00
0FFFC00FFE00
1FFF0003F800
1FFE0000F000
3FFC00006000
3FF800000000
7FF000000000
7FE000000000
FFE000000000
FFC000000000
FFC000000000
FFC000000000
FFC007FFFF80
FF8007FFFF80
FF8007FFFF80
FF8007FFFF80
FF8007FFFF80
FFC007FFFF80
FFC007FFFF80
FFC00000FF80
FFE00000FF80
7FE00000FF80
7FF00000FF80
7FF00000FF80
3FF80000FF80
3FFC0000FF80
1FFE0000FF80
0FFF0003FF80
0FFFC00FFF80
07FFFFFFFF80
03FFFFFFFF80
01FFFFFFFF00
00FFFFFFFE00
007FFFFFFC00
001FFFFFF000
0007FFFFC000
0001FFFF0000
00003FF00000
ENDCHAR
STARTCHAR H
ENCODING 72
SWIDTH 743 0
DWIDTH 48 0
BBX 39 46 4 -1
BITMAP
FFC00003FE
FFC00003FE
FFC00003FE
FFC00003FE
FFC00003FE
FFC00003FE
FFC00003FE
FFC00003FE
FFC00003FE
FFC00003FE
FFC00003FE
FFC00003FE
FFC00003FE
FFC00003FE
FFC00003FE
FFC00003FE
FFC00003FE
FFC00003FE
FFFFFFFFFE
FFFFFFFFFE
FFFFFFFFFE
FFFFFFFFFE
FFFFFFFFFE
FFFFFFFFFE
FFFFFFFFFE
FFFFFFFFFE
FFFFFFFFFE
FFC00003FE
FFC00003FE
FFC00003FE
FFC00003FE
FFC00003FE
FFC00003FE
FFC00003FE
FFC00003FE
FFC00003FE
FFC00003FE
FFC00003FE
FFC00003FE
FFC00003FE
FFC00003FE
FFC00003FE
FFC00003FE
FFC00003FE
FFC00003FE
FFC00003FE
ENDCHAR
STARTCHAR I
ENCODING 73
SWIDTH 287 0
DWIDTH 18 0
BBX 10 46 4 -1
BITMAP
FFC0
FFC0
FFC0
FFC0
FFC0
FFC0
FFC0
FFC0
FFC0
FFC0
FFC0
FFC0
FFC0
FFC0
FFC0
FFC0
FFC0
FFC0
FFC0
FFC0
FFC0
FFC0
FFC0
FFC0
FFC0
FFC0
FFC0
FFC0
FFC0
FFC0
FFC0
FFC0
FFC0
FFC0
FFC0
FFC0
FFC0
FFC0
FFC0
FFC0
FFC0
FFC0
FFC0
FFC0
FFC0
FFC0
ENDCHAR
STARTCHAR J
ENCODING 74
SWIDTH 545 0
DWIDTH 35 0
BBX 30 46 1 -1
BITMAP
00000FFC
00000FFC
00000FFC
00000FFC
00000FFC
00000FFC
00000FFC
00000FFC
00000FFC
00000FFC
00000FFC
00000FFC
00000FFC
00000FFC
00000FFC
00000FFC
00000FFC
00000FFC
00000FFC
00000FFC
00000FFC
00000FFC
00000FFC
00000FFC
00000FFC
00000FFC
00000FFC
00000FFC
00000FFC
00000FFC
00000FFC
00000FFC
00000FFC
06001FF8
0E001FF8
1F003FF8
3FC07FF8
7FFFFFF0
FFFFFFF0
FFFFFFE0
7FFFFFC0
3FFFFFC0
0FFFFF80
07FFFE00
01FFFC00
003FE000
ENDCHAR
STARTCHAR K
ENCODING 75
SWIDTH 699 0
DWIDTH 45 0
BBX 39 46 5 -1
BITMAP
FF80003FFC
FF80003FF8
FF80007FF0
FF8000FFE0
FF8001FFC0
FF8003FFC0
FF8007FF80
FF8007FF00
FF800FFE00
FF801FFC00
FF803FF800
FF807FF000
FF80FFF000
FF81FFE000
FF81FFC000
FF83FF8000
FF87FF0000
FF8FFE0000
FF9FFC0000
FFBFFC0000
FFBFFC0000
FFFFFC0000
FFFFFE0000
FFFFFF0000
FFFFFF0000
FFFFFF8000
FFFFFFC000
FFFDFFC000
FFF8FFE000
FFF0FFF000
FFE07FF800
FFE03FF800
FFC03FFC00
FF801FFE00
FF800FFE00
FF8007FF00
FF8007FF80
FF8003FFC0
FF8001FFC0
FF8001FFE0
FF8000FFF0
FF80007FF0
FF80003FF8
FF80003FFC
FF80001FFC
FF80000FFE
ENDCHAR
STARTCHAR L
ENCODING 76
SWIDTH 580 0
DWIDTH 37 0
BBX 31 46 4 -1
BITMAP
FFC00000
FFC00000
FFC00000
FFC00000
FFC00000
FFC00000
FFC00000
FFC00000
FFC00000
FFC00000
FFC00000
FFC00000
FFC00000
FFC00000
FFC00000
FFC00000
FFC00000
FFC00000
FFC00000
FFC00000
FFC00000
FFC00000
FFC00000
FFC00000
FFC00000
FFC00000
FFC00000
FFC00000
FFC00000
FFC00000
FFC00000
FFC00000
FFC00000
FFC00000
FFC00000
FFC00000
FFC00000
FFFFFFFE
FFFFFFFE
FFFFFFFE
FFFFFFFE
FFFFFFFE
FFFFFFFE
FFFFFFFE
FFFFFFFE
FFFFFFFE
ENDCHAR
STARTCHAR M
ENCODING 77
SWIDTH 867 0
DWIDTH 55 0
BBX 46 46 5 -1
BITMAP
FF8000000FFC
FFC000000FFC
FFC000001FFC
FFE000003FFC
FFF000003FFC
FFF000007FFC
FFF800007FFC
FFF80000FFFC
FFFC0000FFFC
FFFC0001FFFC
FFFE0001FFFC
FFFE0003FFFC
FFFF0003FFFC
FFFF0007FFFC
FFFF8007FFFC
FFFF800FFFFC
FFFFC00FFFFC
FFFFC01FFFFC
FFBFE01FFFFC
FFBFE03FEFFC
FF9FF03FEFFC
FF9FF07FCFFC
FF8FF87FCFFC
FF8FF8FF8FFC
FF87FCFF8FFC
FF87FFFF0FFC
FF83FFFF0FFC
FF83FFFE0FFC
FF81FFFE0FFC
FF81FFFC0FFC
FF80FFF80FFC
FF807FF80FFC
FF807FF00FFC
FF803FF00FFC
FF803FE00FFC
FF801FE00FFC
FF801FC00FFC
FF800FC00FFC
FF800F800FFC
FF8007800FFC
FF8007000FFC
FF8003000FFC
FF8002000FFC
FF8000000FFC
FF8000000FFC
FF8000000FFC
ENDCHAR
STARTCHAR N
ENCODING 78
SWIDTH 774 0
DWIDTH 50 0
BBX 40 46 5 -1
BITMAP
FFC00003FF
FFC00003FF
FFE00003FF
FFF00003FF
FFF00003FF
FFF80003FF
FFFC0003FF
FFFC0003FF
FFFE0003FF
FFFF0003FF
FFFF8003FF
FFFF8003FF
FFFFC003FF
FFFFE003FF
FFFFE003FF
FFFFF003FF
FFFFF803FF
FFBFFC03FF
FF9FFC03FF
FF9FFE03FF
FF8FFF03FF
FF87FF03FF
FF83FF83FF
FF83FFC3FF
FF81FFE3FF
FF80FFE3FF
FF80FFF3FF
FF807FFBFF
FF803FFBFF
FF801FFFFF
FF801FFFFF
FF800FFFFF
FF8007FFFF
FF8007FFFF
FF8003FFFF
FF8001FFFF
FF8000FFFF
FF8000FFFF
FF80007FFF
FF80003FFF
FF80003FFF
FF80001FFF
FF80000FFF
FF800007FF
FF800007FF
FF800003FF
ENDCHAR
STARTCHAR O
ENCODING 79
SWIDTH 812 0
DWIDTH 52 0
BBX 46 46 3 -1
BITMAP
00003FF00000
0001FFFE0000
000FFFFF8000
001FFFFFE000
007FFFFFF800
00FFFFFFFC00
01FFFFFFFE00
03FFFFFFFF00
07FFFFFFFF80
0FFFC00FFFC0
1FFF0003FFC0
1FFE0001FFE0
3FFC0000FFF0
3FF800007FF0
7FF000003FF8
7FE000001FF8
7FE000001FF8
FFC000000FFC
FFC000000FFC
FFC000000FFC
FFC000000FFC
FF80000007FC
FF80000007FC
FF80000007FC
FF80000007FC
FFC000000FFC
FFC000000FFC
FFC000000FFC
FFC000000FFC
7FE000001FF8
7FE000001FF8
7FF000003FF8
3FF800007FF0
3FFC0000FFF0
1FFE0001FFE0
1FFF0003FFC0
0FFFC00FFFC0
07FFFFFFFF80
03FFFFFFFF00
01FFFFFFFE00
00FFFFFFFC00
007FFFFFF800
001FFFFFE000
0007FFFF8000
0001FFFE0000
00003FF00000
ENDCHAR
STARTCHAR P
ENCODING 80
SWIDTH 660 0
DWIDTH 42 0
BBX 37 46 4 -1
BITMAP
FFFFFF8000
FFFFFFF000
FFFFFFFC00
FFFFFFFE00
FFFFFFFF00
FFFFFFFF80
FFFFFFFFC0
FFFFFFFFE0
FFFFFFFFE0
FFC001FFF0
FFC0007FF0
FFC0003FF0
FFC0003FF0
FFC0001FF8
FFC0001FF8
FFC0001FF8
FFC0001FF8
FFC0001FF8
FFC0003FF0
FFC0007FF0
FFC000FFF0
FFC003FFE0
FFFFFFFFE0
FFFFFFFFC0
FFFFFFFFC0
FFFFFFFF80
FFFFFFFF00
FFFFFFFE00
FFFFFFF800
FFFFFFE000
FFFFFE0000
FFC0000000
FFC0000000
FFC0000000
FFC0000000
FFC0000000
FFC0000000
FFC0000000
FFC0000000
FFC0000000
FFC0000000
FFC0000000
FFC0000000
FFC0000000
FFC0000000
FFC0000000
ENDCHAR
STARTCHAR Q
ENCODING 81
SWIDTH 812 0
DWIDTH 52 0
BBX 46 46 3 -1
BITMAP
00003FF00000
0001FFFE0000
000FFFFF8000
001FFFFFE000
007FFFFFF800
00FFFFFFFC00
01FFFFFFFE00
03FFFFFFFF00
07FFFFFFFF80
0FFFC00FFFC0
1FFF0003FFC0
1FFE0001FFE0
3FFC0000FFF0
3FF800007FF0
7FF000003FF8
7FE000001FF8
7FE000001FF8
FFC000001FFC
FFC000000FFC
FFC000000FFC
FFC000000FFC
FF80000007FC
FF80000007FC
FF80000007FC
FF80000007FC
FF8000000FFC
FFC000060FFC
FFC0000F0FFC
FFC0001F8FFC
7FE0003FDFF8
7FE0007FFFF8
7FF0007FFFF8
3FF0003FFFF0
3FF8000FFFF0
1FFC0007FFE0
1FFF0003FFE0
0FFF8007FFC0
07FFF03FFFE0
03FFFFFFFFF0
01FFFFFFFFF8
00FFFFFFFFFC
007FFFFFFFF8
001FFFFFE3F0
0007FFFFC1F0
0001FFFE00E0
00003FF00040
ENDCHAR
STARTCHAR R
ENCODING 82
SWIDTH 678 0
DWIDTH 43 0
BBX 37 46 4 -1
BITMAP
FFFFFF8000
FFFFFFF000
FFFFFFFC00
FFFFFFFE00
FFFFFFFF00
FFFFFFFF80
FFFFFFFFC0
FFFFFFFFE0
FFFFFFFFE0
FFC001FFF0
FFC0007FF0
FFC0003FF0
FFC0003FF0
FFC0001FF8
FFC0001FF8
FFC0001FF8
FFC0001FF8
FFC0001FF8
FFC0003FF0
FFC0007FF0
FFC000FFF0
FFC003FFF0
FFFFFFFFE0
FFFFFFFFC0
FFFFFFFFC0
FFFFFFFF80
FFFFFFFF00
FFFFFFFE00
FFFFFFF800
FFFFFFE000
FFFFFFE000
FFC07FF000
FFC03FF800
FFC01FF800
FFC01FFC00
FFC00FFE00
FFC007FE00
FFC007FF00
FFC003FF80
FFC001FF80
FFC001FFC0
FFC000FFE0
FFC000FFE0
FFC0007FF0
FFC0003FF8
FFC0003FF8
ENDCHAR
STARTCHAR S
ENCODING 83
SWIDTH 633 0
DWIDTH 41 0
BBX 36 46 2 -1
BITMAP
0007FE0000
003FFFE000
00FFFFF800
03FFFFFE00
07FFFFFF80
0FFFFFFFC0
1FFFFFFFE0
1FFFFFFFC0
3FFC07FF80
3FF800FF00
3FF0003F00
3FE0000E00
7FE0000400
7FE0000000
7FE0000000
7FF0000000
3FF8000000
3FFF000000
3FFFE00000
1FFFFE0000
1FFFFFE000
0FFFFFF800
07FFFFFE00
01FFFFFF00
007FFFFF80
001FFFFFC0
0003FFFFE0
00003FFFE0
000003FFF0
000000FFF0
0000003FF0
0000003FF0
0000003FF0
0E00003FF0
1F00003FF0
3FC0003FF0
7FF0007FE0
FFFE01FFE0
FFFFFFFFE0
FFFFFFFFC0
3FFFFFFF80
1FFFFFFF00
07FFFFFE00
01FFFFFC00
007FFFF000
0007FF0000
ENDCHAR
STARTCHAR T
ENCODING 84
SWIDTH 639 0
DWIDTH 41 0
BBX 37 46 2 -1
BITMAP
FFFFFFFFF8
FFFFFFFFF8
FFFFFFFFF8
FFFFFFFFF8
FFFFFFFFF8
FFFFFFFFF8
FFFFFFFFF8
FFFFFFFFF8
FFFFFFFFF8
0003FE0000
0003FE0000
0003FE0000
0003FE0000
0003FE0000
0003FE0000
0003FE0000
0003FE0000
0003FE0000
0003FE0000
0003FE0000
0003FE0000
0003FE0000
0003FE0000
0003FE0000
0003FE0000
0003FE0000
0003FE0000
0003FE0000
0003FE0000
0003FE0000
0003FE0000
0003FE0000
0003FE0000
0003FE0000
0003FE0000
0003FE0000
0003FE0000
0003FE0000
0003FE0000
0003FE0000
0003FE0000
0003FE0000
0003FE0000
0003FE0000
0003FE0000
0003FE0000
ENDCHAR
STARTCHAR U
ENCODING 85
SWIDTH 755 0
DWIDTH 48 0
BBX 40 46 4 -1
BITMAP
FFC00001FF
FFC00001FF
FFC00001FF
FFC00001FF
FFC00001FF
FFC00001FF
FFC00001FF
FFC00001FF
FFC00001FF
FFC00001FF
FFC00001FF
FFC00001FF
FFC00001FF
FFC00001FF
FFC00001FF
FFC00001FF
FFC00001FF
FFC00001FF
FFC00001FF
FFC00001FF
FFC00001FF
FFC00001FF
FFC00001FF
FFC00001FF
FFC00001FF
FFC00001FF
FFC00001FF
FFC00003FF
FFC00003FF
7FC00003FF
7FE00003FF
7FE00007FE
7FE00007FE
3FF0000FFE
3FF8001FFC
3FFC003FFC
1FFF00FFF8
1FFFFFFFF8
0FFFFFFFF0
07FFFFFFE0
03FFFFFFC0
01FFFFFF80
00FFFFFF00
003FFFFC00
000FFFF000
0001FF8000
ENDCHAR
STARTCHAR V
ENCODING 86
SWIDTH 751 0
DWIDTH 48 0
BBX 46 46 1 -1
BITMAP
FFE000001FFC
FFE000001FFC
7FE000001FF8
7FF000003FF8
3FF000003FF0
3FF800003FF0
3FF800007FF0
1FF800007FE0
1FFC0000FFE0
0FFC0000FFE0
0FFE0000FFC0
0FFE0001FFC0
07FE0001FF80
07FF0003FF80
07FF0003FF80
03FF0003FF00
03FF8007FF00
01FF8007FE00
01FFC00FFE00
01FFC00FFE00
00FFC00FFC00
00FFE01FFC00
007FE01FF800
007FF01FF800
007FF03FF800
003FF03FF000
003FF87FF000
001FF87FF000
001FFC7FE000
001FFCFFE000
000FFCFFC000
000FFFFFC000
000FFFFFC000
0007FFFF8000
0007FFFF8000
0003FFFF0000
0003FFFF0000
0003FFFF0000
0001FFFE0000
0001FFFE0000
0000FFFC0000
0000FFFC0000
0000FFFC0000
00007FF80000
00007FF80000
00003FF00000
ENDCHAR
STARTCHAR W
ENCODING 87
SWIDTH 1078 0
DWIDTH 69 0
BBX 67 46 1 -1
BITMAP
FFE0000FFE0000FFE0
7FE0000FFE0000FFC0
7FE0000FFE0000FFC0
7FE0001FFF0000FFC0
3FF0001FFF0001FF80
3FF0001FFF0001FF80
3FF0003FFF8001FF80
3FF8003FFF8003FF80
1FF8003FFF8003FF00
1FF8007FFFC003FF00
1FF8007FFFC003FF00
0FFC007FFFC007FE00
0FFC00FFFFE007FE00
0FFC00FFFFE007FE00
0FFC00FFFFE007FE00
07FE01FFBFF00FFC00
07FE01FFBFF00FFC00
07FE01FF9FF00FFC00
03FE01FF1FF00FF800
03FF03FF1FF81FF800
03FF03FF0FF81FF800
03FF03FE0FF81FF000
01FF07FE0FFC1FF000
01FF87FE07FC3FF000
01FF87FC07FC3FF000
00FF8FFC07FE3FE000
00FFCFFC03FE7FE000
00FFCFF803FE7FE000
00FFDFF803FF7FC000
007FDFF803FF7FC000
007FFFF001FFFFC000
007FFFF001FFFFC000
003FFFF001FFFF8000
003FFFE000FFFF8000
003FFFE000FFFF8000
001FFFE000FFFF0000
001FFFC0007FFF0000
001FFFC0007FFF0000
001FFFC0007FFF0000
000FFF80003FFE0000
000FFF80003FFE0000
000FFF80003FFE0000
0007FF00001FFC0000
0007FF00001FFC0000
0007FF00001FFC0000
0007FE00000FFC0000
ENDCHAR
STARTCHAR X
ENCODING 88
SWIDTH 711 0
DWIDTH 46 0
BBX 43 46 1 -1
BITMAP
FFF00000FFE0
7FF00001FFC0
3FF80001FFC0
1FFC0003FF80
1FFC0007FF00
0FFE0007FF00
07FF000FFE00
07FF801FFC00
03FF803FF800
01FFC03FF800
01FFE07FF000
00FFE0FFE000
007FF0FFE000
003FF9FFC000
003FFBFF8000
001FFFFF8000
000FFFFF0000
000FFFFE0000
0007FFFC0000
0003FFFC0000
0003FFF80000
0001FFF00000
0000FFF00000
0000FFF00000
0001FFF00000
0001FFF80000
0003FFFC0000
0007FFFE0000
000FFFFE0000
000FFFFF0000
001FFFFF8000
003FFBFF8000
003FF9FFC000
007FF1FFE000
00FFE0FFE000
01FFE07FF000
01FFC03FF800
03FF803FF800
07FF001FFC00
07FF000FFE00
0FFE000FFF00
1FFC0007FF00
1FFC0003FF80
3FF80003FFC0
7FF00001FFC0
FFE00000FFE0
ENDCHAR
STARTCHAR Y
ENCODING 89
SWIDTH 694 0
DWIDTH 44 0
BBX 43 46 1 -1
BITMAP
FFE00000FFE0
FFE00000FFC0
7FF00001FFC0
7FF00001FF80
3FF80003FF80
3FF80007FF00
1FFC0007FE00
0FFC000FFE00
0FFE000FFC00
07FE001FFC00
07FF001FF800
03FF803FF000
01FF803FF000
01FFC07FE000
00FFC0FFE000
00FFE0FFC000
007FE1FFC000
007FF1FF8000
003FF3FF0000
001FFBFF0000
001FFFFE0000
000FFFFE0000
000FFFFC0000
0007FFF80000
0003FFF80000
0003FFF00000
0001FFF00000
0001FFE00000
0000FFE00000
0000FFC00000
0000FFC00000
0000FFC00000
0000FFC00000
0000FFC00000
0000FFC00000
0000FFC00000
0000FFC00000
0000FFC00000
0000FFC00000
0000FFC00000
0000FFC00000
0000FFC00000
0000FFC00000
0000FFC00000
0000FFC00000
0000FFC00000
ENDCHAR
STARTCHAR Z
ENCODING 90
SWIDTH 661 0
DWIDTH 42 0
BBX 36 46 3 -1
BITMAP
7FFFFFFFF0
7FFFFFFFF0
7FFFFFFFF0
7FFFFFFFF0
7FFFFFFFF0
7FFFFFFFF0
7FFFFFFFF0
7FFFFFFFF0
7FFFFFFFE0
000003FFC0
000003FFC0
000007FF80
00000FFF00
00001FFE00
00001FFE00
00003FFC00
00007FF800
0000FFF000
0001FFE000
0001FFE000
0003FFC000
0007FF8000
000FFF0000
000FFF0000
001FFE0000
003FFC0000
007FF80000
007FF80000
00FFF00000
01FFE00000
03FFC00000
03FFC00000
07FF800000
0FFF000000
1FFE000000
1FFE000000
3FFC000000
7FFFFFFFF0
FFFFFFFFF0
FFFFFFFFF0
FFFFFFFFF0
FFFFFFFFF0
FFFFFFFFF0
FFFFFFFFF0
FFFFFFFFF0
FFFFFFFFF0
ENDCHAR
STARTCHAR bracketleft
ENCODING 91
SWIDTH 385 0
DWIDTH 25 0
BBX 17 54 5 -9
BITMAP
FFFF80
FFFF80
FFFF80
FFFF80
FFFF80
FFFF80
FE0000
FE0000
FE0000
FE0000
FE0000
FE0000
FE0000
FE0000
FE0000
FE0000
FE0000
FE0000
FE0000
FE0000
FE0000
FE0000
FE0000
FE0000
FE0000
FE0000
FE0000
FE0000
FE0000
FE0000
FE0000
FE0000
FE0000
FE0000
FE0000
FE0000
FE0000
FE0000
FE0000
FE0000
FE0000
FE0000
FE0000
FE0000
FE0000
FE0000
FE0000
FE0000
FFFF80
FFFF80
FFFF80
FFFF80
FFFF80
FFFF80
ENDCHAR
STARTCHAR backslash
ENCODING 92
SWIDTH 462 0
DWIDTH 30 0
BBX 32 52 -1 -5
BITMAP
FFC00000
7FE00000
7FE00000
3FF00000
3FF00000
1FF00000
1FF80000
1FF80000
0FFC0000
0FFC0000
07FE0000
07FE0000
03FE0000
03FF0000
03FF0000
01FF8000
01FF8000
00FFC000
00FFC000
00FFC000
007FE000
007FE000
003FF000
003FF000
001FF000
001FF800
001FF800
000FFC00
000FFC00
0007FE00
0007FE00
0003FE00
0003FF00
0003FF00
0001FF80
0001FF80
0000FFC0
0000FFC0
00007FC0
00007FE0
00007FE0
00003FF0
00003FF0
00001FF8
00001FF8
00001FF8
00000FFC
00000FFC
000007FE
000007FE
000003FE
000003FF
ENDCHAR
STARTCHAR bracketright
ENCODING 93
SWIDTH 385 0
DWIDTH 25 0
BBX 17 54 3 -9
BITMAP
FFFF80
FFFF80
FFFF80
FFFF80
FFFF80
FFFF80
003F80
003F80
003F80
003F80
003F80
003F80
003F80
003F80
003F80
003F80
003F80
003F80
003F80
003F80
003F80
003F80
003F80
003F80
003F80
003F80
003F80
003F80
003F80
003F80
003F80
003F80
003F80
003F80
003F80
003F80
003F80
003F80
003F80
003F80
003F80
003F80
003F80
003F80
003F80
003F80
003F80
003F80
FFFF80
FFFF80
FFFF80
FFFF80
FFFF80
FFFF80
ENDCHAR
STARTCHAR asciicircum
ENCODING 94
SWIDTH 488 0
DWIDTH 31 0
BBX 25 18 3 27
BITMAP
007F0000
007F8000
00FF8000
01FFC000
01FFC000
03FFE000
03F7E000
07F7F000
07E3F800
0FE3F800
0FC1FC00
1FC0FC00
1F80FE00
3F007E00
7F007F00
7E003F00
FE003F80
FC001F80
ENDCHAR
STARTCHAR underscore
ENCODING 95
SWIDTH 592 0
DWIDTH 38 0
BBX 38 5 0 -10
BITMAP
FFFFFFFFFC
FFFFFFFFFC
FFFFFFFFFC
FFFFFFFFFC
FFFFFFFFFC
ENDCHAR
STARTCHAR grave
ENCODING 96
SWIDTH 373 0
DWIDTH 24 0
BBX 15 10 4 37
BITMAP
0380
FFC0
7FC0
3FE0
1FF0
0FF0
03F8
01FC
00FE
007E
ENDCHAR
STARTCHAR a
ENCODING 97
SWIDTH 581 0
DWIDTH 37 0
BBX 31 35 2 -1
BITMAP
000FF800
00FFFF00
07FFFFC0
1FFFFFE0
1FFFFFF0
0FFFFFF8
0FFFFFFC
07FFFFFC
07801FFC
020007FE
000007FE
000003FE
000003FE
003FC3FE
01FFFFFE
07FFFFFE
0FFFFFFE
1FFFFFFE
3FFFFFFE
7FF81FFE
7FE003FE
FFC003FE
FFC003FE
FF8003FE
FF8003FE
FF8003FE
FFC007FE
7FC00FFE
7FE01FFE
3FFFFFFE
3FFFFFFE
1FFFFFFE
0FFFFBFE
03FFE3FE
00FF03FE
ENDCHAR
STARTCHAR b
ENCODING 98
SWIDTH 660 0
DWIDTH 42 0
BBX 36 46 4 -1
BITMAP
FF80000000
FF80000000
FF80000000
FF80000000
FF80000000
FF80000000
FF80000000
FF80000000
FF80000000
FF80000000
FF80000000
FF807F0000
FF83FFE000
FF8FFFF800
FF9FFFFC00
FFBFFFFE00
FFFFFFFF00
FFFFFFFF80
FFFFFFFF80
FFFE07FFC0
FFF801FFC0
FFF000FFE0
FFE0007FE0
FFC0007FE0
FFC0003FE0
FFC0003FF0
FFC0003FF0
FF80001FF0
FF80001FF0
FF80001FF0
FFC0003FF0
FFC0003FF0
FFC0003FE0
FFC0007FE0
FFE0007FE0
FFF000FFE0
FFF801FFC0
FFFE07FFC0
FFFFFFFF80
FFFFFFFF80
FFFFFFFF00
FFBFFFFE00
FF9FFFFC00
FF8FFFF800
FF83FFE000
FF80FF0000
ENDCHAR
STARTCHAR c
ENCODING 99
SWIDTH 548 0
DWIDTH 35 0
BBX 31 35 2 -1
BITMAP
0003FE00
001FFFC0
007FFFF0
01FFFFF8
03FFFFFC
07FFFFFE
0FFFFFFC
1FFFFFF8
1FFE07F0
3FF801E0
3FF00040
7FE00000
7FE00000
7FC00000
FFC00000
FFC00000
FF800000
FF800000
FF800000
FFC00000
FFC00000
7FC00000
7FE00000
7FE00000
3FF00040
3FF801E0
1FFE07F0
1FFFFFFC
0FFFFFFE
07FFFFFE
03FFFFFC
00FFFFF8
007FFFF0
001FFFC0
0003FE00
ENDCHAR
STARTCHAR d
ENCODING 100
SWIDTH 660 0
DWIDTH 42 0
BBX 36 46 2 -1
BITMAP
0000001FF0
0000001FF0
0000001FF0
0000001FF0
0000001FF0
0000001FF0
0000001FF0
0000001FF0
0000001FF0
0000001FF0
0000001FF0
000FE01FF0
007FFC1FF0
01FFFF1FF0
03FFFF9FF0
07FFFFDFF0
0FFFFFFFF0
1FFFFFFFF0
1FFFFFFFF0
3FFE03FFF0
3FF801FFF0
7FF000FFF0
7FE0007FF0
7FE0003FF0
7FC0003FF0
7FC0003FF0
FFC0001FF0
FFC0001FF0
FFC0001FF0
FFC0001FF0
FFC0001FF0
7FC0003FF0
7FC0003FF0
7FE0003FF0
7FE0007FF0
3FF000FFF0
3FF801FFF0
3FFE03FFF0
1FFFFFFFF0
1FFFFFFFF0
0FFFFFFFF0
07FFFFDFF0
03FFFF9FF0
01FFFF1FF0
007FFC1FF0
000FF01FF0
ENDCHAR
STARTCHAR e
ENCODING 101
SWIDTH 593 0
DWIDTH 38 0
BBX 34 35 2 -1
BITMAP
0007FC0000
003FFF0000
00FFFFC000
01FFFFE000
07FFFFF000
07FFFFF800
0FFFFFFC00
1FFFFFFE00
3FFF0FFE00
3FF803FF00
7FF001FF00
7FE000FF00
7FE000FF80
7FC0007F80
FFFFFFFF80
FFFFFFFF80
FFFFFFFF80
FFFFFFFFC0
FFFFFFFFC0
FFFFFFFFC0
FFFFFFFFC0
7FC0000000
7FE0000000
7FE0000000
3FF000C000
3FF801E000
3FFF0FF000
1FFFFFF800
0FFFFFFC00
07FFFFFE00
03FFFFFE00
01FFFFF800
00FFFFF000
003FFFC000
0007FC0000
ENDCHAR
STARTCHAR f
ENCODING 102
SWIDTH 379 0
DWIDTH 24 0
BBX 22 48 2 -1
BITMAP
001F80
007FF0
01FFF8
03FFFC
03FFF8
07FFF8
07FFF0
0FFFF0
0FFC10
0FF800
0FF800
0FF800
0FF800
FFFFF0
FFFFF0
FFFFF0
FFFFF0
FFFFF0
FFFFF0
FFFFF0
FFFFF0
0FF800
0FF800
0FF800
0FF800
0FF800
0FF800
0FF800
0FF800
0FF800
0FF800
0FF800
0FF800
0FF800
0FF800
0FF800
0FF800
0FF800
0FF800
0FF800
0FF800
0FF800
0FF800
0FF800
0FF800
0FF800
0FF800
0FF800
ENDCHAR
STARTCHAR g
ENCODING 103
SWIDTH 649 0
DWIDTH 42 0
BBX 35 45 2 -11
BITMAP
001FE03FE0
00FFFC3FE0
01FFFE3FE0
07FFFF3FE0
0FFFFFBFE0
0FFFFFFFE0
1FFFFFFFE0
3FFFFFFFE0
3FFE07FFE0
7FF801FFE0
7FF000FFE0
7FE0007FE0
7FE0007FE0
FFC0003FE0
FFC0003FE0
FFC0003FE0
FFC0003FE0
7FC0003FE0
7FE0007FE0
7FE0007FE0
7FF000FFE0
7FF801FFE0
3FFE07FFE0
3FFFFFFFE0
1FFFFFFFE0
0FFFFFFFE0
0FFFFFFFE0
07FFFF3FE0
01FFFE3FE0
007FFC3FE0
001FE03FE0
0000003FE0
0000007FE0
0000007FE0
020000FFE0
078001FFC0
07E00FFFC0
07FFFFFF80
0FFFFFFF80
0FFFFFFF00
1FFFFFFE00
0FFFFFFC00
03FFFFF000
00FFFFC000
000FFE0000
ENDCHAR
STARTCHAR h
ENCODING 104
SWIDTH 614 0
DWIDTH 39 0
BBX 32 46 4 -1
BITMAP
FF800000
FF800000
FF800000
FF800000
FF800000
FF800000
FF800000
FF800000
FF800000
FF800000
FF800000
FF81FE00
FF87FF80
FF9FFFE0
FFBFFFF0
FFFFFFF8
FFFFFFF8
FFFFFFFC
FFFFFFFC
FFF81FFE
FFF00FFE
FFE007FE
FFC003FE
FFC003FE
FF8003FF
FF8003FF
FF8003FF
FF8003FF
FF8003FF
FF8003FF
FF8003FF
FF8003FF
FF8003FF
FF8003FF
FF8003FF
FF8003FF
FF8003FF
FF8003FF
FF8003FF
FF8003FF
FF8003FF
FF8003FF
FF8003FF
FF8003FF
FF8003FF
FF8003FF
ENDCHAR
STARTCHAR i
ENCODING 105
SWIDTH 272 0
DWIDTH 17 0
BBX 10 50 4 -1
BITMAP
1E00
7F00
FF80
FF80
FFC0
FFC0
FFC0
FF80
7F00
3E00
0000
0000
0000
0000
0000
FF80
FF80
FF80
FF80
FF80
FF80
FF80
FF80
FF80
FF80
FF80
FF80
FF80
FF80
FF80
FF80
FF80
FF80
FF80
FF80
FF80
FF80
FF80
FF80
FF80
FF80
FF80
FF80
FF80
FF80
FF80
FF80
FF80
FF80
FF80
ENDCHAR
STARTCHAR j
ENCODING 106
SWIDTH 272 0
DWIDTH 17 0
BBX 17 61 -3 -12
BITMAP
003C00
00FE00
01FF00
01FF00
01FF80
01FF80
01FF80
01FF00
00FE00
007C00
000000
000000
000000
000000
000000
01FF00
01FF00
01FF00
01FF00
01FF00
01FF00
01FF00
01FF00
01FF00
01FF00
01FF00
01FF00
01FF00
01FF00
01FF00
01FF00
01FF00
01FF00
01FF00
01FF00
01FF00
01FF00
01FF00
01FF00
01FF00
01FF00
01FF00
01FF00
01FF00
01FF00
01FF00
01FF00
01FF00
01FF00
01FF00
01FF00
03FF00
87FF00
FFFF00
FFFF00
FFFE00
FFFE00
FFFC00
FFF800
FFE000
0F0000
ENDCHAR
STARTCHAR k
ENCODING 107
SWIDTH 571 0
DWIDTH 37 0
BBX 32 46 4 -1
BITMAP
FF800000
FF800000
FF800000
FF800000
FF800000
FF800000
FF800000
FF800000
FF800000
FF800000
FF800000
FF8007FF
FF800FFE
FF801FFC
FF801FF8
FF803FF8
FF807FF0
FF80FFE0
FF81FFC0
FF81FF80
FF83FF00
FF87FF00
FF8FFE00
FF9FFC00
FF9FF800
FFBFF000
FFFFE000
FFFFF000
FFFFF800
FFFFF800
FFFFFC00
FFFFFE00
FFFFFE00
FFFBFF00
FFF3FF80
FFE1FF80
FFC1FFC0
FF80FFE0
FF807FE0
FF807FF0
FF803FF8
FF801FF8
FF801FFC
FF800FFE
FF800FFE
FF8007FF
ENDCHAR
STARTCHAR l
ENCODING 108
SWIDTH 273 0
DWIDTH 17 0
BBX 9 46 4 -1
BITMAP
FF80
FF80
FF80
FF80
FF80
FF80
FF80
FF80
FF80
FF80
FF80
FF80
FF80
FF80
FF80
FF80
FF80
FF80
FF80
FF80
FF80
FF80
FF80
FF80
FF80
FF80
FF80
FF80
FF80
FF80
FF80
FF80
FF80
FF80
FF80
FF80
FF80
FF80
FF80
FF80
FF80
FF80
FF80
FF80
FF80
FF80
ENDCHAR
STARTCHAR m
ENCODING 109
SWIDTH 929 0
DWIDTH 59 0
BBX 52 35 4 -1
BITMAP
FF81FC000FE000
FF87FF007FF800
FF9FFFC0FFFE00
FFBFFFE3FFFF00
FFBFFFF3FFFF80
FFFFFFF7FFFFC0
FFFFFFFFFFFFC0
FFFFFFFFFFFFE0
FFF83FFFC1FFE0
FFE00FFF007FE0
FFC00FFF003FE0
FFC007FE003FF0
FF8007FE003FF0
FF8007FC001FF0
FF8007FC001FF0
FF8007FC001FF0
FF8007FC001FF0
FF8007FC001FF0
FF8007FC001FF0
FF8007FC001FF0
FF8007FC001FF0
FF8007FC001FF0
FF8007FC001FF0
FF8007FC001FF0
FF8007FC001FF0
FF8007FC001FF0
FF8007FC001FF0
FF8007FC001FF0
FF8007FC001FF0
FF8007FC001FF0
FF8007FC001FF0
FF8007FC001FF0
FF8007FC001FF0
FF8007FC001FF0
FF8007FC001FF0
ENDCHAR
STARTCHAR n
ENCODING 110
SWIDTH 614 0
DWIDTH 39 0
BBX 32 35 4 -1
BITMAP
FF81FE00
FF87FF80
FF9FFFE0
FFBFFFF0
FFFFFFF8
FFFFFFF8
FFFFFFFC
FFFFFFFC
FFF81FFE
FFF00FFE
FFE007FE
FFC003FE
FFC003FE
FF8003FF
FF8003FF
FF8003FF
FF8003FF
FF8003FF
FF8003FF
FF8003FF
FF8003FF
FF8003FF
FF8003FF
FF8003FF
FF8003FF
FF8003FF
FF8003FF
FF8003FF
FF8003FF
FF8003FF
FF8003FF
FF8003FF
FF8003FF
FF8003FF
FF8003FF
ENDCHAR
STARTCHAR o
ENCODING 111
SWIDTH 634 0
DWIDTH 41 0
BBX 36 35 2 -1
BITMAP
0003FE0000
001FFFC000
007FFFE000
01FFFFF800
03FFFFFC00
07FFFFFE00
0FFFFFFF00
1FFFFFFF80
1FFE03FFC0
3FF801FFC0
3FF000FFE0
7FE0007FE0
7FE0003FF0
7FC0001FF0
FFC0001FF0
FF80001FF0
FF80001FF0
FF80001FF0
FF80001FF0
FF80001FF0
FFC0001FF0
7FC0001FF0
7FE0003FF0
7FE0007FE0
3FF000FFE0
3FF801FFC0
1FFE07FFC0
1FFFFFFF80
0FFFFFFF00
07FFFFFE00
03FFFFFC00
00FFFFF800
007FFFF000
001FFFC000
0003FE0000
ENDCHAR
STARTCHAR p
ENCODING 112
SWIDTH 660 0
DWIDTH 42 0
BBX 36 46 4 -11
BITMAP
00000E0000
FF807FE000
FF83FFF000
FF8FFFFC00
FF9FFFFE00
FFBFFFFF00
FFFFFFFF00
FFFFFFFF80
FFFE0FFFC0
FFF801FFC0
FFF000FFC0
FFE0007FE0
FFE0007FE0
FFC0003FE0
FFC0003FE0
FFC0003FF0
FF80001FF0
FF80001FF0
FF80001FF0
FF80001FF0
FFC0003FF0
FFC0003FE0
FFC0003FE0
FFE0007FE0
FFE0007FE0
FFF000FFE0
FFF801FFC0
FFFE07FFC0
FFFFFFFF80
FFFFFFFF80
FFFFFFFF00
FFBFFFFE00
FF9FFFFC00
FF8FFFF800
FF83FFE000
FF80FF0000
FF80000000
FF80000000
FF80000000
FF80000000
FF80000000
FF80000000
FF80000000
FF80000000
FF80000000
FF80000000
ENDCHAR
STARTCHAR q
ENCODING 113
SWIDTH 660 0
DWIDTH 42 0
BBX 36 45 2 -11
BITMAP
000FE01FF0
007FFC1FF0
01FFFF1FF0
03FFFF9FF0
07FFFFDFF0
0FFFFFFFF0
1FFFFFFFF0
1FFFFFFFF0
3FFE03FFF0
3FF801FFF0
7FF000FFF0
7FE0007FF0
7FE0003FF0
7FC0003FF0
7FC0003FF0
FFC0001FF0
FFC0001FF0
FFC0001FF0
FFC0001FF0
FFC0001FF0
7FC0003FF0
7FC0003FF0
7FE0003FF0
7FE0007FF0
3FF000FFF0
3FF801FFF0
3FFE03FFF0
1FFFFFFFF0
1FFFFFFFF0
0FFFFFFFF0
07FFFFDFF0
03FFFF9FF0
01FFFF1FF0
007FFC1FF0
000FF01FF0
0000001FF0
0000001FF0
0000001FF0
0000001FF0
0000001FF0
0000001FF0
0000001FF0
0000001FF0
0000001FF0
0000001FF0
ENDCHAR
STARTCHAR r
ENCODING 114
SWIDTH 407 0
DWIDTH 26 0
BBX 21 35 4 -1
BITMAP
FF8078
FF81F8
FF87F8
FF8FF8
FF9FF8
FFBFF8
FFBFF8
FFFFF8
FFFF00
FFFC00
FFF800
FFF000
FFE000
FFC000
FFC000
FFC000
FFC000
FF8000
FF8000
FF8000
FF8000
FF8000
FF8000
FF8000
FF8000
FF8000
FF8000
FF8000
FF8000
FF8000
FF8000
FF8000
FF8000
FF8000
FF8000
ENDCHAR
STARTCHAR s
ENCODING 115
SWIDTH 502 0
DWIDTH 32 0
BBX 28 35 2 -1
BITMAP
003FE000
01FFFC00
07FFFF00
0FFFFFC0
1FFFFFE0
3FFFFFC0
3FFFFFC0
3FFFFF80
7FE03F80
7FC00700
7FC00000
7FE00000
7FF80000
7FFF0000
3FFFE000
3FFFFC00
1FFFFF00
0FFFFF80
03FFFFC0
00FFFFE0
001FFFE0
0001FFF0
00007FF0
00001FF0
18001FF0
3E001FF0
3F803FF0
7FFFFFE0
7FFFFFE0
FFFFFFE0
FFFFFFC0
3FFFFF80
0FFFFF00
03FFFC00
003FE000
ENDCHAR
STARTCHAR t
ENCODING 116
SWIDTH 398 0
DWIDTH 25 0
BBX 22 44 2 -1
BITMAP
0FF800
0FF800
0FF800
0FF800
0FF800
0FF800
0FF800
0FF800
0FF800
FFFFF0
FFFFF0
FFFFF0
FFFFF0
FFFFF0
FFFFF0
FFFFF0
FFFFF0
0FF800
0FF800
0FF800
0FF800
0FF800
0FF800
0FF800
0FF800
0FF800
0FF800
0FF800
0FF800
0FF800
0FF800
0FF800
0FF800
0FF800
0FFC00
0FFE10
0FFFF0
07FFF0
07FFF8
03FFF8
03FFFC
01FFF8
007FF0
001F80
ENDCHAR
STARTCHAR u
ENCODING 117
SWIDTH 614 0
DWIDTH 39 0
BBX 31 35 4 -1
BITMAP
FF8003FE
FF8003FE
FF8003FE
FF8003FE
FF8003FE
FF8003FE
FF8003FE
FF8003FE
FF8003FE
FF8003FE
FF8003FE
FF8003FE
FF8003FE
FF8003FE
FF8003FE
FF8003FE
FF8003FE
FF8003FE
FF8003FE
FF8003FE
FF8003FE
FF8003FE
FF8003FE
FF8007FE
FFC007FE
FFE00FFE
FFF03FFE
7FFFFFFE
7FFFFFFE
3FFFFFFE
3FFFFFFE
1FFFFBFE
0FFFF3FE
03FFC3FE
00FF03FE
ENDCHAR
STARTCHAR v
ENCODING 118
SWIDTH 606 0
DWIDTH 39 0
BBX 37 35 1 -1
BITMAP
FFC0001FF8
FFC0001FF0
7FE0003FF0
7FE0003FF0
3FE0003FE0
3FF0007FE0
3FF0007FC0
1FF000FFC0
1FF800FFC0
0FF800FF80
0FFC01FF80
07FC01FF00
07FC01FF00
07FE03FE00
03FE03FE00
03FE03FE00
01FF07FC00
01FF07FC00
01FF8FF800
00FF8FF800
00FF8FF800
007FDFF000
007FDFF000
007FDFE000
003FFFE000
003FFFE000
001FFFC000
001FFFC000
001FFF8000
000FFF8000
000FFF8000
0007FF0000
0007FF0000
0003FE0000
0003FE0000
ENDCHAR
STARTCHAR w
ENCODING 119
SWIDTH 841 0
DWIDTH 54 0
BBX 52 35 1 -1
BITMAP
FF8003FC003FF0
7FC003FC003FE0
7FC007FE003FE0
7FC007FE003FE0
3FE007FE007FC0
3FE00FFF007FC0
3FE00FFF007FC0
1FE00FFF00FF80
1FF00FFF00FF80
1FF01FFF80FF80
0FF01FFF80FF00
0FF81FFF81FF00
0FF83FFFC1FF00
0FF83FFFC1FE00
07F83FFFC3FE00
07FC7F9FC3FE00
07FC7F9FE3FC00
03FC7F9FE3FC00
03FE7F0FE7FC00
03FEFF0FF7FC00
01FEFF0FF7F800
01FEFF0FFFF800
01FFFE07FFF800
00FFFE07FFF000
00FFFE07FFF000
00FFFC07FFF000
007FFC03FFE000
007FFC03FFE000
007FFC03FFE000
003FF801FFC000
003FF801FFC000
003FF801FFC000
001FF801FF8000
001FF000FF8000
001FF000FF8000
ENDCHAR
STARTCHAR x
ENCODING 120
SWIDTH 566 0
DWIDTH 36 0
BBX 34 35 1 -1
BITMAP
7FE001FF80
7FF001FF80
3FF003FF00
1FF807FE00
1FFC07FE00
0FFC0FFC00
07FE1FF800
03FF1FF800
03FF3FF000
01FFFFE000
00FFFFE000
00FFFFC000
007FFF8000
003FFF0000
003FFF0000
001FFE0000
000FFC0000
000FFC0000
001FFE0000
001FFF0000
003FFF0000
007FFF8000
00FFFFC000
00FFFFC000
01FFFFE000
03FF3FF000
03FF3FF800
07FE1FF800
0FFC0FFC00
0FFC0FFE00
1FF807FE00
3FF003FF00
3FF003FF80
7FE001FF80
FFC000FFC0
ENDCHAR
STARTCHAR y
ENCODING 121
SWIDTH 601 0
DWIDTH 38 0
BBX 36 46 1 -12
BITMAP
FFC0003FF0
7FC0003FF0
7FE0003FE0
7FE0007FE0
3FE0007FC0
3FF0007FC0
1FF000FFC0
1FF000FF80
1FF800FF80
0FF801FF80
0FF801FF00
07FC01FF00
07FC03FE00
07FE03FE00
03FE03FE00
03FE07FC00
03FF07FC00
01FF07FC00
01FF0FF800
00FF8FF800
00FF8FF000
00FF9FF000
007FDFF000
007FDFE000
003FFFE000
003FFFE000
003FFFC000
001FFFC000
001FFF8000
000FFF8000
000FFF8000
000FFF0000
0007FF0000
0007FF0000
0003FE0000
0007FE0000
0007FC0000
000FFC0000
0C1FF80000
0FFFF80000
1FFFF00000
1FFFF00000
1FFFE00000
3FFFC00000
0FFF000000
03FC000000
ENDCHAR
STARTCHAR z
ENCODING 122
SWIDTH 532 0
DWIDTH 34 0
BBX 29 35 3 -1
BITMAP
FFFFFFF0
FFFFFFF0
FFFFFFF0
FFFFFFF0
FFFFFFF0
FFFFFFF0
FFFFFFF0
FFFFFFF0
0000FFE0
0001FFC0
0003FF80
0007FF00
0007FF00
000FFE00
001FFC00
003FF800
007FF000
00FFF000
00FFE000
01FFC000
03FF8000
07FF0000
0FFF0000
0FFE0000
1FFC0000
3FF80000
7FF00000
FFFFFFF8
FFFFFFF8
FFFFFFF8
FFFFFFF8
FFFFFFF8
FFFFFFF8
FFFFFFF8
FFFFFFF8
ENDCHAR
STARTCHAR braceleft
ENCODING 123
SWIDTH 407 0
DWIDTH 26 0
BBX 22 55 2 -10
BITMAP
000078
0007F8
001FF8
007FF8
00FFFC
00FFFC
01FFC0
01FE00
03FC00
03FC00
03FC00
03F800
03F800
03F800
03F800
03F800
03F800
03F800
03F800
03F800
03F800
03F800
03F800
07F800
1FF800
FFF000
FFE000
FF8000
FFC000
FFE000
FFF000
0FF800
07F800
03F800
03F800
03F800
03F800
03F800
03F800
03F800
03F800
03F800
03F800
03F800
03F800
03FC00
03FC00
01FE00
01FF00
01FFF0
00FFFC
007FFC
003FF8
000FF8
0001F8
ENDCHAR
STARTCHAR bar
ENCODING 124
SWIDTH 299 0
DWIDTH 19 0
BBX 7 52 6 -5
BITMAP
FE
FE
FE
FE
FE
FE
FE
FE
FE
FE
FE
FE
FE
FE
FE
FE
FE
FE
FE
FE
FE
FE
FE
FE
FE
FE
FE
FE
FE
FE
FE
FE
FE
FE
FE
FE
FE
FE
FE
FE
FE
FE
FE
FE
FE
FE
FE
FE
FE
FE
FE
FE
ENDCHAR
STARTCHAR braceright
ENCODING 125
SWIDTH 407 0
DWIDTH 26 0
BBX 22 55 2 -10
BITMAP
780000
7F8000
7FE000
7FF800
FFFC00
FFFC00
0FFE00
01FE00
00FF00
00FF00
00FF00
007F00
007F00
007F00
007F00
007F00
007F00
007F00
00FF00
00FF00
00FF00
00FF00
007F00
007F80
007FC0
003FFC
001FFC
0007FC
000FFC
003FFC
003FFC
007FC0
007F80
007F00
00FF00
00FF00
00FF00
00FF00
00FF00
007F00
007F00
007F00
007F00
007F00
00FF00
00FF00
00FF00
01FE00
03FE00
3FFE00
FFFC00
FFF800
7FF000
7FC000
7E0000
ENDCHAR
STARTCHAR asciitilde
ENCODING 126
SWIDTH 452 0
DWIDTH 29 0
BBX 23 9 3 19
BITMAP
07803C
1FE03E
3FF87E
7FFFFC
7FFFFC
7FFFFC
FC7FF8
F81FF0
F807E0
ENDCHAR
STARTCHAR exclamdown
ENCODING 161
SWIDTH 307 0
DWIDTH 20 0
BBX 12 45 4 -11
BITMAP
1F00
3FC0
7FE0
7FE0
FFE0
FFF0
FFF0
FFE0
7FE0
7FC0
3F80
0E00
0000
0000
0000
0000
3F80
3F80
3F80
3F80
3F80
3F80
3F80
3F80
3F80
3FC0
3FC0
3FC0
3FC0
3FC0
7FC0
7FC0
7FC0
7FC0
7FC0
7FC0
7FC0
7FC0
7FE0
7FE0
7FE0
7FE0
7FE0
FFE0
FFE0
ENDCHAR
STARTCHAR cent
ENCODING 162
SWIDTH 548 0
DWIDTH 35 0
BBX 31 43 2 -5
BITMAP
0003F800
0003F800
0003F800
0003F800
0007FE00
003FFFC0
00FFFFF0
01FFFFF8
03FFFFFC
07FFFFFE
0FFFFFFC
1FFFFFF8
1FFFFBF0
3FFFF9E0
3FF3F840
7FE3F800
7FE3F800
7FC3F800
FFC3F800
FFC3F800
FF83F800
FF83F800
FF83F800
FF83F800
FFC3F800
7FC3F800
7FE3F800
7FE3F800
3FF3F840
3FFBF9E0
1FFFFFF0
1FFFFFFC
0FFFFFFE
07FFFFFE
03FFFFFC
01FFFFF8
007FFFF0
003FFFC0
0007FE00
0003F800
0003F800
0003F800
0003F800
ENDCHAR
STARTCHAR sterling
ENCODING 163
SWIDTH 654 0
DWIDTH 42 0
BBX 37 46 3 -1
BITMAP
0000FF8000
0007FFF000
000FFFFC00
003FFFFE00
007FFFFF80
007FFFFFC0
00FFFFFFE0
01FFFFFFE0
01FFFFFFC0
03FFC07F80
03FF801F00
03FF000E00
03FF000C00
07FE000000
07FE000000
07FE000000
07FE000000
07FE000000
07FE000000
07FE000000
07FE000000
07FE000000
07FE000000
07FE000000
7FFFFF8000
7FFFFF8000
7FFFFF8000
7FFFFF8000
7FFFFF8000
07FE000000
07FE000000
07FE000000
07FE000000
07FE000000
07FE000000
07FE000000
07FE000000
07FE000000
07FE000000
0FFFFFFFF8
3FFFFFFFF8
7FFFFFFFF8
FFFFFFFFF8
FFFFFFFFF8
FFFFFFFFF8
FFFFFFFFF8
ENDCHAR
STARTCHAR yen
ENCODING 165
SWIDTH 694 0
DWIDTH 44 0
BBX 43 46 1 -1
BITMAP
FFE00000FFE0
FFE00000FFC0
7FF00001FFC0
7FF00001FF80
3FF80003FF80
3FF80003FF00
1FFC0007FE00
0FFC000FFE00
0FFE000FFC00
07FE001FFC00
07FF001FF800
03FF003FF800
03FF803FF000
01FF807FE000
00FFC07FE000
00FFC0FFC000
007FE1FFC000
007FF1FF8000
003FF3FF8000
003FFBFF0000
001FFFFE0000
000FFFFE0000
000FFFFC0000
0007FFFC0000
0007FFF80000
07FFFFFFF800
07FFFFFFF800
07FFFFFFF800
07FFFFFFF800
07FFFFFFF800
0000FFC00000
0000FFC00000
0000FFC00000
0000FFC00000
0000FFC00000
07FFFFFFF800
07FFFFFFF800
07FFFFFFF800
07FFFFFFF800
07FFFFFFF800
0000FFC00000
0000FFC00000
0000FFC00000
0000FFC00000
0000FFC00000
0000FFC00000
ENDCHAR
STARTCHAR dieresis
ENCODING 168
SWIDTH 478 0
DWIDTH 31 0
BBX 23 9 4 37
BITMAP
3E00F0
7F01F8
FF83FC
FF83FC
FF83FE
FF83FC
FF83FC
7F01F8
1E00F0
ENDCHAR
STARTCHAR macron
ENCODING 175
SWIDTH 471 0
DWIDTH 30 0
BBX 22 6 4 37
BITMAP
FFFFFC
FFFFFC
FFFFFC
FFFFFC
FFFFFC
FFFFFC
ENDCHAR
STARTCHAR acute
ENCODING 180
SWIDTH 373 0
DWIDTH 24 0
BBX 16 10 4 37
BITMAP
01C0
03FF
03FE
07FC
0FF8
1FE0
1FC0
3F80
7F00
FE00
ENDCHAR
STARTCHAR cedilla
ENCODING 184
SWIDTH 329 0
DWIDTH 21 0
BBX 13 14 4 -13
BITMAP
07C0
0F80
0F80
0F00
1FE0
1FF0
00F8
00F8
00F8
71F8
7FF8
FFF0
FFE0
1F80
ENDCHAR
STARTCHAR questiondown
ENCODING 191
SWIDTH 505 0
DWIDTH 32 0
BBX 29 45 2 -11
BITMAP
0007C000
000FE000
001FF000
003FF800
003FF800
003FF800
003FF800
003FF800
003FF800
001FF000
000FE000
00038000
00000000
00000000
00000000
00000000
001FF000
001FF000
001FF000
001FF000
001FF000
00FFF000
03FFF000
07FFF000
0FFFF000
1FFFF000
3FFFF000
7FFC0000
7FF00000
FFE00000
FFC00000
FFC00000
FF800000
FFC00000
FFC00380
FFE007C0
FFF81FE0
7FFFFFF0
7FFFFFF8
3FFFFFF0
3FFFFFE0
1FFFFFC0
07FFFF80
03FFFE00
00FFF000
ENDCHAR
STARTCHAR Agrave
ENCODING 192
SWIDTH 751 0
DWIDTH 48 0
BBX 46 60 1 -1
BITMAP
000020000000
000FF0000000
001FF8000000
000FF8000000
0003FC000000
0001FE000000
0000FF000000
00007F000000
00003F800000
00001FC00000
000000000000
000000000000
000000000000
000000000000
00003FF80000
00007FF80000
00007FF80000
0000FFFC0000
0000FFFC0000
0000FFFC0000
0001FFFE0000
0001FFFE0000
0003FFFF0000
0003FFFF0000
0003FFFF0000
0007FFFF8000
0007FFFF8000
000FFFFFC000
000FFFFFC000
000FFCFFC000
001FFCFFE000
001FFCFFE000
001FF87FF000
003FF87FF000
003FF07FF000
007FF03FF800
007FF03FF800
007FE01FF800
00FFE01FFC00
00FFE01FFC00
01FFC00FFE00
01FFC00FFE00
01FF8007FE00
03FF8007FF00
03FF8007FF00
07FFFFFFFF80
07FFFFFFFF80
07FFFFFFFF80
0FFFFFFFFFC0
0FFFFFFFFFC0
0FFFFFFFFFE0
1FFFFFFFFFE0
1FFFFFFFFFE0
3FF800007FF0
3FF800007FF0
3FF000003FF0
7FF000003FF8
7FE000001FF8
FFE000001FFC
FFE000001FFC
ENDCHAR
STARTCHAR Aacute
ENCODING 193
SWIDTH 751 0
DWIDTH 48 0
BBX 46 60 1 -1
BITMAP
000000100000
0000003FC000
0000003FE000
0000007FC000
000000FF8000
000001FE0000
000001FC0000
000003F80000
000007F00000
00000FE00000
000000000000
000000000000
000000000000
000000000000
00003FF80000
00007FF80000
00007FF80000
0000FFFC0000
0000FFFC0000
0000FFFC0000
0001FFFE0000
0001FFFE0000
0003FFFF0000
0003FFFF0000
0003FFFF0000
0007FFFF8000
0007FFFF8000
000FFFFFC000
000FFFFFC000
000FFCFFC000
001FFCFFE000
001FFCFFE000
001FF87FF000
003FF87FF000
003FF07FF000
007FF03FF800
007FF03FF800
007FE01FF800
00FFE01FFC00
00FFE01FFC00
01FFC00FFE00
01FFC00FFE00
01FF8007FE00
03FF8007FF00
03FF8007FF00
07FFFFFFFF80
07FFFFFFFF80
07FFFFFFFF80
0FFFFFFFFFC0
0FFFFFFFFFC0
0FFFFFFFFFE0
1FFFFFFFFFE0
1FFFFFFFFFE0
3FF800007FF0
3FF800007FF0
3FF000003FF0
7FF000003FF8
7FE000001FF8
FFE000001FFC
FFE000001FFC
ENDCHAR
STARTCHAR Acircumflex
ENCODING 194
SWIDTH 751 0
DWIDTH 48 0
BBX 46 59 1 -1
BITMAP
00001FE00000
00003FF00000
00007FF80000
00007FF80000
0000FFFC0000
0001FCFE0000
0001F87F0000
0003F03F0000
0007E01F8000
000000000000
000000000000
000000000000
000000000000
00003FF80000
00007FF80000
00007FF80000
0000FFFC0000
0000FFFC0000
0000FFFC0000
0001FFFE0000
0001FFFE0000
0003FFFF0000
0003FFFF0000
0003FFFF0000
0007FFFF8000
0007FFFF8000
000FFFFFC000
000FFFFFC000
000FFCFFC000
001FFCFFE000
001FFCFFE000
001FF87FF000
003FF87FF000
003FF07FF000
007FF03FF800
007FF03FF800
007FE01FF800
00FFE01FFC00
00FFE01FFC00
01FFC00FFE00
01FFC00FFE00
01FF8007FE00
03FF8007FF00
03FF8007FF00
07FFFFFFFF80
07FFFFFFFF80
07FFFFFFFF80
0FFFFFFFFFC0
0FFFFFFFFFC0
0FFFFFFFFFE0
1FFFFFFFFFE0
1FFFFFFFFFE0
3FF800007FF0
3FF800007FF0
3FF000003FF0
7FF000003FF8
7FE000001FF8
FFE000001FFC
FFE000001FFC
ENDCHAR
STARTCHAR Atilde
ENCODING 195
SWIDTH 751 0
DWIDTH 48 0
BBX 46 59 1 -1
BITMAP
000070000000
0001FE03C000
0003FF07C000
0007FFC7C000
0007FFFFC000
000FFFFF8000
000FCFFF8000
000F83FF0000
000F01FE0000
000000780000
000000000000
000000000000
000000000000
00003FF80000
00007FF80000
00007FF80000
0000FFFC0000
0000FFFC0000
0000FFFC0000
0001FFFE0000
0001FFFE0000
0003FFFF0000
0003FFFF0000
0003FFFF0000
0007FFFF8000
0007FFFF8000
000FFFFFC000
000FFFFFC000
000FFCFFC000
001FFCFFE000
001FFCFFE000
001FF87FF000
003FF87FF000
003FF07FF000
007FF03FF800
007FF03FF800
007FE01FF800
00FFE01FFC00
00FFE01FFC00
01FFC00FFE00
01FFC00FFE00
01FF8007FE00
03FF8007FF00
03FF8007FF00
07FFFFFFFF80
07FFFFFFFF80
07FFFFFFFF80
0FFFFFFFFFC0
0FFFFFFFFFC0
0FFFFFFFFFE0
1FFFFFFFFFE0
1FFFFFFFFFE0
3FF800007FF0
3FF800007FF0
3FF000003FF0
7FF000003FF8
7FE000001FF8
FFE000001FFC
FFE000001FFC
ENDCHAR
STARTCHAR Adieresis
ENCODING 196
SWIDTH 751 0
DWIDTH 48 0
BBX 46 59 1 -1
BITMAP
0003C00F0000
0007F03F8000
000FF03FC000
000FF87FC000
000FF87FC000
000FF87FC000
000FF03FC000
0007F01F8000
0003C00F0000
000000000000
000000000000
000000000000
000000000000
00003FF80000
00007FF80000
00007FF80000
0000FFFC0000
0000FFFC0000
0000FFFC0000
0001FFFE0000
0001FFFE0000
0003FFFF0000
0003FFFF0000
0003FFFF0000
0007FFFF8000
0007FFFF8000
000FFFFFC000
000FFFFFC000
000FFCFFC000
001FFCFFE000
001FFCFFE000
001FF87FF000
003FF87FF000
003FF07FF000
007FF03FF800
007FF03FF800
007FE01FF800
00FFE01FFC00
00FFE01FFC00
01FFC00FFE00
01FFC00FFE00
01FF8007FE00
03FF8007FF00
03FF8007FF00
07FFFFFFFF80
07FFFFFFFF80
07FFFFFFFF80
0FFFFFFFFFC0
0FFFFFFFFFC0
0FFFFFFFFFE0
1FFFFFFFFFE0
1FFFFFFFFFE0
3FF800007FF0
3FF800007FF0
3FF000003FF0
7FF000003FF8
7FE000001FF8
FFE000001FFC
FFE000001FFC
ENDCHAR
STARTCHAR Aring
ENCODING 197
SWIDTH 751 0
DWIDTH 48 0
BBX 46 65 1 -1
BITMAP
000007800000
00001FE00000
00003FF00000
00007FF80000
0000F87C0000
0000F03C0000
0000F03C0000
0000F03C0000
0000F03C0000
0000F03C0000
0000F87C0000
00007FF80000
00003FF00000
00001FE00000
000007800000
000000000000
000000000000
000000000000
000000000000
00003FF80000
00007FF80000
00007FF80000
0000FFFC0000
0000FFFC0000
0000FFFC0000
0001FFFE0000
0001FFFE0000
0003FFFF0000
0003FFFF0000
0003FFFF0000
0007FFFF8000
0007FFFF8000
000FFFFFC000
000FFFFFC000
000FFCFFC000
001FFCFFE000
001FFCFFE000
001FF87FF000
003FF87FF000
003FF07FF000
007FF03FF800
007FF03FF800
007FE01FF800
00FFE01FFC00
00FFE01FFC00
01FFC00FFE00
01FFC00FFE00
01FF8007FE00
03FF8007FF00
03FF8007FF00
07FFFFFFFF80
07FFFFFFFF80
07FFFFFFFF80
0FFFFFFFFFC0
0FFFFFFFFFC0
0FFFFFFFFFE0
1FFFFFFFFFE0
1FFFFFFFFFE0
3FF800007FF0
3FF800007FF0
3FF000003FF0
7FF000003FF8
7FE000001FF8
FFE000001FFC
FFE000001FFC
ENDCHAR
STARTCHAR AE
ENCODING 198
SWIDTH 1077 0
DWIDTH 69 0
BBX 65 46 1 -1
BITMAP
0000007FFFFFFFFF80
000000FFFFFFFFFF80
000000FFFFFFFFFF80
000001FFFFFFFFFF80
000001FFFFFFFFFF80
000003FFFFFFFFFF80
000003FFFFFFFFFF80
000007FFFFFFFFFF80
000007FFFFFFFFFF80
00000FFFFF80000000
00001FFDFF80000000
00001FFDFF80000000
00003FF9FF80000000
00003FF9FF80000000
00007FF1FF80000000
00007FF1FF80000000
0000FFE1FF80000000
0000FFE1FF80000000
0001FFC1FFFFFFFE00
0003FF81FFFFFFFE00
0003FF81FFFFFFFE00
0007FF01FFFFFFFE00
0007FF01FFFFFFFE00
000FFE01FFFFFFFE00
000FFE01FFFFFFFE00
001FFC01FFFFFFFE00
001FFC01FFFFFFFE00
003FF801FF80000000
007FF801FF80000000
007FF001FF80000000
00FFF001FF80000000
00FFFFFFFF80000000
01FFFFFFFF80000000
01FFFFFFFF80000000
03FFFFFFFF80000000
03FFFFFFFF80000000
07FFFFFFFF80000000
07FFFFFFFFFFFFFF80
0FFE0001FFFFFFFF80
1FFC0001FFFFFFFF80
1FFC0001FFFFFFFF80
3FF80001FFFFFFFF80
3FF80001FFFFFFFF80
7FF00001FFFFFFFF80
7FF00001FFFFFFFF80
FFE00001FFFFFFFF80
ENDCHAR
STARTCHAR Ccedilla
ENCODING 199
SWIDTH 696 0
DWIDTH 45 0
BBX 40 58 3 -13
BITMAP
00003FF000
0001FFFE00
000FFFFFC0
001FFFFFE0
007FFFFFF8
00FFFFFFFC
01FFFFFFFE
03FFFFFFFF
07FFFFFFFE
0FFFC00FFC
1FFF0003F8
1FFE0001F0
3FFC0000C0
3FF8000000
7FF0000000
7FE0000000
7FE0000000
FFC0000000
FFC0000000
FFC0000000
FFC0000000
FF80000000
FF80000000
FF80000000
FF80000000
FFC0000000
FFC0000000
FFC0000000
FFC0000000
7FE0000000
7FE0000000
7FF0000000
3FF8000000
3FFC0000C0
1FFE0001E0
1FFF0003F8
0FFFC00FFC
07FFFFFFFE
03FFFFFFFF
01FFFFFFFE
00FFFFFFFC
007FFFFFF8
001FFFFFF0
000FFFFFC0
0003FFFF00
00007FF800
00000F8000
00001F0000
00001FC000
00001FF000
000001F000
000000F800
000000F800
000061F800
0000FFF000
0000FFF000
0000FFE000
00001F8000
ENDCHAR
STARTCHAR Egrave
ENCODING 200
SWIDTH 641 0
DWIDTH 41 0
BBX 34 60 4 -1
BITMAP
0001000000
007F800000
00FFC00000
007FC00000
003FE00000
000FF00000
0007F80000
0003F80000
0001FC0000
0000FE0000
0000000000
0000000000
0000000000
0000000000
FFFFFFFFC0
FFFFFFFFC0
FFFFFFFFC0
FFFFFFFFC0
FFFFFFFFC0
FFFFFFFFC0
FFFFFFFFC0
FFFFFFFFC0
FFFFFFFFC0
FFC0000000
FFC0000000
FFC0000000
FFC0000000
FFC0000000
FFC0000000
FFC0000000
FFC0000000
FFC0000000
FFFFFFFF00
FFFFFFFF00
FFFFFFFF00
FFFFFFFF00
FFFFFFFF00
FFFFFFFF00
FFFFFFFF00
FFFFFFFF00
FFFFFFFF00
FFC0000000
FFC0000000
FFC0000000
FFC0000000
FFC0000000
FFC0000000
FFC0000000
FFC0000000
FFC0000000
FFC0000000
FFFFFFFFC0
FFFFFFFFC0
FFFFFFFFC0
FFFFFFFFC0
FFFFFFFFC0
FFFFFFFFC0
FFFFFFFFC0
FFFFFFFFC0
FFFFFFFFC0
ENDCHAR
STARTCHAR Eacute
ENCODING 201
SWIDTH 641 0
DWIDTH 41 0
BBX 34 60 4 -1
BITMAP
0000200000
00007F8000
00007FC000
0000FF8000
0001FF0000
0003FC0000
0003F80000
0007F00000
000FE00000
001FC00000
0000000000
0000000000
0000000000
0000000000
FFFFFFFFC0
FFFFFFFFC0
FFFFFFFFC0
FFFFFFFFC0
FFFFFFFFC0
FFFFFFFFC0
FFFFFFFFC0
FFFFFFFFC0
FFFFFFFFC0
FFC0000000
FFC0000000
FFC0000000
FFC0000000
FFC0000000
FFC0000000
FFC0000000
FFC0000000
FFC0000000
FFFFFFFF00
FFFFFFFF00
FFFFFFFF00
FFFFFFFF00
FFFFFFFF00
FFFFFFFF00
FFFFFFFF00
FFFFFFFF00
FFFFFFFF00
FFC0000000
FFC0000000
FFC0000000
FFC0000000
FFC0000000
FFC0000000
FFC0000000
FFC0000000
FFC0000000
FFC0000000
FFFFFFFFC0
FFFFFFFFC0
FFFFFFFFC0
FFFFFFFFC0
FFFFFFFFC0
FFFFFFFFC0
FFFFFFFFC0
FFFFFFFFC0
FFFFFFFFC0
ENDCHAR
STARTCHAR Ecircumflex
ENCODING 202
SWIDTH 641 0
DWIDTH 41 0
BBX 34 59 4 -1
BITMAP
0007FC0000
000FFC0000
000FFE0000
001FFF0000
003FFF0000
003F3F8000
007E1FC000
00FC0FE000
01F807E000
0000000000
0000000000
0000000000
0000000000
FFFFFFFFC0
FFFFFFFFC0
FFFFFFFFC0
FFFFFFFFC0
FFFFFFFFC0
FFFFFFFFC0
FFFFFFFFC0
FFFFFFFFC0
FFFFFFFFC0
FFC0000000
FFC0000000
FFC0000000
FFC0000000
FFC0000000
FFC0000000
FFC0000000
FFC0000000
FFC0000000
FFFFFFFF00
FFFFFFFF00
FFFFFFFF00
FFFFFFFF00
FFFFFFFF00
FFFFFFFF00
FFFFFFFF00
FFFFFFFF00
FFFFFFFF00
FFC0000000
FFC0000000
FFC0000000
FFC0000000
FFC0000000
FFC0000000
FFC0000000
FFC0000000
FFC0000000
FFC0000000
FFFFFFFFC0
FFFFFFFFC0
FFFFFFFFC0
FFFFFFFFC0
FFFFFFFFC0
FFFFFFFFC0
FFFFFFFFC0
FFFFFFFFC0
FFFFFFFFC0
ENDCHAR
STARTCHAR Edieresis
ENCODING 203
SWIDTH 641 0
DWIDTH 41 0
BBX 34 59 4 -1
BITMAP
00F803C000
01FC07E000
03FE0FF000
03FE0FF000
03FE0FF800
03FE0FF000
01FE0FF000
01FC07E000
007803C000
0000000000
0000000000
0000000000
0000000000
FFFFFFFFC0
FFFFFFFFC0
FFFFFFFFC0
FFFFFFFFC0
FFFFFFFFC0
FFFFFFFFC0
FFFFFFFFC0
FFFFFFFFC0
FFFFFFFFC0
FFC0000000
FFC0000000
FFC0000000
FFC0000000
FFC0000000
FFC0000000
FFC0000000
FFC0000000
FFC0000000
FFFFFFFF00
FFFFFFFF00
FFFFFFFF00
FFFFFFFF00
FFFFFFFF00
FFFFFFFF00
FFFFFFFF00
FFFFFFFF00
FFFFFFFF00
FFC0000000
FFC0000000
FFC0000000
FFC0000000
FFC0000000
FFC0000000
FFC0000000
FFC0000000
FFC0000000
FFC0000000
FFFFFFFFC0
FFFFFFFFC0
FFFFFFFFC0
FFFFFFFFC0
FFFFFFFFC0
FFFFFFFFC0
FFFFFFFFC0
FFFFFFFFC0
FFFFFFFFC0
ENDCHAR
STARTCHAR Igrave
ENCODING 204
SWIDTH 287 0
DWIDTH 18 0
BBX 17 60 -3 -1
BITMAP
010000
7F8000
FFC000
7FC000
1FE000
0FF000
07F800
03F800
01FC00
00FE00
000000
000000
000000
000000
01FF80
01FF80
01FF80
01FF80
01FF80
01FF80
01FF80
01FF80
01FF80
01FF80
01FF80
01FF80
01FF80
01FF80
01FF80
01FF80
01FF80
01FF80
01FF80
01FF80
01FF80
01FF80
01FF80
01FF80
01FF80
01FF80
01FF80
01FF80
01FF80
01FF80
01FF80
01FF80
01FF80
01FF80
01FF80
01FF80
01FF80
01FF80
01FF80
01FF80
01FF80
01FF80
01FF80
01FF80
01FF80
01FF80
ENDCHAR
STARTCHAR Iacute
ENCODING 205
SWIDTH 287 0
DWIDTH 18 0
BBX 17 60 4 -1
BITMAP
004000
00FF00
00FF80
01FF00
03FE00
07FC00
07F800
0FE000
1FC000
1F8000
200000
000000
000000
000000
FFC000
FFC000
FFC000
FFC000
FFC000
FFC000
FFC000
FFC000
FFC000
FFC000
FFC000
FFC000
FFC000
FFC000
FFC000
FFC000
FFC000
FFC000
FFC000
FFC000
FFC000
FFC000
FFC000
FFC000
FFC000
FFC000
FFC000
FFC000
FFC000
FFC000
FFC000
FFC000
FFC000
FFC000
FFC000
FFC000
FFC000
FFC000
FFC000
FFC000
FFC000
FFC000
FFC000
FFC000
FFC000
FFC000
ENDCHAR
STARTCHAR Icircumflex
ENCODING 206
SWIDTH 287 0
DWIDTH 18 0
BBX 20 59 -1 -1
BITMAP
03FC00
07FE00
07FF00
0FFF80
1FFF80
3F9FC0
3F0FE0
7E07F0
FC03F0
000000
000000
000000
000000
07FE00
07FE00
07FE00
07FE00
07FE00
07FE00
07FE00
07FE00
07FE00
07FE00
07FE00
07FE00
07FE00
07FE00
07FE00
07FE00
07FE00
07FE00
07FE00
07FE00
07FE00
07FE00
07FE00
07FE00
07FE00
07FE00
07FE00
07FE00
07FE00
07FE00
07FE00
07FE00
07FE00
07FE00
07FE00
07FE00
07FE00
07FE00
07FE00
07FE00
07FE00
07FE00
07FE00
07FE00
07FE00
07FE00
ENDCHAR
STARTCHAR Idieresis
ENCODING 207
SWIDTH 287 0
DWIDTH 18 0
BBX 22 59 -2 -1
BITMAP
3E00F0
7F01F8
FF03FC
FF83FC
FF83FC
FF83FC
FF03FC
7F01F8
3C00F0
000000
000000
000000
000000
03FF00
03FF00
03FF00
03FF00
03FF00
03FF00
03FF00
03FF00
03FF00
03FF00
03FF00
03FF00
03FF00
03FF00
03FF00
03FF00
03FF00
03FF00
03FF00
03FF00
03FF00
03FF00
03FF00
03FF00
03FF00
03FF00
03FF00
03FF00
03FF00
03FF00
03FF00
03FF00
03FF00
03FF00
03FF00
03FF00
03FF00
03FF00
03FF00
03FF00
03FF00
03FF00
03FF00
03FF00
03FF00
03FF00
ENDCHAR
STARTCHAR Eth
ENCODING 208
SWIDTH 802 0
DWIDTH 51 0
BBX 45 46 3 -1
BITMAP
0FFFFFC00000
0FFFFFFC0000
0FFFFFFF0000
0FFFFFFFC000
0FFFFFFFF000
0FFFFFFFF800
0FFFFFFFFE00
0FFFFFFFFF00
0FFFFFFFFF00
0FFC001FFF80
0FFC0007FFC0
0FFC0003FFE0
0FFC0001FFE0
0FFC0000FFF0
0FFC00007FF0
0FFC00003FF0
0FFC00003FF8
0FFC00001FF8
FFFFFF001FF8
FFFFFF001FF8
FFFFFF000FF8
FFFFFF000FF8
FFFFFF000FF8
FFFFFF000FF8
FFFFFF000FF8
FFFFFF001FF8
FFFFFF001FF8
0FFC00001FF8
0FFC00001FF8
0FFC00003FF8
0FFC00003FF0
0FFC00007FF0
0FFC0000FFF0
0FFC0001FFE0
0FFC0003FFE0
0FFC0007FFC0
0FFC001FFF80
0FFFFFFFFF00
0FFFFFFFFF00
0FFFFFFFFE00
0FFFFFFFF800
0FFFFFFFF000
0FFFFFFFC000
0FFFFFFF0000
0FFFFFFC0000
0FFFFFC00000
ENDCHAR
STARTCHAR Ntilde
ENCODING 209
SWIDTH 774 0
DWIDTH 50 0
BBX 40 59 5 -1
BITMAP
0007800000
001FE03E00
003FF83E00
003FFE7E00
007FFFFE00
007FFFFC00
007C7FFC00
00FC1FF800
00F807F000
000000C000
0000000000
0000000000
0000000000
FFC00003FF
FFC00003FF
FFE00003FF
FFF00003FF
FFF00003FF
FFF80003FF
FFFC0003FF
FFFC0003FF
FFFE0003FF
FFFF0003FF
FFFF8003FF
FFFF8003FF
FFFFC003FF
FFFFE003FF
FFFFE003FF
FFFFF003FF
FFFFF803FF
FFBFFC03FF
FF9FFC03FF
FF9FFE03FF
FF8FFF03FF
FF87FF03FF
FF83FF83FF
FF83FFC3FF
FF81FFE3FF
FF80FFE3FF
FF80FFF3FF
FF807FFBFF
FF803FFBFF
FF801FFFFF
FF801FFFFF
FF800FFFFF
FF8007FFFF
FF8007FFFF
FF8003FFFF
FF8001FFFF
FF8000FFFF
FF8000FFFF
FF80007FFF
FF80003FFF
FF80003FFF
FF80001FFF
FF80000FFF
FF800007FF
FF800007FF
FF800003FF
ENDCHAR
STARTCHAR Ograve
ENCODING 210
SWIDTH 812 0
DWIDTH 52 0
BBX 46 59 3 -1
BITMAP
0000E0000000
001FF0000000
001FF8000000
0007F8000000
0003FC000000
0001FE000000
0000FF000000
00007F000000
00003F800000
00001FC00000
000000000000
000000000000
000000000000
00003FF00000
0001FFFE0000
000FFFFF8000
001FFFFFE000
007FFFFFF800
00FFFFFFFC00
01FFFFFFFE00
03FFFFFFFF00
07FFFFFFFF80
0FFFC00FFFC0
1FFF0003FFC0
1FFE0001FFE0
3FFC0000FFF0
3FF800007FF0
7FF000003FF8
7FE000001FF8
7FE000001FF8
FFC000000FFC
FFC000000FFC
FFC000000FFC
FFC000000FFC
FF80000007FC
FF80000007FC
FF80000007FC
FF80000007FC
FFC000000FFC
FFC000000FFC
FFC000000FFC
FFC000000FFC
7FE000001FF8
7FE000001FF8
7FF000003FF8
3FF800007FF0
3FFC0000FFF0
1FFE0001FFE0
1FFF0003FFC0
0FFFC00FFFC0
07FFFFFFFF80
03FFFFFFFF00
01FFFFFFFE00
00FFFFFFFC00
007FFFFFF800
001FFFFFE000
0007FFFF8000
0001FFFE0000
00003FF00000
ENDCHAR
STARTCHAR Oacute
ENCODING 211
SWIDTH 812 0
DWIDTH 52 0
BBX 46 59 3 -1
BITMAP
000000180000
0000003FE000
0000007FC000
0000007F8000
000000FF0000
000001FE0000
000003FC0000
000003F80000
000007F00000
00000FE00000
000000000000
000000000000
000000000000
00003FF00000
0001FFFE0000
000FFFFF8000
001FFFFFE000
007FFFFFF800
00FFFFFFFC00
01FFFFFFFE00
03FFFFFFFF00
07FFFFFFFF80
0FFFC00FFFC0
1FFF0003FFC0
1FFE0001FFE0
3FFC0000FFF0
3FF800007FF0
7FF000003FF8
7FE000001FF8
7FE000001FF8
FFC000000FFC
FFC000000FFC
FFC000000FFC
FFC000000FFC
FF80000007FC
FF80000007FC
FF80000007FC
FF80000007FC
FFC000000FFC
FFC000000FFC
FFC000000FFC
FFC000000FFC
7FE000001FF8
7FE000001FF8
7FF000003FF8
3FF800007FF0
3FFC0000FFF0
1FFE0001FFE0
1FFF0003FFC0
0FFFC00FFFC0
07FFFFFFFF80
03FFFFFFFF00
01FFFFFFFE00
00FFFFFFFC00
007FFFFFF800
001FFFFFE000
0007FFFF8000
0001FFFE0000
00003FF00000
ENDCHAR
STARTCHAR Ocircumflex
ENCODING 212
SWIDTH 812 0
DWIDTH 52 0
BBX 46 58 3 -1
BITMAP
00003FF00000
00003FF00000
00007FF80000
0000FFFC0000
0000FFFC0000
0001FCFE0000
0003F87F0000
0007F03F8000
0007E01F8000
000000000000
000000000000
000000000000
00003FF00000
0001FFFE0000
000FFFFF8000
001FFFFFE000
007FFFFFF800
00FFFFFFFC00
01FFFFFFFE00
03FFFFFFFF00
07FFFFFFFF80
0FFFC00FFFC0
1FFF0003FFC0
1FFE0001FFE0
3FFC0000FFF0
3FF800007FF0
7FF000003FF8
7FE000001FF8
7FE000001FF8
FFC000000FFC
FFC000000FFC
FFC000000FFC
FFC000000FFC
FF80000007FC
FF80000007FC
FF80000007FC
FF80000007FC
FFC000000FFC
FFC000000FFC
FFC000000FFC
FFC000000FFC
7FE000001FF8
7FE000001FF8
7FF000003FF8
3FF800007FF0
3FFC0000FFF0
1FFE0001FFE0
1FFF0003FFC0
0FFFC00FFFC0
07FFFFFFFF80
03FFFFFFFF00
01FFFFFFFE00
00FFFFFFFC00
007FFFFFF800
001FFFFFE000
0007FFFF8000
0001FFFE0000
00003FF00000
ENDCHAR
STARTCHAR Otilde
ENCODING 213
SWIDTH 812 0
DWIDTH 52 0
BBX 46 58 3 -1
BITMAP
00007003C000
0001FE07C000
0003FF87C000
0007FFFFC000
000FFFFF8000
000FFFFF8000
000F8FFF0000
000F83FF0000
000F00FC0000
000000000000
000000000000
000000000000
00003FF00000
0001FFFE0000
000FFFFF8000
001FFFFFE000
007FFFFFF800
00FFFFFFFC00
01FFFFFFFE00
03FFFFFFFF00
07FFFFFFFF80
0FFFC00FFFC0
1FFF0003FFC0
1FFE0001FFE0
3FFC0000FFF0
3FF800007FF0
7FF000003FF8
7FE000001FF8
7FE000001FF8
FFC000000FFC
FFC000000FFC
FFC000000FFC
FFC000000FFC
FF80000007FC
FF80000007FC
FF80000007FC
FF80000007FC
FFC000000FFC
FFC000000FFC
FFC000000FFC
FFC000000FFC
7FE000001FF8
7FE000001FF8
7FF000003FF8
3FF800007FF0
3FFC0000FFF0
1FFE0001FFE0
1FFF0003FFC0
0FFFC00FFFC0
07FFFFFFFF80
03FFFFFFFF00
01FFFFFFFE00
00FFFFFFFC00
007FFFFFF800
001FFFFFE000
0007FFFF8000
0001FFFE0000
00003FF00000
ENDCHAR
STARTCHAR Odieresis
ENCODING 214
SWIDTH 812 0
DWIDTH 52 0
BBX 46 58 3 -1
BITMAP
0003C00F0000
0007F03F8000
000FF03FC000
000FF87FC000
000FF87FC000
000FF87FC000
000FF03FC000
0007F03F8000
0003C00F0000
000000000000
000000000000
000000000000
00003FF00000
0001FFFE0000
000FFFFF8000
001FFFFFE000
007FFFFFF800
00FFFFFFFC00
01FFFFFFFE00
03FFFFFFFF00
07FFFFFFFF80
0FFFC00FFFC0
1FFF0003FFC0
1FFE0001FFE0
3FFC0000FFF0
3FF800007FF0
7FF000003FF8
7FE000001FF8
7FE000001FF8
FFC000000FFC
FFC000000FFC
FFC000000FFC
FFC000000FFC
FF80000007FC
FF80000007FC
FF80000007FC
FF80000007FC
FFC000000FFC
FFC000000FFC
FFC000000FFC
FFC000000FFC
7FE000001FF8
7FE000001FF8
7FF000003FF8
3FF800007FF0
3FFC0000FFF0
1FFE0001FFE0
1FFF0003FFC0
0FFFC00FFFC0
07FFFFFFFF80
03FFFFFFFF00
01FFFFFFFE00
00FFFFFFFC00
007FFFFFF800
001FFFFFE000
0007FFFF8000
0001FFFE0000
00003FF00000
ENDCHAR
STARTCHAR multiply
ENCODING 215
SWIDTH 561 0
DWIDTH 36 0
BBX 27 27 4 8
BITMAP
04000200
0E000700
1F000F80
3F801FC0
7FC03FC0
FFE07FE0
7FF0FFE0
3FF9FFC0
1FFFFF80
0FFFFF00
07FFFE00
03FFFC00
01FFF800
00FFF000
00FFF000
01FFF800
03FFFC00
07FFFE00
0FFFFF00
1FFFFF80
3FF9FFC0
7FF0FFE0
7FE07FE0
3FC03FC0
1F801F80
0F000F00
06000600
ENDCHAR
STARTCHAR Oslash
ENCODING 216
SWIDTH 812 0
DWIDTH 52 0
BBX 46 46 3 -1
BITMAP
00003FF007F8
0001FFFE0FF8
000FFFFF8FF0
001FFFFFFFE0
007FFFFFFFC0
00FFFFFFFF80
01FFFFFFFF00
03FFFFFFFF00
07FFFFFFFF80
0FFFC00FFFC0
1FFF0007FFC0
1FFE000FFFE0
3FFC000FFFF0
3FF8001FFFF0
7FF0003FFFF8
7FE0007F9FF8
7FE000FF9FF8
FFC001FF0FFC
FFC001FE0FFC
FFC003FC0FFC
FFC007F80FFC
FF800FF007FC
FF801FF007FC
FF803FE007FC
FF803FC007FC
FFC07F800FFC
FFC0FF000FFC
FFC1FE000FFC
FFC3FE000FFC
FFE7FC001FF8
7FE7F8001FF8
7FFFF0003FF8
7FFFE0007FF0
3FFFC000FFF0
3FFFC001FFE0
1FFF8003FFC0
0FFFC00FFFC0
0FFFFFFFFF80
07FFFFFFFF00
03FFFFFFFE00
07FFFFFFFC00
0FFFFFFFF800
1FFFFFFFE000
3FC7FFFF8000
7FC1FFFE0000
7F803FF00000
ENDCHAR
STARTCHAR Ugrave
ENCODING 217
SWIDTH 755 0
DWIDTH 48 0
BBX 40 60 4 -1
BITMAP
0000200000
000FF00000
001FF00000
000FF80000
0007FC0000
0003FE0000
0000FE0000
00007F0000
00003F8000
00001FC000
0000000000
0000000000
0000000000
0000000000
FFC00001FF
FFC00001FF
FFC00001FF
FFC00001FF
FFC00001FF
FFC00001FF
FFC00001FF
FFC00001FF
FFC00001FF
FFC00001FF
FFC00001FF
FFC00001FF
FFC00001FF
FFC00001FF
FFC00001FF
FFC00001FF
FFC00001FF
FFC00001FF
FFC00001FF
FFC00001FF
FFC00001FF
FFC00001FF
FFC00001FF
FFC00001FF
FFC00001FF
FFC00001FF
FFC00001FF
FFC00003FF
FFC00003FF
7FC00003FF
7FE00003FF
7FE00007FE
7FE00007FE
3FF0000FFE
3FF8001FFC
3FFC003FFC
1FFF00FFF8
1FFFFFFFF8
0FFFFFFFF0
07FFFFFFE0
03FFFFFFC0
01FFFFFF80
00FFFFFF00
003FFFFC00
000FFFF000
0001FF8000
ENDCHAR
STARTCHAR Uacute
ENCODING 218
SWIDTH 755 0
DWIDTH 48 0
BBX 40 60 4 -1
BITMAP
0000040000
00000FF000
00001FF800
00001FF000
00003FC000
00007F8000
0000FF0000
0000FE0000
0001FC0000
0003F80000
0000000000
0000000000
0000000000
0000000000
FFC00001FF
FFC00001FF
FFC00001FF
FFC00001FF
FFC00001FF
FFC00001FF
FFC00001FF
FFC00001FF
FFC00001FF
FFC00001FF
FFC00001FF
FFC00001FF
FFC00001FF
FFC00001FF
FFC00001FF
FFC00001FF
FFC00001FF
FFC00001FF
FFC00001FF
FFC00001FF
FFC00001FF
FFC00001FF
FFC00001FF
FFC00001FF
FFC00001FF
FFC00001FF
FFC00001FF
FFC00003FF
FFC00003FF
7FC00003FF
7FE00003FF
7FE00007FE
7FE00007FE
3FF0000FFE
3FF8001FFC
3FFC003FFC
1FFF00FFF8
1FFFFFFFF8
0FFFFFFFF0
07FFFFFFE0
03FFFFFFC0
01FFFFFF80
00FFFFFF00
003FFFFC00
000FFFF000
0001FF8000
ENDCHAR
STARTCHAR Ucircumflex
ENCODING 219
SWIDTH 755 0
DWIDTH 48 0
BBX 40 59 4 -1
BITMAP
0000FF0000
0001FF8000
0001FFC000
0003FFE000
0007FFE000
000FE7F000
000FC3F800
001F81FC00
003F00FC00
0000000000
0000000000
0000000000
0000000000
FFC00001FF
FFC00001FF
FFC00001FF
FFC00001FF
FFC00001FF
FFC00001FF
FFC00001FF
FFC00001FF
FFC00001FF
FFC00001FF
FFC00001FF
FFC00001FF
FFC00001FF
FFC00001FF
FFC00001FF
FFC00001FF
FFC00001FF
FFC00001FF
FFC00001FF
FFC00001FF
FFC00001FF
FFC00001FF
FFC00001FF
FFC00001FF
FFC00001FF
FFC00001FF
FFC00001FF
FFC00003FF
FFC00003FF
7FC00003FF
7FE00003FF
7FE00007FE
7FE00007FE
3FF0000FFE
3FF8001FFC
3FFC003FFC
1FFF00FFF8
1FFFFFFFF8
0FFFFFFFF0
07FFFFFFE0
03FFFFFFC0
01FFFFFF80
00FFFFFF00
003FFFFC00
000FFFF000
0001FF8000
ENDCHAR
STARTCHAR Udieresis
ENCODING 220
SWIDTH 755 0
DWIDTH 48 0
BBX 40 59 4 -1
BITMAP
001F007800
003F80FC00
007F81FE00
007FC1FE00
007FC3FE00
007FC1FE00
007F81FE00
003F80FC00
001E007800
0000000000
0000000000
0000000000
0000000000
FFC00001FF
FFC00001FF
FFC00001FF
FFC00001FF
FFC00001FF
FFC00001FF
FFC00001FF
FFC00001FF
FFC00001FF
FFC00001FF
FFC00001FF
FFC00001FF
FFC00001FF
FFC00001FF
FFC00001FF
FFC00001FF
FFC00001FF
FFC00001FF
FFC00001FF
FFC00001FF
FFC00001FF
FFC00001FF
FFC00001FF
FFC00001FF
FFC00001FF
FFC00001FF
FFC00001FF
FFC00003FF
FFC00003FF
7FC00003FF
7FE00003FF
7FE00007FE
7FE00007FE
3FF0000FFE
3FF8001FFC
3FFC003FFC
1FFF00FFF8
1FFFFFFFF8
0FFFFFFFF0
07FFFFFFE0
03FFFFFFC0
01FFFFFF80
00FFFFFF00
003FFFFC00
000FFFF000
0001FF8000
ENDCHAR
STARTCHAR Yacute
ENCODING 221
SWIDTH 694 0
DWIDTH 44 0
BBX 43 60 1 -1
BITMAP
000002000000
000007F80000
00000FFC0000
00000FF80000
00001FE00000
00003FC00000
00007F800000
00007F000000
0000FE000000
0001FC000000
000000000000
000000000000
000000000000
000000000000
FFE00000FFE0
FFE00000FFC0
7FF00001FFC0
7FF00001FF80
3FF80003FF80
3FF80007FF00
1FFC0007FE00
0FFC000FFE00
0FFE000FFC00
07FE001FFC00
07FF001FF800
03FF803FF000
01FF803FF000
01FFC07FE000
00FFC0FFE000
00FFE0FFC000
007FE1FFC000
007FF1FF8000
003FF3FF0000
001FFBFF0000
001FFFFE0000
000FFFFE0000
000FFFFC0000
0007FFF80000
0003FFF80000
0003FFF00000
0001FFF00000
0001FFE00000
0000FFE00000
0000FFC00000
0000FFC00000
0000FFC00000
0000FFC00000
0000FFC00000
0000FFC00000
0000FFC00000
0000FFC00000
0000FFC00000
0000FFC00000
0000FFC00000
0000FFC00000
0000FFC00000
0000FFC00000
0000FFC00000
0000FFC00000
0000FFC00000
ENDCHAR
STARTCHAR Thorn
ENCODING 222
SWIDTH 660 0
DWIDTH 42 0
BBX 37 46 4 -1
BITMAP
FFC0000000
FFC0000000
FFC0000000
FFC0000000
FFC0000000
FFC0000000
FFC0000000
FFFFFC0000
FFFFFFE000
FFFFFFF800
FFFFFFFE00
FFFFFFFF00
FFFFFFFF80
FFFFFFFFC0
FFFFFFFFC0
FFFFFFFFE0
FFC003FFF0
FFC000FFF0
FFC0007FF0
FFC0003FF0
FFC0001FF8
FFC0001FF8
FFC0001FF8
FFC0001FF8
FFC0001FF8
FFC0003FF0
FFC0003FF0
FFC0007FF0
FFC001FFF0
FFFFFFFFE0
FFFFFFFFE0
FFFFFFFFC0
FFFFFFFF80
FFFFFFFF00
FFFFFFFE00
FFFFFFFC00
FFFFFFF000
FFFFFF8000
FFC0000000
FFC0000000
FFC0000000
FFC0000000
FFC0000000
FFC0000000
FFC0000000
FFC0000000
ENDCHAR
STARTCHAR germandbls
ENCODING 223
SWIDTH 613 0
DWIDTH 39 0
BBX 33 46 4 -1
BITMAP
001FF00000
00FFFE0000
03FFFF8000
0FFFFFE000
1FFFFFF000
3FFFFFF800
3FFFFFF800
7FFFFFFC00
7FFFFFFC00
FFFEFFFE00
FFF01FFE00
FFE00FFE00
FFC007FE00
FFC007FE00
FFC003FE00
FFC007FE00
FFC007FE00
FFC00FFC00
FFC01FFC00
FFC0FFF800
FFC3FFF000
FFC3FFE000
FFC3FF8000
FFC3FFE000
FFC3FFF000
FFC3FFF800
FFC3FFFC00
FFC00FFE00
FFC003FF00
FFC001FF00
FFC001FF80
FFC001FF80
FFC001FF80
FFC001FF80
FFC001FF80
FFC003FF80
FFC007FF80
FFC00FFF80
FFC3FFFF00
FFC3FFFF00
FFC3FFFE00
FFC3FFFC00
FFC3FFF800
FFC3FFF000
FFC3FFC000
FFC3FE0000
ENDCHAR
STARTCHAR agrave
ENCODING 224
SWIDTH 581 0
DWIDTH 37 0
BBX 31 48 2 -1
BITMAP
00070000
00FF8000
00FFC000
003FC000
001FE000
000FF000
0007F800
0003F800
0001FC00
0000FE00
00000000
00000000
00000000
000FF800
00FFFF00
07FFFFC0
1FFFFFE0
1FFFFFF0
0FFFFFF8
0FFFFFFC
07FFFFFC
07801FFC
020007FE
000007FE
000003FE
000003FE
003FC3FE
01FFFFFE
07FFFFFE
0FFFFFFE
1FFFFFFE
3FFFFFFE
7FF81FFE
7FE003FE
FFC003FE
FFC003FE
FF8003FE
FF8003FE
FF8003FE
FFC007FE
7FC00FFE
7FE01FFE
3FFFFFFE
3FFFFFFE
1FFFFFFE
0FFFFBFE
03FFE3FE
00FF03FE
ENDCHAR
STARTCHAR aacute
ENCODING 225
SWIDTH 581 0
DWIDTH 37 0
BBX 31 48 2 -1
BITMAP
00003000
00007FC0
0000FF80
0001FF00
0001FE00
0003FC00
0007F800
000FF000
000FE000
001FC000
00000000
00000000
00000000
000FF800
00FFFF00
07FFFFC0
1FFFFFE0
1FFFFFF0
0FFFFFF8
0FFFFFFC
07FFFFFC
07801FFC
020007FE
000007FE
000003FE
000003FE
003FC3FE
01FFFFFE
07FFFFFE
0FFFFFFE
1FFFFFFE
3FFFFFFE
7FF81FFE
7FE003FE
FFC003FE
FFC003FE
FF8003FE
FF8003FE
FF8003FE
FFC007FE
7FC00FFE
7FE01FFE
3FFFFFFE
3FFFFFFE
1FFFFFFE
0FFFFBFE
03FFE3FE
00FF03FE
ENDCHAR
STARTCHAR acircumflex
ENCODING 226
SWIDTH 581 0
DWIDTH 37 0
BBX 31 47 2 -1
BITMAP
0007FC00
000FFC00
001FFE00
001FFF00
003FFF80
007F3F80
00FE1FC0
00FC0FE0
01F803F0
00000000
00000000
00000000
000FF800
00FFFF00
07FFFFC0
1FFFFFE0
1FFFFFF0
0FFFFFF8
0FFFFFFC
07FFFFFC
07801FFC
020007FE
000007FE
000003FE
000003FE
003FC3FE
01FFFFFE
07FFFFFE
0FFFFFFE
1FFFFFFE
3FFFFFFE
7FF81FFE
7FE003FE
FFC003FE
FFC003FE
FF8003FE
FF8003FE
FF8003FE
FFC007FE
7FC00FFE
7FE01FFE
3FFFFFFE
3FFFFFFE
1FFFFFFE
0FFFFBFE
03FFE3FE
00FF03FE
ENDCHAR
STARTCHAR atilde
ENCODING 227
SWIDTH 581 0
DWIDTH 37 0
BBX 31 47 2 -1
BITMAP
001E00F0
007F81F0
00FFE1F0
01FFFFF0
01FFFFF0
03FFFFE0
03F1FFE0
03E07FC0
03E01F00
00000000
00000000
00000000
000FF800
00FFFF00
07FFFFC0
1FFFFFE0
1FFFFFF0
0FFFFFF8
0FFFFFFC
07FFFFFC
07801FFC
020007FE
000007FE
000003FE
000003FE
003FC3FE
01FFFFFE
07FFFFFE
0FFFFFFE
1FFFFFFE
3FFFFFFE
7FF81FFE
7FE003FE
FFC003FE
FF8003FE
FF8003FE
FF8003FE
FF8003FE
FFC007FE
7FE01FFE
7FFCFFFE
3FFFFFFE
3FFFFFFE
1FFFFFFE
0FFFFBFE
03FFE3FE
00FF03FE
ENDCHAR
STARTCHAR adieresis
ENCODING 228
SWIDTH 581 0
DWIDTH 37 0
BBX 31 47 2 -1
BITMAP
00F803C0
01FC07E0
03FC0FF0
03FE0FF0
03FE0FF0
03FE0FF0
03FC0FF0
01FC07E0
00F003C0
00000000
00000000
00000000
000FF800
00FFFF00
07FFFFC0
1FFFFFE0
1FFFFFF0
0FFFFFF8
0FFFFFFC
07FFFFFC
07801FFC
020007FE
000007FE
000003FE
000003FE
003FC3FE
01FFFFFE
07FFFFFE
0FFFFFFE
1FFFFFFE
3FFFFFFE
7FF81FFE
7FE003FE
FFC003FE
FFC003FE
FF8003FE
FF8003FE
FF8003FE
FFC007FE
7FC00FFE
7FE01FFE
3FFFFFFE
3FFFFFFE
1FFFFFFE
0FFFFBFE
03FFE3FE
00FF03FE
ENDCHAR
STARTCHAR aring
ENCODING 229
SWIDTH 581 0
DWIDTH 37 0
BBX 31 53 2 -1
BITMAP
0001F000
0007F800
000FFE00
001FFE00
003E1F00
003C0F00
003C0F00
003C0700
003C0F00
003C0F00
001E1F00
001FFE00
000FFE00
0007F800
0001E000
00000000
00000000
00000000
000FF800
00FFFF00
07FFFFC0
1FFFFFE0
1FFFFFF0
0FFFFFF8
0FFFFFFC
07FFFFFC
07801FFC
020007FE
000007FE
000003FE
000003FE
003FC3FE
01FFFFFE
07FFFFFE
0FFFFFFE
1FFFFFFE
3FFFFFFE
7FF81FFE
7FE003FE
FFC003FE
FFC003FE
FF8003FE
FF8003FE
FF8003FE
FFC007FE
7FC00FFE
7FE01FFE
3FFFFFFE
3FFFFFFE
1FFFFFFE
0FFFFBFE
03FFE3FE
00FF03FE
ENDCHAR
STARTCHAR ae
ENCODING 230
SWIDTH 938 0
DWIDTH 60 0
BBX 56 35 2 -1
BITMAP
001FF0001FF000
00FFFE00FFFE00
07FFFF83FFFF00
1FFFFFC7FFFF80
1FFFFFEFFFFFE0
0FFFFFFFFFFFE0
0FFFFFFFFFFFF0
07FFFFFFFFFFF8
07801FFFFC3FF8
020007FFF00FFC
000007FFC007FC
000003FF8003FE
000003FF8003FE
003FC3FF0001FE
01FFFFFFFFFFFE
07FFFFFFFFFFFE
0FFFFFFFFFFFFF
1FFFFFFFFFFFFF
3FFFFFFFFFFFFF
7FF81FFFFFFFFF
7FE003FFFFFFFF
FFC003FF000000
FF8003FF800000
FF8003FF800000
FF8003FFC00100
FF8007FFE00780
FFC007FFFC3FC0
7FE01FFFFFFFE0
7FFCFFFFFFFFF0
3FFFFFFFFFFFF8
3FFFFFCFFFFFF8
1FFFFF87FFFFF0
07FFFF01FFFFC0
03FFFC007FFF00
007FE0000FF000
ENDCHAR
STARTCHAR ccedilla
ENCODING 231
SWIDTH 548 0
DWIDTH 35 0
BBX 31 47 2 -13
BITMAP
0003FE00
001FFFC0
007FFFF0
01FFFFF8
03FFFFFC
07FFFFFE
0FFFFFFC
1FFFFFF8
1FFE07F0
3FF801E0
3FF00040
7FE00000
7FE00000
7FC00000
FFC00000
FFC00000
FF800000
FF800000
FF800000
FFC00000
FFC00000
7FC00000
7FE00000
7FE00000
3FF00040
3FF801E0
1FFE03F0
1FFFFFFC
0FFFFFFE
07FFFFFE
03FFFFFC
01FFFFF8
007FFFF0
001FFFC0
0007FE00
0001F000
0001F000
0003FC00
0003FE00
00011F00
00001F00
00001F00
000E3F00
000FFF00
001FFE00
000FFC00
0003F000
ENDCHAR
STARTCHAR egrave
ENCODING 232
SWIDTH 593 0
DWIDTH 38 0
BBX 34 48 2 -1
BITMAP
0007000000
00FF800000
00FFC00000
003FC00000
001FE00000
000FF00000
0007F80000
0003F80000
0001FC0000
0000FE0000
0000000000
0000000000
0000000000
0007FC0000
003FFF0000
00FFFFC000
01FFFFE000
07FFFFF000
07FFFFF800
0FFFFFFC00
1FFFFFFE00
3FFF0FFE00
3FF803FF00
7FF001FF00
7FE000FF00
7FE000FF80
7FC0007F80
FFFFFFFF80
FFFFFFFF80
FFFFFFFF80
FFFFFFFFC0
FFFFFFFFC0
FFFFFFFFC0
FFFFFFFFC0
7FC0000000
7FE0000000
7FE0000000
3FF000C000
3FF801E000
3FFF0FF000
1FFFFFF800
0FFFFFFC00
07FFFFFE00
03FFFFFE00
01FFFFF800
00FFFFF000
003FFFC000
0007FC0000
ENDCHAR
STARTCHAR eacute
ENCODING 233
SWIDTH 593 0
DWIDTH 38 0
BBX 34 48 2 -1
BITMAP
0000300000
00007FC000
0000FF8000
0000FF0000
0001FE0000
0003FC0000
0007F80000
0007F00000
000FE00000
001FC00000
0000000000
0000000000
0000000000
0007FC0000
003FFF0000
00FFFFC000
01FFFFE000
07FFFFF000
07FFFFF800
0FFFFFFC00
1FFFFFFE00
3FFF0FFE00
3FF803FF00
7FF001FF00
7FE000FF00
7FE000FF80
7FC0007F80
FFFFFFFF80
FFFFFFFF80
FFFFFFFF80
FFFFFFFFC0
FFFFFFFFC0
FFFFFFFFC0
FFFFFFFFC0
7FC0000000
7FE0000000
7FE0000000
3FF000C000
3FF801E000
3FFF0FF000
1FFFFFF800
0FFFFFFC00
07FFFFFE00
03FFFFFE00
01FFFFF800
00FFFFF000
003FFFC000
0007FC0000
ENDCHAR
STARTCHAR ecircumflex
ENCODING 234
SWIDTH 593 0
DWIDTH 38 0
BBX 34 47 2 -1
BITMAP
0007FC0000
000FFE0000
001FFE0000
001FFF0000
003FFF8000
007F1F8000
00FE0FC000
00FC07E000
01F803F000
0000000000
0000000000
0000000000
0007FC0000
003FFF0000
00FFFFC000
01FFFFE000
07FFFFF000
07FFFFF800
0FFFFFFC00
1FFFFFFE00
3FFF0FFE00
3FF803FF00
7FF001FF00
7FE000FF00
7FE000FF80
7FC0007F80
FFFFFFFF80
FFFFFFFF80
FFFFFFFF80
FFFFFFFFC0
FFFFFFFFC0
FFFFFFFFC0
FFFFFFFFC0
7FC0000000
7FE0000000
7FE0000000
3FF000C000
3FF801E000
3FFF0FF000
1FFFFFF800
0FFFFFFC00
07FFFFFE00
03FFFFFE00
01FFFFF800
00FFFFF000
003FFFC000
0007FC0000
ENDCHAR
STARTCHAR edieresis
ENCODING 235
SWIDTH 593 0
DWIDTH 38 0
BBX 34 47 2 -1
BITMAP
00F803C000
01FC07E000
03FE0FF000
03FE0FF000
03FE0FF800
03FE0FF000
03FE0FF000
01FC07E000
00F803C000
0000000000
0000000000
0000000000
0007FC0000
003FFF0000
00FFFFC000
01FFFFE000
07FFFFF000
07FFFFF800
0FFFFFFC00
1FFFFFFE00
3FFF0FFE00
3FF803FF00
7FF001FF00
7FE000FF00
7FE000FF80
7FC0007F80
FFFFFFFF80
FFFFFFFF80
FFFFFFFF80
FFFFFFFFC0
FFFFFFFFC0
FFFFFFFFC0
FFFFFFFFC0
7FC0000000
7FE0000000
7FE0000000
3FF000C000
3FF801E000
3FFF0FF000
1FFFFFF800
0FFFFFFC00
07FFFFFE00
03FFFFFE00
01FFFFF800
00FFFFF000
003FFFC000
0007FC0000
ENDCHAR
STARTCHAR igrave
ENCODING 236
SWIDTH 272 0
DWIDTH 17 0
BBX 16 49 -3 -1
BITMAP
0300
7F00
FF80
7FC0
3FE0
1FE0
0FF0
07F8
01FC
00FC
0000
0000
0000
0000
01FF
01FF
01FF
01FF
01FF
01FF
01FF
01FF
01FF
01FF
01FF
01FF
01FF
01FF
01FF
01FF
01FF
01FF
01FF
01FF
01FF
01FF
01FF
01FF
01FF
01FF
01FF
01FF
01FF
01FF
01FF
01FF
01FF
01FF
01FF
ENDCHAR
STARTCHAR iacute
ENCODING 237
SWIDTH 272 0
DWIDTH 17 0
BBX 17 49 4 -1
BITMAP
004000
00FE00
01FF80
03FE00
03FC00
07F800
0FF000
0FE000
1FC000
3F8000
000000
000000
000000
000000
FF8000
FF8000
FF8000
FF8000
FF8000
FF8000
FF8000
FF8000
FF8000
FF8000
FF8000
FF8000
FF8000
FF8000
FF8000
FF8000
FF8000
FF8000
FF8000
FF8000
FF8000
FF8000
FF8000
FF8000
FF8000
FF8000
FF8000
FF8000
FF8000
FF8000
FF8000
FF8000
FF8000
FF8000
FF8000
ENDCHAR
STARTCHAR icircumflex
ENCODING 238
SWIDTH 272 0
DWIDTH 17 0
BBX 20 48 -1 -1
BITMAP
07FC00
07FE00
0FFE00
1FFF00
1FFF80
3F9FC0
7F0FC0
FE07E0
FC03F0
000000
000000
000000
000000
07FC00
07FC00
07FC00
07FC00
07FC00
07FC00
07FC00
07FC00
07FC00
07FC00
07FC00
07FC00
07FC00
07FC00
07FC00
07FC00
07FC00
07FC00
07FC00
07FC00
07FC00
07FC00
07FC00
07FC00
07FC00
07FC00
07FC00
07FC00
07FC00
07FC00
07FC00
07FC00
07FC00
07FC00
07FC00
ENDCHAR
STARTCHAR idieresis
ENCODING 239
SWIDTH 272 0
DWIDTH 17 0
BBX 23 48 -3 -1
BITMAP
1E00F0
3F01FC
7F83FC
7F83FE
FF83FE
7F83FE
7F83FC
3F01FC
1E00F0
000000
000000
000000
000000
01FF00
01FF00
01FF00
01FF00
01FF00
01FF00
01FF00
01FF00
01FF00
01FF00
01FF00
01FF00
01FF00
01FF00
01FF00
01FF00
01FF00
01FF00
01FF00
01FF00
01FF00
01FF00
01FF00
01FF00
01FF00
01FF00
01FF00
01FF00
01FF00
01FF00
01FF00
01FF00
01FF00
01FF00
01FF00
ENDCHAR
STARTCHAR eth
ENCODING 240
SWIDTH 632 0
DWIDTH 40 0
BBX 35 47 3 -1
BITMAP
0007008000
001FC3C000
00FFEFC000
01FFFFC000
007FFFE000
003FFFE000
001FFF0000
007FFF8000
00FFFFC000
00FFFFC000
007E7FE000
00783FF000
00601FF800
00000FFC00
000607FC00
007FE3FE00
01FFFBFF00
07FFFDFF00
0FFFFFFF80
1FFFFFFF80
1FFFFFFF80
3FFFFFFFC0
7FFC0FFFC0
7FF003FFC0
7FE001FFC0
FFC000FFE0
FFC0007FE0
FF80007FE0
FF80007FE0
FF80003FE0
FF80003FE0
FF80003FC0
FF80007FC0
FF80007FC0
FFC0007FC0
7FC000FFC0
7FE001FF80
7FF003FF80
3FFC0FFF00
3FFFFFFF00
1FFFFFFE00
0FFFFFFC00
07FFFFF800
03FFFFF000
00FFFFE000
003FFF8000
0007FC0000
ENDCHAR
STARTCHAR ntilde
ENCODING 241
SWIDTH 614 0
DWIDTH 39 0
BBX 32 48 4 -1
BITMAP
003C0000
00FF01F0
01FFC1F0
03FFE3E0
03FFFFE0
03FFFFE0
07E3FFC0
07C1FFC0
07C07F80
01C01E00
00000000
00000000
00000000
FF81FE00
FF87FF80
FF9FFFE0
FFBFFFF0
FFFFFFF8
FFFFFFF8
FFFFFFFC
FFFFFFFC
FFF81FFE
FFF00FFE
FFE007FE
FFC003FE
FFC003FE
FF8003FF
FF8003FF
FF8003FF
FF8003FF
FF8003FF
FF8003FF
FF8003FF
FF8003FF
FF8003FF
FF8003FF
FF8003FF
FF8003FF
FF8003FF
FF8003FF
FF8003FF
FF8003FF
FF8003FF
FF8003FF
FF8003FF
FF8003FF
FF8003FF
FF8003FF
ENDCHAR
STARTCHAR ograve
ENCODING 242
SWIDTH 634 0
DWIDTH 41 0
BBX 36 48 2 -1
BITMAP
0001800000
007FC00000
003FE00000
001FE00000
000FF00000
0007F80000
0003FC0000
0001FC0000
0000FE0000
00007F0000
0000000000
0000000000
0000000000
0003FE0000
001FFFC000
007FFFE000
01FFFFF800
03FFFFFC00
07FFFFFE00
0FFFFFFF00
1FFFFFFF80
1FFE03FFC0
3FF801FFC0
3FF000FFE0
7FE0007FE0
7FE0003FF0
7FC0001FF0
FFC0001FF0
FF80001FF0
FF80001FF0
FF80001FF0
FF80001FF0
FF80001FF0
FFC0001FF0
7FC0001FF0
7FE0003FF0
7FE0007FE0
3FF000FFE0
3FF801FFC0
1FFE07FFC0
1FFFFFFF80
0FFFFFFF00
07FFFFFE00
03FFFFFC00
00FFFFF800
007FFFF000
001FFFC000
0003FE0000
ENDCHAR
STARTCHAR oacute
ENCODING 243
SWIDTH 634 0
DWIDTH 41 0
BBX 36 48 2 -1
BITMAP
0000180000
00003FE000
00007FE000
00007F8000
0000FF0000
0001FE0000
0003FC0000
0003F80000
0007F00000
000FE00000
0000000000
0000000000
0000000000
0003FE0000
001FFFC000
007FFFE000
01FFFFF800
03FFFFFC00
07FFFFFE00
0FFFFFFF00
1FFFFFFF80
1FFE03FFC0
3FF801FFC0
3FF000FFE0
7FE0007FE0
7FE0003FF0
7FC0001FF0
FFC0001FF0
FF80001FF0
FF80001FF0
FF80001FF0
FF80001FF0
FF80001FF0
FFC0001FF0
7FC0001FF0
7FE0003FF0
7FE0007FE0
3FF000FFE0
3FF801FFC0
1FFE07FFC0
1FFFFFFF80
0FFFFFFF00
07FFFFFE00
03FFFFFC00
00FFFFF800
007FFFF000
001FFFC000
0003FE0000
ENDCHAR
STARTCHAR ocircumflex
ENCODING 244
SWIDTH 634 0
DWIDTH 41 0
BBX 36 47 2 -1
BITMAP
0003FE0000
0007FF0000
000FFF0000
000FFF8000
001FDFC000
003F8FE000
003F07E000
007E03F000
00FC01F800
0000000000
0000000000
0000000000
0003FE0000
001FFFC000
007FFFE000
01FFFFF800
03FFFFFC00
07FFFFFE00
0FFFFFFF00
1FFFFFFF80
1FFE03FFC0
3FF801FFC0
3FF000FFE0
7FE0007FE0
7FE0003FF0
7FC0001FF0
FFC0001FF0
FF80001FF0
FF80001FF0
FF80001FF0
FF80001FF0
FF80001FF0
FFC0001FF0
7FC0001FF0
7FE0003FF0
7FE0007FE0
3FF000FFE0
3FF801FFC0
1FFE07FFC0
1FFFFFFF80
0FFFFFFF00
07FFFFFE00
03FFFFFC00
00FFFFF800
007FFFF000
001FFFC000
0003FE0000
ENDCHAR
STARTCHAR otilde
ENCODING 245
SWIDTH 634 0
DWIDTH 41 0
BBX 36 47 2 -1
BITMAP
000F007800
003FC07C00
007FF0F800
00FFFFF800
00FFFFF800
00FFFFF000
01F8FFF000
01F03FE000
01F00F8000
0000000000
0000000000
0000000000
0003FE0000
001FFFC000
007FFFE000
01FFFFF800
03FFFFFC00
07FFFFFE00
0FFFFFFF00
1FFFFFFF80
1FFE03FFC0
3FF801FFC0
3FF000FFE0
7FE0007FE0
7FE0003FF0
7FC0001FF0
FFC0001FF0
FF80001FF0
FF80001FF0
FF80001FF0
FF80001FF0
FF80001FF0
FFC0001FF0
7FC0001FF0
7FE0003FF0
7FE0007FE0
3FF000FFE0
3FF801FFC0
1FFE07FFC0
1FFFFFFF80
0FFFFFFF00
07FFFFFE00
03FFFFFC00
00FFFFF800
007FFFF000
001FFFC000
0003FE0000
ENDCHAR
STARTCHAR odieresis
ENCODING 246
SWIDTH 634 0
DWIDTH 41 0
BBX 36 47 2 -1
BITMAP
007C01E000
00FE03F000
01FF07F800
01FF07F800
01FF07FC00
01FF07F800
00FF07F800
00FE03F000
007C01E000
0000000000
0000000000
0000000000
0003FE0000
001FFFC000
007FFFE000
01FFFFF800
03FFFFFC00
07FFFFFE00
0FFFFFFF00
1FFFFFFF80
1FFE03FFC0
3FF801FFC0
3FF000FFE0
7FE0007FE0
7FE0003FF0
7FC0001FF0
FFC0001FF0
FF80001FF0
FF80001FF0
FF80001FF0
FF80001FF0
FF80001FF0
FFC0001FF0
7FC0001FF0
7FE0003FF0
7FE0007FE0
3FF000FFE0
3FF801FFC0
1FFE07FFC0
1FFFFFFF80
0FFFFFFF00
07FFFFFE00
03FFFFFC00
00FFFFF800
007FFFF000
001FFFC000
0003FE0000
ENDCHAR
STARTCHAR divide
ENCODING 247
SWIDTH 603 0
DWIDTH 39 0
BBX 31 34 4 4
BITMAP
0007C000
001FE000
001FF000
003FF000
003FF000
003FF000
003FF000
001FF000
000FE000
0007C000
00000000
00000000
00000000
FFFFFFFE
FFFFFFFE
FFFFFFFE
FFFFFFFE
FFFFFFFE
FFFFFFFE
FFFFFFFE
FFFFFFFE
00000000
00000000
00000000
0007C000
001FE000
001FF000
003FF000
003FF000
003FF000
003FF000
001FF000
000FE000
0007C000
ENDCHAR
STARTCHAR oslash
ENCODING 248
SWIDTH 634 0
DWIDTH 41 0
BBX 36 35 2 -1
BITMAP
0003FE07F0
001FFFCFE0
007FFFFFC0
01FFFFFF80
03FFFFFF00
07FFFFFF00
0FFFFFFF00
0FFFFFFF80
1FFE03FFC0
3FF803FFC0
3FF007FFE0
7FE00FFFE0
7FE01FFFF0
7FC03F9FF0
7FC07F1FF0
FF807E1FF0
FF80FE1FF0
FF81FC1FF0
FF83F81FF0
FF87F01FF0
FFCFE01FF0
7FCFC01FF0
7FFFC03FF0
7FFF807FE0
3FFF00FFE0
3FFE01FFC0
3FFE07FFC0
1FFFFFFF80
0FFFFFFF00
07FFFFFE00
07FFFFFC00
0FFFFFF800
1FFFFFF000
3F1FFFC000
7F03FE0000
ENDCHAR
STARTCHAR ugrave
ENCODING 249
SWIDTH 614 0
DWIDTH 39 0
BBX 31 49 4 -1
BITMAP
00040000
00FE0000
03FF0000
00FF0000
007F8000
003FC000
001FE000
000FE000
0007F000
0003F800
00000000
00000000
00000000
00000000
FF8003FE
FF8003FE
FF8003FE
FF8003FE
FF8003FE
FF8003FE
FF8003FE
FF8003FE
FF8003FE
FF8003FE
FF8003FE
FF8003FE
FF8003FE
FF8003FE
FF8003FE
FF8003FE
FF8003FE
FF8003FE
FF8003FE
FF8003FE
FF8003FE
FF8003FE
FF8003FE
FF8007FE
FFC007FE
FFE00FFE
FFF03FFE
7FFFFFFE
7FFFFFFE
3FFFFFFE
3FFFFFFE
1FFFFBFE
0FFFF3FE
03FFC3FE
00FF03FE
ENDCHAR
STARTCHAR uacute
ENCODING 250
SWIDTH 614 0
DWIDTH 39 0
BBX 31 49 4 -1
BITMAP
00008000
0001FE00
0001FF00
0003FE00
0007FC00
000FF800
000FF000
001FC000
003F8000
003F0000
00400000
00000000
00000000
00000000
FF8003FE
FF8003FE
FF8003FE
FF8003FE
FF8003FE
FF8003FE
FF8003FE
FF8003FE
FF8003FE
FF8003FE
FF8003FE
FF8003FE
FF8003FE
FF8003FE
FF8003FE
FF8003FE
FF8003FE
FF8003FE
FF8003FE
FF8003FE
FF8003FE
FF8003FE
FF8003FE
FF8007FE
FFC007FE
FFE00FFE
FFF03FFE
7FFFFFFE
7FFFFFFE
3FFFFFFE
3FFFFFFE
1FFFFBFE
0FFFF3FE
03FFC3FE
00FF03FE
ENDCHAR
STARTCHAR ucircumflex
ENCODING 251
SWIDTH 614 0
DWIDTH 39 0
BBX 31 48 4 -1
BITMAP
001FF000
001FF800
003FF800
007FFC00
00FFFE00
00FEFE00
01FC7F00
03F83F80
03F01FC0
04000000
00000000
00000000
00000000
FF8003FE
FF8003FE
FF8003FE
FF8003FE
FF8003FE
FF8003FE
FF8003FE
FF8003FE
FF8003FE
FF8003FE
FF8003FE
FF8003FE
FF8003FE
FF8003FE
FF8003FE
FF8003FE
FF8003FE
FF8003FE
FF8003FE
FF8003FE
FF8003FE
FF8003FE
FF8003FE
FF8007FE
FFC007FE
FFE00FFE
FFF03FFE
7FFFFFFE
7FFFFFFE
3FFFFFFE
3FFFFFFE
1FFFFBFE
0FFFF3FE
03FFC3FE
00FF03FE
ENDCHAR
STARTCHAR udieresis
ENCODING 252
SWIDTH 614 0
DWIDTH 39 0
BBX 31 48 4 -1
BITMAP
01E00F00
07F01FC0
07F83FC0
0FF83FE0
0FF83FE0
0FF83FE0
07F83FC0
07F01FC0
01E00F00
00000000
00000000
00000000
00000000
FF8003FE
FF8003FE
FF8003FE
FF8003FE
FF8003FE
FF8003FE
FF8003FE
FF8003FE
FF8003FE
FF8003FE
FF8003FE
FF8003FE
FF8003FE
FF8003FE
FF8003FE
FF8003FE
FF8003FE
FF8003FE
FF8003FE
FF8003FE
FF8003FE
FF8003FE
FF8003FE
FF8007FE
FFC007FE
FFE00FFE
FFF03FFE
7FFFFFFE
7FFFFFFE
3FFFFFFE
3FFFFFFE
1FFFFBFE
0FFFF3FE
03FFC3FE
00FF03FE
ENDCHAR
STARTCHAR yacute
ENCODING 253
SWIDTH 601 0
DWIDTH 38 0
BBX 36 60 1 -12
BITMAP
0000100000
00003FC000
00003FE000
00007FC000
0000FF8000
0001FE0000
0001FC0000
0003F80000
0007F00000
000FE00000
0000000000
0000000000
0000000000
0000000000
FFC0003FF0
7FC0003FF0
7FE0003FE0
7FE0007FE0
3FE0007FC0
3FF0007FC0
1FF000FFC0
1FF000FF80
1FF800FF80
0FF801FF80
0FF801FF00
07FC01FF00
07FC03FE00
07FE03FE00
03FE03FE00
03FE07FC00
03FF07FC00
01FF07FC00
01FF0FF800
00FF8FF800
00FF8FF000
00FF9FF000
007FDFF000
007FDFE000
003FFFE000
003FFFE000
003FFFC000
001FFFC000
001FFF8000
000FFF8000
000FFF8000
000FFF0000
0007FF0000
0007FF0000
0003FE0000
0007FE0000
0007FC0000
000FFC0000
0C1FF80000
0FFFF80000
1FFFF00000
1FFFF00000
1FFFE00000
3FFFC00000
0FFF000000
03FC000000
ENDCHAR
STARTCHAR thorn
ENCODING 254
SWIDTH 660 0
DWIDTH 42 0
BBX 36 56 4 -11
BITMAP
FF80000000
FF80000000
FF80000000
FF80000000
FF80000000
FF80000000
FF80000000
FF80000000
FF80000000
FF80000000
FF80000000
FF807F0000
FF83FFE000
FF8FFFF800
FF9FFFFC00
FFBFFFFE00
FFFFFFFF00
FFFFFFFF80
FFFFFFFF80
FFFE07FFC0
FFF801FFC0
FFF000FFE0
FFE0007FE0
FFC0007FE0
FFC0003FE0
FFC0003FF0
FFC0003FF0
FF80001FF0
FF80001FF0
FF80001FF0
FFC0003FF0
FFC0003FF0
FFC0003FE0
FFC0007FE0
FFE0007FE0
FFF000FFE0
FFF801FFC0
FFFE07FFC0
FFFFFFFF80
FFFFFFFF80
FFFFFFFF00
FFBFFFFE00
FF9FFFFC00
FF8FFFF800
FF83FFE000
FF80FF0000
FF80000000
FF80000000
FF80000000
FF80000000
FF80000000
FF80000000
FF80000000
FF80000000
FF80000000
FF80000000
ENDCHAR
STARTCHAR ydieresis
ENCODING 255
SWIDTH 601 0
DWIDTH 38 0
BBX 36 59 1 -12
BITMAP
007C01E000
00FE03F000
01FF07F800
01FF07F800
01FF07FC00
01FF07F800
00FF07F800
00FE03F000
003C01E000
0000000000
0000000000
0000000000
0000000000
FFC0003FF0
7FC0003FF0
7FE0003FE0
7FE0007FE0
3FE0007FC0
3FF0007FC0
1FF000FFC0
1FF000FF80
1FF800FF80
0FF801FF80
0FF801FF00
07FC01FF00
07FC03FE00
07FE03FE00
03FE03FE00
03FE07FC00
03FF07FC00
01FF07FC00
01FF0FF800
00FF8FF800
00FF8FF000
00FF9FF000
007FDFF000
007FDFE000
003FFFE000
003FFFE000
003FFFC000
001FFFC000
001FFF8000
000FFF8000
000FFF8000
000FFF0000
0007FF0000
0007FF0000
0003FE0000
0007FE0000
0007FC0000
000FFC0000
0C1FF80000
0FFFF80000
1FFFF00000
1FFFF00000
1FFFE00000
3FFFC00000
0FFF000000
03FC000000
ENDCHAR
STARTCHAR Amacron
ENCODING 256
SWIDTH 751 0
DWIDTH 48 0
BBX 46 56 1 -1
BITMAP
000FFFFFC000
000FFFFFC000
000FFFFFC000
000FFFFFC000
000FFFFFC000
000FFFFFC000
000000000000
000000000000
000000000000
000000000000
00003FF80000
00007FF80000
00007FF80000
0000FFFC0000
0000FFFC0000
0000FFFC0000
0001FFFE0000
0001FFFE0000
0003FFFF0000
0003FFFF0000
0003FFFF0000
0007FFFF8000
0007FFFF8000
000FFFFFC000
000FFFFFC000
000FFCFFC000
001FFCFFE000
001FFCFFE000
001FF87FF000
003FF87FF000
003FF07FF000
007FF03FF800
007FF03FF800
007FE01FF800
00FFE01FFC00
00FFE01FFC00
01FFC00FFE00
01FFC00FFE00
01FF8007FE00
03FF8007FF00
03FF8007FF00
07FFFFFFFF80
07FFFFFFFF80
07FFFFFFFF80
0FFFFFFFFFC0
0FFFFFFFFFC0
0FFFFFFFFFE0
1FFFFFFFFFE0
1FFFFFFFFFE0
3FF800007FF0
3FF800007FF0
3FF000003FF0
7FF000003FF8
7FE000001FF8
FFE000001FFC
FFE000001FFC
ENDCHAR
STARTCHAR amacron
ENCODING 257
SWIDTH 581 0
DWIDTH 37 0
BBX 31 44 2 -1
BITMAP
03FFFFF0
03FFFFF0
03FFFFF0
03FFFFF0
03FFFFF0
03FFFFF0
00000000
00000000
00000000
000FF800
00FFFF00
07FFFFC0
1FFFFFE0
1FFFFFF0
0FFFFFF8
0FFFFFFC
07FFFFFC
07801FFC
020007FE
000007FE
000003FE
000003FE
003FC3FE
01FFFFFE
07FFFFFE
0FFFFFFE
1FFFFFFE
3FFFFFFE
7FF81FFE
7FE003FE
FFC003FE
FFC003FE
FF8003FE
FF8003FE
FF8003FE
FFC007FE
7FC00FFE
7FE01FFE
3FFFFFFE
3FFFFFFE
1FFFFFFE
0FFFFBFE
03FFE3FE
00FF03FE
ENDCHAR
STARTCHAR Abreve
ENCODING 258
SWIDTH 751 0
DWIDTH 48 0
BBX 46 58 1 -1
BITMAP
0000C00C0000
0001E01E0000
0003FFFF0000
0007FFFF8000
0007FFFF8000
0001FFFE0000
0000FFFC0000
00001FE00000
000000000000
000000000000
000000000000
000000000000
00003FF80000
00007FF80000
00007FF80000
0000FFFC0000
0000FFFC0000
0000FFFC0000
0001FFFE0000
0001FFFE0000
0003FFFF0000
0003FFFF0000
0003FFFF0000
0007FFFF8000
0007FFFF8000
000FFFFFC000
000FFFFFC000
000FFCFFC000
001FFCFFE000
001FFCFFE000
001FF87FF000
003FF87FF000
003FF07FF000
007FF03FF800
007FF03FF800
007FE01FF800
00FFE01FFC00
00FFE01FFC00
01FFC00FFE00
01FFC00FFE00
01FF8007FE00
03FF8007FF00
03FF8007FF00
07FFFFFFFF80
07FFFFFFFF80
07FFFFFFFF80
0FFFFFFFFFC0
0FFFFFFFFFC0
0FFFFFFFFFE0
1FFFFFFFFFE0
1FFFFFFFFFE0
3FF800007FF0
3FF800007FF0
3FF000003FF0
7FF000003FF8
7FE000001FF8
FFE000001FFC
FFE000001FFC
ENDCHAR
STARTCHAR abreve
ENCODING 259
SWIDTH 581 0
DWIDTH 37 0
BBX 31 47 2 -1
BITMAP
00000100
00300380
007C0FC0
00FFFFE0
01FFFFE0
00FFFFC0
003FFF80
000FFE00
0000E000
00000000
00000000
00000000
000FF800
00FFFF00
07FFFFC0
1FFFFFE0
1FFFFFF0
0FFFFFF8
0FFFFFFC
07FFFFFC
07801FFC
020007FE
000007FE
000003FE
000003FE
003FC3FE
01FFFFFE
07FFFFFE
0FFFFFFE
1FFFFFFE
3FFFFFFE
7FF81FFE
7FE003FE
FFC003FE
FFC003FE
FF8003FE
FF8003FE
FF8003FE
FFC007FE
7FC00FFE
7FE01FFE
3FFFFFFE
3FFFFFFE
1FFFFFFE
0FFFFBFE
03FFE3FE
00FF03FE
ENDCHAR
STARTCHAR Aogonek
ENCODING 260
SWIDTH 751 0
DWIDTH 48 0
BBX 50 57 1 -12
BITMAP
00003FF8000000
00007FF8000000
00007FF8000000
0000FFFC000000
0000FFFC000000
0000FFFC000000
0001FFFE000000
0001FFFE000000
0003FFFF000000
0003FFFF000000
0003FFFF000000
0007FFFF800000
0007FFFF800000
000FFFFFC00000
000FFFFFC00000
000FFCFFC00000
001FFCFFE00000
001FFCFFE00000
001FF87FF00000
003FF87FF00000
003FF07FF00000
007FF03FF80000
007FF03FF80000
007FE01FF80000
00FFE01FFC0000
00FFE01FFC0000
01FFC00FFE0000
01FFC00FFE0000
01FF8007FE0000
03FF8007FF0000
03FF8007FF0000
07FFFFFFFF8000
07FFFFFFFF8000
07FFFFFFFF8000
0FFFFFFFFFC000
0FFFFFFFFFC000
0FFFFFFFFFE000
1FFFFFFFFFE000
1FFFFFFFFFE000
3FF800007FF000
3FF800007FF000
3FF000003FF000
7FF000003FF800
7FE000001FF800
FFE000001FFC00
FFE000001FFC00
0000000003F000
0000000003F000
0000000003E000
0000000007E000
0000000007F000
0000000003FF80
0000000003FF80
0000000003FFC0
0000000001FFC0
0000000000FFC0
00000000003F00
ENDCHAR
STARTCHAR aogonek
ENCODING 261
SWIDTH 581 0
DWIDTH 37 0
BBX 35 45 2 -11
BITMAP
000FF80000
00FFFF0000
07FFFFC000
1FFFFFE000
1FFFFFF000
0FFFFFF800
0FFFFFFC00
07FFFFFC00
07801FFC00
020007FE00
000007FE00
000003FE00
000003FE00
003FC3FE00
01FFFFFE00
07FFFFFE00
0FFFFFFE00
1FFFFFFE00
3FFFFFFE00
7FF81FFE00
7FE003FE00
7FC003FE00
FF8003FE00
FF8003FE00
FF8003FE00
FF8003FE00
FFC007FE00
7FE01FFE00
7FFCFFFE00
7FFFFFFE00
3FFFFFFE00
1FFFFFFE00
0FFFFBFE00
03FFE3FE00
00FF03FE00
000001F800
000001F800
000001F800
000001F800
000001FFC0
000001FFE0
000001FFE0
000000FFE0
0000007FE0
0000001F80
ENDCHAR
STARTCHAR Cacute
ENCODING 262
SWIDTH 696 0
DWIDTH 45 0
BBX 40 59 3 -1
BITMAP
0000038000
000007FC00
000007FC00
00000FF800
00001FE000
00003FC000
00003F8000
00007F0000
0000FE0000
0001FC0000
0000000000
0000000000
0000000000
00003FF000
0001FFFE00
000FFFFFC0
001FFFFFE0
007FFFFFF8
00FFFFFFFC
01FFFFFFFE
03FFFFFFFF
07FFFFFFFE
0FFFC00FFC
1FFF0003F8
1FFE0001F0
3FFC0000C0
3FF8000000
7FF0000000
7FE0000000
7FE0000000
FFC0000000
FFC0000000
FFC0000000
FFC0000000
FF80000000
FF80000000
FF80000000
FF80000000
FFC0000000
FFC0000000
FFC0000000
FFC0000000
7FE0000000
7FE0000000
7FF0000000
3FF8000000
3FFC0000C0
1FFE0001F0
1FFF0003F8
0FFFC00FFC
07FFFFFFFE
03FFFFFFFF
01FFFFFFFE
00FFFFFFFC
007FFFFFF8
001FFFFFE0
0007FFFF80
0001FFFE00
00003FF000
ENDCHAR
STARTCHAR cacute
ENCODING 263
SWIDTH 548 0
DWIDTH 35 0
BBX 31 48 2 -1
BITMAP
00003000
00007FC0
0000FF80
0001FF00
0001FE00
0003FC00
0007F800
000FF000
000FE000
001F8000
00000000
00000000
00000000
0003FE00
001FFFC0
007FFFF0
01FFFFF8
03FFFFFC
07FFFFFE
0FFFFFFC
1FFFFFF8
1FFE07F0
3FF801E0
3FF00040
7FE00000
7FE00000
7FC00000
FFC00000
FFC00000
FF800000
FF800000
FF800000
FFC00000
FFC00000
7FC00000
7FE00000
7FE00000
3FF00040
3FF801E0
1FFE07F0
1FFFFFFC
0FFFFFFE
07FFFFFE
03FFFFFC
00FFFFF8
007FFFF0
001FFFC0
0003FE00
ENDCHAR
STARTCHAR Ccaron
ENCODING 268
SWIDTH 696 0
DWIDTH 45 0
BBX 40 58 3 -1
BITMAP
001FC07F00
000FE0FE00
0007F1FC00
0003FBF800
0003FFF800
0001FFF000
0000FFE000
00007FC000
00007FC000
0000000000
0000000000
0000000000
00003FF000
0001FFFE00
000FFFFFC0
001FFFFFE0
007FFFFFF8
00FFFFFFFC
01FFFFFFFE
03FFFFFFFF
07FFFFFFFE
0FFFC00FFC
1FFF0003F8
1FFE0001F0
3FFC0000C0
3FF8000000
7FF0000000
7FE0000000
7FE0000000
FFC0000000
FFC0000000
FFC0000000
FFC0000000
FF80000000
FF80000000
FF80000000
FF80000000
FFC0000000
FFC0000000
FFC0000000
FFC0000000
7FE0000000
7FE0000000
7FF0000000
3FF8000000
3FFC0000C0
1FFE0001F0
1FFF0003F8
0FFFC00FFC
07FFFFFFFE
03FFFFFFFF
01FFFFFFFE
00FFFFFFFC
007FFFFFF8
001FFFFFE0
0007FFFF80
0001FFFE00
00003FF000
ENDCHAR
STARTCHAR ccaron
ENCODING 269
SWIDTH 548 0
DWIDTH 35 0
BBX 31 47 2 -1
BITMAP
01F807E0
00FC0FC0
00FE1FC0
007F3F80
003FFF00
001FFE00
001FFE00
000FFC00
0007F800
00000000
00000000
00000000
0003FE00
001FFFC0
007FFFF0
01FFFFF8
03FFFFFC
07FFFFFE
0FFFFFFC
1FFFFFF8
1FFE07F0
3FF801E0
3FF00040
7FE00000
7FE00000
7FC00000
FFC00000
FFC00000
FF800000
FF800000
FF800000
FFC00000
FFC00000
7FC00000
7FE00000
7FE00000
3FF00040
3FF801E0
1FFE07F0
1FFFFFFC
0FFFFFFE
07FFFFFE
03FFFFFC
00FFFFF8
007FFFF0
001FFFC0
0003FE00
ENDCHAR
STARTCHAR Dcaron
ENCODING 270
SWIDTH 761 0
DWIDTH 49 0
BBX 41 59 5 -1
BITMAP
07E00FC00000
03F01F800000
01F83F000000
01FC7F000000
00FEFE000000
007FFC000000
003FF8000000
003FF8000000
001FF0000000
000000000000
000000000000
000000000000
000000000000
FFFFF8000000
FFFFFF800000
FFFFFFF00000
FFFFFFFC0000
FFFFFFFE0000
FFFFFFFF8000
FFFFFFFFC000
FFFFFFFFE000
FFFFFFFFF000
FF8003FFF800
FF8000FFF800
FF80003FFC00
FF80001FFC00
FF80000FFE00
FF800007FE00
FF800007FF00
FF800003FF00
FF800003FF00
FF800003FF00
FF800001FF00
FF800001FF80
FF800001FF80
FF800001FF80
FF800001FF80
FF800001FF80
FF800001FF80
FF800001FF80
FF800003FF00
FF800003FF00
FF800003FF00
FF800007FF00
FF80000FFE00
FF80000FFE00
FF80001FFC00
FF80003FFC00
FF8000FFF800
FF8003FFF800
FFFFFFFFF000
FFFFFFFFE000
FFFFFFFFC000
FFFFFFFF8000
FFFFFFFE0000
FFFFFFFC0000
FFFFFFF00000
FFFFFF800000
FFFFF8000000
ENDCHAR
STARTCHAR dcaron
ENCODING 271
SWIDTH 660 0
DWIDTH 42 0
BBX 49 46 2 -1
BITMAP
0000001FF01E00
0000001FF07F00
0000001FF07F80
0000001FF0FF80
0000001FF0FF80
0000001FF0FF80
0000001FF07F80
0000001FF07F80
0000001FF01F80
0000001FF00F80
0000001FF00F00
000FE01FF01F00
007FFC1FF01E00
01FFFF1FF03C00
03FFFF9FF01800
07FFFFDFF00000
0FFFFFFFF00000
1FFFFFFFF00000
1FFFFFFFF00000
3FFE03FFF00000
3FF801FFF00000
7FF000FFF00000
7FE0007FF00000
7FE0003FF00000
7FC0003FF00000
7FC0003FF00000
FFC0001FF00000
FFC0001FF00000
FFC0001FF00000
FFC0001FF00000
FFC0001FF00000
7FC0003FF00000
7FC0003FF00000
7FE0003FF00000
7FE0007FF00000
3FF000FFF00000
3FF801FFF00000
3FFE03FFF00000
1FFFFFFFF00000
1FFFFFFFF00000
0FFFFFFFF00000
07FFFFDFF00000
03FFFF9FF00000
01FFFF1FF00000
007FFC1FF00000
000FF01FF00000
ENDCHAR
STARTCHAR Dcroat
ENCODING 272
SWIDTH 802 0
DWIDTH 51 0
BBX 45 46 3 -1
BITMAP
0FFFFFC00000
0FFFFFFC0000
0FFFFFFF0000
0FFFFFFFC000
0FFFFFFFF000
0FFFFFFFF800
0FFFFFFFFE00
0FFFFFFFFF00
0FFFFFFFFF00
0FFC001FFF80
0FFC0007FFC0
0FFC0003FFE0
0FFC0001FFE0
0FFC0000FFF0
0FFC00007FF0
0FFC00003FF0
0FFC00003FF8
0FFC00001FF8
FFFFFF001FF8
FFFFFF001FF8
FFFFFF000FF8
FFFFFF000FF8
FFFFFF000FF8
FFFFFF000FF8
FFFFFF000FF8
FFFFFF001FF8
FFFFFF001FF8
0FFC00001FF8
0FFC00001FF8
0FFC00003FF8
0FFC00003FF0
0FFC00007FF0
0FFC0000FFF0
0FFC0001FFE0
0FFC0003FFE0
0FFC0007FFC0
0FFC001FFF80
0FFFFFFFFF00
0FFFFFFFFF00
0FFFFFFFFE00
0FFFFFFFF800
0FFFFFFFF000
0FFFFFFFC000
0FFFFFFF0000
0FFFFFFC0000
0FFFFFC00000
ENDCHAR
STARTCHAR dcroat
ENCODING 273
SWIDTH 686 0
DWIDTH 44 0
BBX 40 46 2 -1
BITMAP
0000001FF0
0000001FF0
0000001FF0
00007FFFFF
00007FFFFF
00007FFFFF
00007FFFFF
00007FFFFF
0000001FF0
0000001FF0
0000001FF0
000FE01FF0
007FFC1FF0
01FFFF1FF0
03FFFF9FF0
07FFFFDFF0
0FFFFFFFF0
1FFFFFFFF0
1FFFFFFFF0
3FFE03FFF0
3FF801FFF0
7FF000FFF0
7FE0007FF0
7FE0003FF0
7FC0003FF0
7FC0003FF0
FFC0001FF0
FFC0001FF0
FFC0001FF0
FFC0001FF0
FFC0001FF0
7FC0003FF0
7FC0003FF0
7FE0003FF0
7FE0007FF0
3FF000FFF0
3FF801FFF0
3FFE03FFF0
1FFFFFFFF0
1FFFFFFFF0
0FFFFFFFF0
07FFFFDFF0
03FFFF9FF0
01FFFF1FF0
007FFC1FF0
000FF01FF0
ENDCHAR
STARTCHAR Emacron
ENCODING 274
SWIDTH 641 0
DWIDTH 41 0
BBX 34 56 4 -1
BITMAP
03FFFFF000
03FFFFF000
03FFFFF000
03FFFFF000
03FFFFF000
03FFFFF000
0000000000
0000000000
0000000000
0000000000
FFFFFFFFC0
FFFFFFFFC0
FFFFFFFFC0
FFFFFFFFC0
FFFFFFFFC0
FFFFFFFFC0
FFFFFFFFC0
FFFFFFFFC0
FFFFFFFFC0
FFC0000000
FFC0000000
FFC0000000
FFC0000000
FFC0000000
FFC0000000
FFC0000000
FFC0000000
FFC0000000
FFFFFFFF00
FFFFFFFF00
FFFFFFFF00
FFFFFFFF00
FFFFFFFF00
FFFFFFFF00
FFFFFFFF00
FFFFFFFF00
FFFFFFFF00
FFC0000000
FFC0000000
FFC0000000
FFC0000000
FFC0000000
FFC0000000
FFC0000000
FFC0000000
FFC0000000
FFC0000000
FFFFFFFFC0
FFFFFFFFC0
FFFFFFFFC0
FFFFFFFFC0
FFFFFFFFC0
FFFFFFFFC0
FFFFFFFFC0
FFFFFFFFC0
FFFFFFFFC0
ENDCHAR
STARTCHAR emacron
ENCODING 275
SWIDTH 593 0
DWIDTH 38 0
BBX 34 44 2 -1
BITMAP
03FFFFF000
03FFFFF000
03FFFFF000
03FFFFF000
03FFFFF000
03FFFFF000
0000000000
0000000000
0000000000
0007FC0000
003FFF0000
00FFFFC000
01FFFFE000
07FFFFF000
07FFFFF800
0FFFFFFC00
1FFFFFFE00
3FFF0FFE00
3FF803FF00
7FF001FF00
7FE000FF00
7FE000FF80
7FC0007F80
FFFFFFFF80
FFFFFFFF80
FFFFFFFF80
FFFFFFFFC0
FFFFFFFFC0
FFFFFFFFC0
FFFFFFFFC0
7FC0000000
7FE0000000
7FE0000000
3FF000C000
3FF801E000
3FFF0FF000
1FFFFFF800
0FFFFFFC00
07FFFFFE00
03FFFFFE00
01FFFFF800
00FFFFF000
003FFFC000
0007FC0000
ENDCHAR
STARTCHAR Edotaccent
ENCODING 278
SWIDTH 641 0
DWIDTH 41 0
BBX 34 59 4 -1
BITMAP
0001E00000
0003F80000
0007F80000
0007FC0000
0007FC0000
0007FC0000
0007F80000
0003F80000
0001E00000
0000000000
0000000000
0000000000
0000000000
FFFFFFFFC0
FFFFFFFFC0
FFFFFFFFC0
FFFFFFFFC0
FFFFFFFFC0
FFFFFFFFC0
FFFFFFFFC0
FFFFFFFFC0
FFFFFFFFC0
FFC0000000
FFC0000000
FFC0000000
FFC0000000
FFC0000000
FFC0000000
FFC0000000
FFC0000000
FFC0000000
FFFFFFFF00
FFFFFFFF00
FFFFFFFF00
FFFFFFFF00
FFFFFFFF00
FFFFFFFF00
FFFFFFFF00
FFFFFFFF00
FFFFFFFF00
FFC0000000
FFC0000000
FFC0000000
FFC0000000
FFC0000000
FFC0000000
FFC0000000
FFC0000000
FFC0000000
FFC0000000
FFFFFFFFC0
FFFFFFFFC0
FFFFFFFFC0
FFFFFFFFC0
FFFFFFFFC0
FFFFFFFFC0
FFFFFFFFC0
FFFFFFFFC0
FFFFFFFFC0
ENDCHAR
STARTCHAR edotaccent
ENCODING 279
SWIDTH 593 0
DWIDTH 38 0
BBX 34 47 2 -1
BITMAP
0001E00000
0003F80000
0007F80000
0007FC0000
0007FC0000
0007FC0000
0007F80000
0003F80000
0001E00000
0000000000
0000000000
0000000000
0007FC0000
003FFF0000
00FFFFC000
01FFFFE000
07FFFFF000
07FFFFF800
0FFFFFFC00
1FFFFFFE00
3FFF0FFE00
3FF803FF00
7FF001FF00
7FE000FF00
7FE000FF80
7FC0007F80
FFFFFFFF80
FFFFFFFF80
FFFFFFFF80
FFFFFFFFC0
FFFFFFFFC0
FFFFFFFFC0
FFFFFFFFC0
7FC0000000
7FE0000000
7FE0000000
3FF000C000
3FF801E000
3FFF0FF000
1FFFFFF800
0FFFFFFC00
07FFFFFE00
03FFFFFE00
01FFFFF800
00FFFFF000
003FFFC000
0007FC0000
ENDCHAR
STARTCHAR Eogonek
ENCODING 280
SWIDTH 641 0
DWIDTH 41 0
BBX 34 57 4 -12
BITMAP
FFFFFFFFC0
FFFFFFFFC0
FFFFFFFFC0
FFFFFFFFC0
FFFFFFFFC0
FFFFFFFFC0
FFFFFFFFC0
FFFFFFFFC0
FFFFFFFFC0
FFC0000000
FFC0000000
FFC0000000
FFC0000000
FFC0000000
FFC0000000
FFC0000000
FFC0000000
FFC0000000
FFFFFFFF00
FFFFFFFF00
FFFFFFFF00
FFFFFFFF00
FFFFFFFF00
FFFFFFFF00
FFFFFFFF00
FFFFFFFF00
FFFFFFFF00
FFC0000000
FFC0000000
FFC0000000
FFC0000000
FFC0000000
FFC0000000
FFC0000000
FFC0000000
FFC0000000
FFC0000000
FFFFFFFFC0
FFFFFFFFC0
FFFFFFFFC0
FFFFFFFFC0
FFFFFFFFC0
FFFFFFFFC0
FFFFFFFFC0
FFFFFFFFC0
FFFFFFFFC0
000003F000
000003E000
000007E000
000007E000
000007F000
000007FF80
000003FF80
000003FFC0
000001FFC0
000000FF80
0000007E00
ENDCHAR
STARTCHAR eogonek
ENCODING 281
SWIDTH 592 0
DWIDTH 38 0
BBX 34 44 2 -10
BITMAP
0007FC0000
003FFF0000
00FFFFC000
01FFFFE000
07FFFFF000
07FFFFF800
0FFFFFFC00
1FFFFFFE00
3FFF0FFE00
3FF803FF00
7FF001FF00
7FE000FF00
7FE000FF80
7FC0007F80
FFFFFFFF80
FFFFFFFF80
FFFFFFFF80
FFFFFFFFC0
FFFFFFFFC0
FFFFFFFFC0
FFFFFFFFC0
7FC0000000
7FE0000000
7FE0000000
3FF000C000
3FF801E000
3FFF0FF000
1FFFFFF800
0FFFFFFC00
07FFFFFE00
03FFFFFE00
01FFFFF800
00FFFFF000
003FFFC000
0007FF0000
00001F0000
00003F0000
00003F8400
00001FFC00
00001FFE00
00001FFE00
00000FFE00
000007FC00
000000E000
ENDCHAR
STARTCHAR Ecaron
ENCODING 282
SWIDTH 641 0
DWIDTH 41 0
BBX 34 59 4 -1
BITMAP
01F803F000
00FC07E000
007E0FC000
007F1F8000
003FBF8000
001FFF0000
001FFE0000
000FFE0000
0007FC0000
0000000000
0000000000
0000000000
0000000000
FFFFFFFFC0
FFFFFFFFC0
FFFFFFFFC0
FFFFFFFFC0
FFFFFFFFC0
FFFFFFFFC0
FFFFFFFFC0
FFFFFFFFC0
FFFFFFFFC0
FFC0000000
FFC0000000
FFC0000000
FFC0000000
FFC0000000
FFC0000000
FFC0000000
FFC0000000
FFC0000000
FFFFFFFF00
FFFFFFFF00
FFFFFFFF00
FFFFFFFF00
FFFFFFFF00
FFFFFFFF00
FFFFFFFF00
FFFFFFFF00
FFFFFFFF00
FFC0000000
FFC0000000
FFC0000000
FFC0000000
FFC0000000
FFC0000000
FFC0000000
FFC0000000
FFC0000000
FFC0000000
FFFFFFFFC0
FFFFFFFFC0
FFFFFFFFC0
FFFFFFFFC0
FFFFFFFFC0
FFFFFFFFC0
FFFFFFFFC0
FFFFFFFFC0
FFFFFFFFC0
ENDCHAR
STARTCHAR ecaron
ENCODING 283
SWIDTH 593 0
DWIDTH 38 0
BBX 34 47 2 -1
BITMAP
01F807E000
00FC0FE000
007E1FC000
007F3F8000
003FFF0000
001FFF0000
000FFE0000
000FFC0000
0007FC0000
0000000000
0000000000
0000000000
0007FC0000
003FFF0000
00FFFFC000
01FFFFE000
07FFFFF000
07FFFFF800
0FFFFFFC00
1FFFFFFE00
3FFF0FFE00
3FF803FF00
7FF001FF00
7FE000FF00
7FE000FF80
7FC0007F80
FFFFFFFF80
FFFFFFFF80
FFFFFFFF80
FFFFFFFFC0
FFFFFFFFC0
FFFFFFFFC0
FFFFFFFFC0
7FC0000000
7FE0000000
7FE0000000
3FF000C000
3FF801E000
3FFF0FF000
1FFFFFF800
0FFFFFFC00
07FFFFFE00
03FFFFFE00
01FFFFF800
00FFFFF000
003FFFC000
0007FC0000
ENDCHAR
STARTCHAR Gbreve
ENCODING 286
SWIDTH 743 0
DWIDTH 48 0
BBX 41 58 3 -1
BITMAP
000000040000
0000C00E0000
0001F03F0000
0003FFFF8000
0007FFFF8000
0003FFFF0000
0000FFFE0000
00003FF80000
000003800000
000000000000
000000000000
000000000000
00003FF00000
0001FFFF0000
0007FFFFC000
001FFFFFF000
007FFFFFFC00
00FFFFFFFE00
01FFFFFFFF00
03FFFFFFFF80
07FFFFFFFF00
0FFFC00FFE00
1FFF0003F800
1FFE0000F000
3FFC00006000
3FF800000000
7FF000000000
7FE000000000
FFE000000000
FFC000000000
FFC000000000
FFC000000000
FFC007FFFF80
FF8007FFFF80
FF8007FFFF80
FF8007FFFF80
FF8007FFFF80
FFC007FFFF80
FFC007FFFF80
FFC00000FF80
FFE00000FF80
7FE00000FF80
7FF00000FF80
7FF00000FF80
3FF80000FF80
3FFC0000FF80
1FFE0000FF80
0FFF0003FF80
0FFFC00FFF80
07FFFFFFFF80
03FFFFFFFF80
01FFFFFFFF00
00FFFFFFFE00
007FFFFFFC00
001FFFFFF000
0007FFFFC000
0001FFFF0000
00003FF00000
ENDCHAR
STARTCHAR gbreve
ENCODING 287
SWIDTH 649 0
DWIDTH 42 0
BBX 35 57 2 -11
BITMAP
0004006000
000F01F000
001FFFF800
003FFFFC00
003FFFF800
001FFFF000
0007FFC000
0000FE0000
0000000000
0000000000
0000000000
0000000000
001FE03FE0
00FFFC3FE0
01FFFE3FE0
07FFFF3FE0
0FFFFFBFE0
0FFFFFFFE0
1FFFFFFFE0
3FFFFFFFE0
3FFE07FFE0
7FF801FFE0
7FF000FFE0
7FE0007FE0
7FE0007FE0
FFC0003FE0
FFC0003FE0
FFC0003FE0
FFC0003FE0
7FC0003FE0
7FE0007FE0
7FE0007FE0
7FF000FFE0
7FF801FFE0
3FFE07FFE0
3FFFFFFFE0
1FFFFFFFE0
0FFFFFFFE0
0FFFFFFFE0
07FFFF3FE0
01FFFE3FE0
007FFC3FE0
001FE03FE0
0000003FE0
0000007FE0
0000007FE0
020000FFE0
078001FFC0
07E00FFFC0
07FFFFFF80
0FFFFFFF80
0FFFFFFF00
1FFFFFFE00
0FFFFFFC00
03FFFFF000
00FFFFC000
000FFE0000
ENDCHAR
STARTCHAR Gcommaaccent
ENCODING 290
SWIDTH 743 0
DWIDTH 48 0
BBX 41 64 3 -19
BITMAP
00003FF00000
0001FFFF0000
0007FFFFC000
001FFFFFF000
007FFFFFFC00
00FFFFFFFE00
01FFFFFFFF00
03FFFFFFFF80
07FFFFFFFF00
0FFFC00FFE00
1FFF0003F800
1FFE0000F000
3FFC00006000
3FF800000000
7FF000000000
7FE000000000
FFE000000000
FFC000000000
FFC000000000
FFC000000000
FFC007FFFF80
FF8007FFFF80
FF8007FFFF80
FF8007FFFF80
FF8007FFFF80
FFC007FFFF80
FFC007FFFF80
FFC00000FF80
FFE00000FF80
7FE00000FF80
7FF00000FF80
7FF00000FF80
3FF80000FF80
3FFC0000FF80
1FFE0000FF80
0FFF0003FF80
0FFFC00FFF80
07FFFFFFFF80
03FFFFFFFF80
01FFFFFFFF00
00FFFFFFFE00
007FFFFFFC00
001FFFFFF000
0007FFFFC000
0001FFFF0000
00003FF00000
000000000000
000000000000
000007800000
00000FC00000
00001FE00000
00001FE00000
00001FF00000
00001FF00000
00001FF00000
00000FF00000
000007E00000
000001E00000
000003E00000
000003C00000
000007800000
00000F800000
000007000000
000002000000
ENDCHAR
STARTCHAR gcommaaccent
ENCODING 291
SWIDTH 649 0
DWIDTH 42 0
BBX 35 65 2 -11
BITMAP
0000200000
0000780000
0000780000
0000F00000
0001F00000
0001E00000
0003E00000
0003F00000
0003FC0000
0003FC0000
0003FE0000
0003FE0000
0003FE0000
0001FC0000
0001FC0000
0000F00000
0000000000
0000000000
0000000000
0000000000
001FE03FE0
00FFFC3FE0
01FFFE3FE0
07FFFF3FE0
0FFFFFBFE0
0FFFFFFFE0
1FFFFFFFE0
3FFFFFFFE0
3FFE07FFE0
7FF801FFE0
7FF000FFE0
7FE0007FE0
7FE0007FE0
FFC0003FE0
FFC0003FE0
FFC0003FE0
FFC0003FE0
7FC0003FE0
7FE0007FE0
7FE0007FE0
7FF000FFE0
7FF801FFE0
3FFE07FFE0
3FFFFFFFE0
1FFFFFFFE0
0FFFFFFFE0
0FFFFFFFE0
07FFFF3FE0
01FFFE3FE0
007FFC3FE0
001FE03FE0
0000003FE0
0000007FE0
0000007FE0
020000FFE0
078001FFC0
07E00FFFC0
07FFFFFF80
0FFFFFFF80
0FFFFFFF00
1FFFFFFE00
0FFFFFFC00
03FFFFF000
00FFFFC000
000FFE0000
ENDCHAR
STARTCHAR Imacron
ENCODING 298
SWIDTH 287 0
DWIDTH 18 0
BBX 22 56 -2 -1
BITMAP
FFFFFC
FFFFFC
FFFFFC
FFFFFC
FFFFFC
FFFFFC
000000
000000
000000
000000
03FF00
03FF00
03FF00
03FF00
03FF00
03FF00
03FF00
03FF00
03FF00
03FF00
03FF00
03FF00
03FF00
03FF00
03FF00
03FF00
03FF00
03FF00
03FF00
03FF00
03FF00
03FF00
03FF00
03FF00
03FF00
03FF00
03FF00
03FF00
03FF00
03FF00
03FF00
03FF00
03FF00
03FF00
03FF00
03FF00
03FF00
03FF00
03FF00
03FF00
03FF00
03FF00
03FF00
03FF00
03FF00
03FF00
ENDCHAR
STARTCHAR imacron
ENCODING 299
SWIDTH 272 0
DWIDTH 17 0
BBX 22 45 -2 -1
BITMAP
FFFFFC
FFFFFC
FFFFFC
FFFFFC
FFFFFC
FFFFFC
000000
000000
000000
000000
03FE00
03FE00
03FE00
03FE00
03FE00
03FE00
03FE00
03FE00
03FE00
03FE00
03FE00
03FE00
03FE00
03FE00
03FE00
03FE00
03FE00
03FE00
03FE00
03FE00
03FE00
03FE00
03FE00
03FE00
03FE00
03FE00
03FE00
03FE00
03FE00
03FE00
03FE00
03FE00
03FE00
03FE00
03FE00
ENDCHAR
STARTCHAR Iogonek
ENCODING 302
SWIDTH 287 0
DWIDTH 18 0
BBX 13 57 4 -12
BITMAP
FFC0
FFC0
FFC0
FFC0
FFC0
FFC0
FFC0
FFC0
FFC0
FFC0
FFC0
FFC0
FFC0
FFC0
FFC0
FFC0
FFC0
FFC0
FFC0
FFC0
FFC0
FFC0
FFC0
FFC0
FFC0
FFC0
FFC0
FFC0
FFC0
FFC0
FFC0
FFC0
FFC0
FFC0
FFC0
FFC0
FFC0
FFC0
FFC0
FFC0
FFC0
FFC0
FFC0
FFC0
FFC0
FFC0
7E00
FC00
FC00
FC00
FC00
FFF0
FFF0
7FF0
7FF8
3FF0
0FC0
ENDCHAR
STARTCHAR iogonek
ENCODING 303
SWIDTH 272 0
DWIDTH 17 0
BBX 13 59 0 -12
BITMAP
01E0
07F0
07F8
0FF8
0FF8
0FF8
07F8
07F0
01E0
0000
0000
0000
0000
0FF8
0FF8
0FF8
0FF8
0FF8
0FF8
0FF8
0FF8
0FF8
0FF8
0FF8
0FF8
0FF8
0FF8
0FF8
0FF8
0FF8
0FF8
0FF8
0FF8
0FF8
0FF8
0FF8
0FF8
0FF8
0FF8
0FF8
0FF8
0FF8
0FF8
0FF8
0FF8
0FF8
3FF8
7FF8
7E00
FC00
FC00
FC00
FC00
FFE0
FFF0
7FF0
7FF8
3FF0
0FC0
ENDCHAR
STARTCHAR Idotaccent
ENCODING 304
SWIDTH 287 0
DWIDTH 18 0
BBX 10 59 4 -1
BITMAP
1E00
3F00
7F80
7FC0
7FC0
7FC0
7F80
3F80
1E00
0000
0000
0000
0000
FFC0
FFC0
FFC0
FFC0
FFC0
FFC0
FFC0
FFC0
FFC0
FFC0
FFC0
FFC0
FFC0
FFC0
FFC0
FFC0
FFC0
FFC0
FFC0
FFC0
FFC0
FFC0
FFC0
FFC0
FFC0
FFC0
FFC0
FFC0
FFC0
FFC0
FFC0
FFC0
FFC0
FFC0
FFC0
FFC0
FFC0
FFC0
FFC0
FFC0
FFC0
FFC0
FFC0
FFC0
FFC0
FFC0
ENDCHAR
STARTCHAR dotlessi
ENCODING 305
SWIDTH 272 0
DWIDTH 17 0
BBX 9 35 4 -1
BITMAP
FF80
FF80
FF80
FF80
FF80
FF80
FF80
FF80
FF80
FF80
FF80
FF80
FF80
FF80
FF80
FF80
FF80
FF80
FF80
FF80
FF80
FF80
FF80
FF80
FF80
FF80
FF80
FF80
FF80
FF80
FF80
FF80
FF80
FF80
FF80
ENDCHAR
STARTCHAR Kcommaaccent
ENCODING 310
SWIDTH 699 0
DWIDTH 45 0
BBX 39 65 5 -20
BITMAP
FF80003FFC
FF80003FF8
FF80007FF0
FF8000FFE0
FF8001FFC0
FF8003FFC0
FF8007FF80
FF8007FF00
FF800FFE00
FF801FFC00
FF803FF800
FF807FF000
FF80FFF000
FF81FFE000
FF81FFC000
FF83FF8000
FF87FF0000
FF8FFE0000
FF9FFC0000
FFBFFC0000
FFBFFC0000
FFFFFC0000
FFFFFE0000
FFFFFF0000
FFFFFF0000
FFFFFF8000
FFFFFFC000
FFFDFFC000
FFF8FFE000
FFF0FFF000
FFE07FF800
FFE03FF800
FFC03FFC00
FF801FFE00
FF800FFE00
FF8007FF00
FF8007FF80
FF8003FFC0
FF8001FFC0
FF8001FFE0
FF8000FFF0
FF80007FF0
FF80003FF8
FF80003FFC
FF80001FFC
FF80000FFE
0000000000
0000000000
0000000000
0000F00000
0001F80000
0003FC0000
0003FC0000
0003FE0000
0003FE0000
0003FE0000
0001FE0000
0000FC0000
00003C0000
00007C0000
0000780000
0000F00000
0001F00000
0000E00000
0000400000
ENDCHAR
STARTCHAR kcommaaccent
ENCODING 311
SWIDTH 571 0
DWIDTH 37 0
BBX 32 65 4 -20
BITMAP
FF800000
FF800000
FF800000
FF800000
FF800000
FF800000
FF800000
FF800000
FF800000
FF800000
FF800000
FF8007FF
FF800FFE
FF801FFC
FF801FF8
FF803FF8
FF807FF0
FF80FFE0
FF81FFC0
FF81FF80
FF83FF00
FF87FF00
FF8FFE00
FF9FFC00
FF9FF800
FFBFF000
FFFFE000
FFFFF000
FFFFF800
FFFFF800
FFFFFC00
FFFFFE00
FFFFFE00
FFFBFF00
FFF3FF80
FFE1FF80
FFC1FFC0
FF80FFE0
FF807FE0
FF807FF0
FF803FF8
FF801FF8
FF801FFC
FF800FFE
FF800FFE
FF8007FF
00000000
00000000
00000000
00078000
000FC000
001FE000
001FE000
001FF000
001FF000
001FF000
000FF000
0007E000
0001E000
0003C000
0003C000
00078000
000F0000
00070000
00020000
ENDCHAR
STARTCHAR Lacute
ENCODING 313
SWIDTH 580 0
DWIDTH 37 0
BBX 31 60 4 -1
BITMAP
00400000
00FE0000
01FF8000
03FE0000
03FC0000
07F80000
0FF00000
1FE00000
1FC00000
3F800000
00000000
00000000
00000000
00000000
FFC00000
FFC00000
FFC00000
FFC00000
FFC00000
FFC00000
FFC00000
FFC00000
FFC00000
FFC00000
FFC00000
FFC00000
FFC00000
FFC00000
FFC00000
FFC00000
FFC00000
FFC00000
FFC00000
FFC00000
FFC00000
FFC00000
FFC00000
FFC00000
FFC00000
FFC00000
FFC00000
FFC00000
FFC00000
FFC00000
FFC00000
FFC00000
FFC00000
FFC00000
FFC00000
FFC00000
FFC00000
FFFFFFFE
FFFFFFFE
FFFFFFFE
FFFFFFFE
FFFFFFFE
FFFFFFFE
FFFFFFFE
FFFFFFFE
FFFFFFFE
ENDCHAR
STARTCHAR lacute
ENCODING 314
SWIDTH 273 0
DWIDTH 17 0
BBX 17 60 4 -1
BITMAP
004000
00FE00
01FF80
03FE00
03FC00
07F800
0FF000
0FE000
1FC000
3F8000
000000
000000
000000
000000
FF8000
FF8000
FF8000
FF8000
FF8000
FF8000
FF8000
FF8000
FF8000
FF8000
FF8000
FF8000
FF8000
FF8000
FF8000
FF8000
FF8000
FF8000
FF8000
FF8000
FF8000
FF8000
FF8000
FF8000
FF8000
FF8000
FF8000
FF8000
FF8000
FF8000
FF8000
FF8000
FF8000
FF8000
FF8000
FF8000
FF8000
FF8000
FF8000
FF8000
FF8000
FF8000
FF8000
FF8000
FF8000
FF8000
ENDCHAR
STARTCHAR Lcaron
ENCODING 317
SWIDTH 580 0
DWIDTH 37 0
BBX 31 46 4 -1
BITMAP
FFC0F000
FFC1F800
FFC3FC00
FFC3FC00
FFC3FE00
FFC3FE00
FFC3FE00
FFC1FE00
FFC0FC00
FFC03C00
FFC07C00
FFC07800
FFC0F000
FFC1F000
FFC0E000
FFC04000
FFC00000
FFC00000
FFC00000
FFC00000
FFC00000
FFC00000
FFC00000
FFC00000
FFC00000
FFC00000
FFC00000
FFC00000
FFC00000
FFC00000
FFC00000
FFC00000
FFC00000
FFC00000
FFC00000
FFC00000
FFC00000
FFFFFFFE
FFFFFFFE
FFFFFFFE
FFFFFFFE
FFFFFFFE
FFFFFFFE
FFFFFFFE
FFFFFFFE
FFFFFFFE
ENDCHAR
STARTCHAR lcaron
ENCODING 318
SWIDTH 273 0
DWIDTH 17 0
BBX 23 46 4 -1
BITMAP
FF80F0
FF81F8
FF83FC
FF83FC
FF83FC
FF83FE
FF83FE
FF81FE
FF80FC
FF803C
FF807C
FF8078
FF80F0
FF81F0
FF80E0
FF8040
FF8000
FF8000
FF8000
FF8000
FF8000
FF8000
FF8000
FF8000
FF8000
FF8000
FF8000
FF8000
FF8000
FF8000
FF8000
FF8000
FF8000
FF8000
FF8000
FF8000
FF8000
FF8000
FF8000
FF8000
FF8000
FF8000
FF8000
FF8000
FF8000
FF8000
ENDCHAR
STARTCHAR Lslash
ENCODING 321
SWIDTH 617 0
DWIDTH 39 0
BBX 36 46 2 -1
BITMAP
0FFC000000
0FFC000000
0FFC000000
0FFC000000
0FFC000000
0FFC000000
0FFC000000
0FFC000000
0FFC000000
0FFC000000
0FFC000000
0FFC000000
0FFC000000
0FFC080000
0FFC380000
0FFCF80000
0FFFF80000
0FFFF80000
0FFFF80000
0FFFF80000
0FFFF80000
0FFFF80000
1FFFE00000
7FFFC00000
FFFF000000
FFFC000000
FFFC000000
FFFC000000
FFFC000000
FFFC000000
FFFC000000
CFFC000000
8FFC000000
0FFC000000
0FFC000000
0FFC000000
0FFC000000
0FFFFFFFF0
0FFFFFFFF0
0FFFFFFFF0
0FFFFFFFF0
0FFFFFFFF0
0FFFFFFFF0
0FFFFFFFF0
0FFFFFFFF0
0FFFFFFFF0
ENDCHAR
STARTCHAR lslash
ENCODING 322
SWIDTH 353 0
DWIDTH 23 0
BBX 19 46 2 -1
BITMAP
07FC00
07FC00
07FC00
07FC00
07FC00
07FC00
07FC00
07FC00
07FC00
07FC00
07FC00
07FC00
07FC00
07FC00
07FC00
07FC60
07FDE0
07FFE0
07FFE0
07FFE0
07FFE0
07FFE0
1FFFE0
7FFFC0
FFFF00
FFFC00
FFFC00
FFFC00
FFFC00
FFFC00
F7FC00
C7FC00
07FC00
07FC00
07FC00
07FC00
07FC00
07FC00
07FC00
07FC00
07FC00
07FC00
07FC00
07FC00
07FC00
07FC00
ENDCHAR
STARTCHAR Nacute
ENCODING 323
SWIDTH 774 0
DWIDTH 50 0
BBX 40 60 5 -1
BITMAP
00000C0000
00000FE000
00001FF000
00003FE000
00007FC000
00007F8000
0000FF0000
0001FE0000
0003FC0000
0003F00000
0000000000
0000000000
0000000000
0000000000
FFC00003FF
FFC00003FF
FFE00003FF
FFF00003FF
FFF00003FF
FFF80003FF
FFFC0003FF
FFFC0003FF
FFFE0003FF
FFFF0003FF
FFFF8003FF
FFFF8003FF
FFFFC003FF
FFFFE003FF
FFFFE003FF
FFFFF003FF
FFFFF803FF
FFBFFC03FF
FF9FFC03FF
FF9FFE03FF
FF8FFF03FF
FF87FF03FF
FF83FF83FF
FF83FFC3FF
FF81FFE3FF
FF80FFE3FF
FF80FFF3FF
FF807FFBFF
FF803FFBFF
FF801FFFFF
FF801FFFFF
FF800FFFFF
FF8007FFFF
FF8007FFFF
FF8003FFFF
FF8001FFFF
FF8000FFFF
FF8000FFFF
FF80007FFF
FF80003FFF
FF80003FFF
FF80001FFF
FF80000FFF
FF800007FF
FF800007FF
FF800003FF
ENDCHAR
STARTCHAR nacute
ENCODING 324
SWIDTH 614 0
DWIDTH 39 0
BBX 32 48 4 -1
BITMAP
00007000
0000FF80
0001FF80
0001FF00
0003FC00
0007F800
000FF000
000FE000
001FC000
003F8000
00000000
00000000
00000000
FF81FE00
FF87FF80
FF9FFFE0
FFBFFFF0
FFFFFFF8
FFFFFFF8
FFFFFFFC
FFFFFFFC
FFF81FFE
FFF00FFE
FFE007FE
FFC003FE
FFC003FE
FF8003FF
FF8003FF
FF8003FF
FF8003FF
FF8003FF
FF8003FF
FF8003FF
FF8003FF
FF8003FF
FF8003FF
FF8003FF
FF8003FF
FF8003FF
FF8003FF
FF8003FF
FF8003FF
FF8003FF
FF8003FF
FF8003FF
FF8003FF
FF8003FF
FF8003FF
ENDCHAR
STARTCHAR Ncommaaccent
ENCODING 325
SWIDTH 774 0
DWIDTH 50 0
BBX 40 64 5 -19
BITMAP
FFC00003FF
FFC00003FF
FFE00003FF
FFF00003FF
FFF00003FF
FFF80003FF
FFFC0003FF
FFFC0003FF
FFFE0003FF
FFFF0003FF
FFFF8003FF
FFFF8003FF
FFFFC003FF
FFFFE003FF
FFFFE003FF
FFFFF003FF
FFFFF803FF
FFBFFC03FF
FF9FFC03FF
FF9FFE03FF
FF8FFF03FF
FF87FF03FF
FF83FF83FF
FF83FFC3FF
FF81FFE3FF
FF80FFE3FF
FF80FFF3FF
FF807FFBFF
FF803FFBFF
FF801FFFFF
FF801FFFFF
FF800FFFFF
FF8007FFFF
FF8007FFFF
FF8003FFFF
FF8001FFFF
FF8000FFFF
FF8000FFFF
FF80007FFF
FF80003FFF
FF80003FFF
FF80001FFF
FF80000FFF
FF800007FF
FF800007FF
FF800003FF
0000000000
0000000000
0000000000
00003C0000
0000FE0000
0000FF0000
0001FF0000
0001FF0000
0000FF0000
0000FF0000
00007F0000
00003F0000
00001F0000
00001E0000
00003E0000
00003C0000
0000780000
0000300000
ENDCHAR
STARTCHAR ncommaaccent
ENCODING 326
SWIDTH 614 0
DWIDTH 39 0
BBX 32 53 4 -19
BITMAP
FF81FE00
FF87FF80
FF9FFFE0
FFBFFFF0
FFFFFFF8
FFFFFFF8
FFFFFFFC
FFFFFFFC
FFF81FFE
FFF00FFE
FFE007FE
FFC003FE
FFC003FE
FF8003FF
FF8003FF
FF8003FF
FF8003FF
FF8003FF
FF8003FF
FF8003FF
FF8003FF
FF8003FF
FF8003FF
FF8003FF
FF8003FF
FF8003FF
FF8003FF
FF8003FF
FF8003FF
FF8003FF
FF8003FF
FF8003FF
FF8003FF
FF8003FF
FF8003FF
00000000
00000000
00000000
0003C000
0007F000
000FF000
000FF800
000FF800
000FF800
0007F800
0007F800
0001F800
0000F000
0000F000
0001E000
0003E000
0007C000
00038000
ENDCHAR
STARTCHAR Ncaron
ENCODING 327
SWIDTH 774 0
DWIDTH 50 0
BBX 40 59 5 -1
BITMAP
003E00FC00
003F01F800
001F83F800
000FC7F000
000FEFE000
0007FFC000
0003FFC000
0001FF8000
0001FF0000
0000000000
0000000000
0000000000
0000000000
FFC00003FF
FFC00003FF
FFE00003FF
FFF00003FF
FFF00003FF
FFF80003FF
FFFC0003FF
FFFC0003FF
FFFE0003FF
FFFF0003FF
FFFF8003FF
FFFF8003FF
FFFFC003FF
FFFFE003FF
FFFFE003FF
FFFFF003FF
FFFFF803FF
FFBFFC03FF
FF9FFC03FF
FF9FFE03FF
FF8FFF03FF
FF87FF03FF
FF83FF83FF
FF83FFC3FF
FF81FFE3FF
FF80FFE3FF
FF80FFF3FF
FF807FFBFF
FF803FFBFF
FF801FFFFF
FF801FFFFF
FF800FFFFF
FF8007FFFF
FF8007FFFF
FF8003FFFF
FF8001FFFF
FF8000FFFF
FF8000FFFF
FF80007FFF
FF80003FFF
FF80003FFF
FF80001FFF
FF80000FFF
FF800007FF
FF800007FF
FF800003FF
ENDCHAR
STARTCHAR ncaron
ENCODING 328
SWIDTH 614 0
DWIDTH 39 0
BBX 32 48 4 -1
BITMAP
03F007E0
01F80FC0
00FC1F80
00FE3F80
007F7F00
003FFE00
003FFC00
001FFC00
000FF800
00000000
00000000
00000000
00000000
FF81FE00
FF87FF80
FF9FFFE0
FFBFFFF0
FFFFFFF8
FFFFFFF8
FFFFFFFC
FFFFFFFC
FFF81FFE
FFF00FFE
FFE007FE
FFC003FE
FFC003FE
FF8003FF
FF8003FF
FF8003FF
FF8003FF
FF8003FF
FF8003FF
FF8003FF
FF8003FF
FF8003FF
FF8003FF
FF8003FF
FF8003FF
FF8003FF
FF8003FF
FF8003FF
FF8003FF
FF8003FF
FF8003FF
FF8003FF
FF8003FF
FF8003FF
FF8003FF
ENDCHAR
STARTCHAR Omacron
ENCODING 332
SWIDTH 812 0
DWIDTH 52 0
BBX 46 55 3 -1
BITMAP
000FFFFFC000
000FFFFFC000
000FFFFFC000
000FFFFFC000
000FFFFFC000
000FFFFFC000
000000000000
000000000000
000000000000
00003FF00000
0001FFFE0000
000FFFFF8000
001FFFFFE000
007FFFFFF800
00FFFFFFFC00
01FFFFFFFE00
03FFFFFFFF00
07FFFFFFFF80
0FFFC00FFFC0
1FFF0003FFC0
1FFE0001FFE0
3FFC0000FFF0
3FF800007FF0
7FF000003FF8
7FE000001FF8
7FE000001FF8
FFC000000FFC
FFC000000FFC
FFC000000FFC
FFC000000FFC
FF80000007FC
FF80000007FC
FF80000007FC
FF80000007FC
FFC000000FFC
FFC000000FFC
FFC000000FFC
FFC000000FFC
7FE000001FF8
7FE000001FF8
7FF000003FF8
3FF800007FF0
3FFC0000FFF0
1FFE0001FFE0
1FFF0003FFC0
0FFFC00FFFC0
07FFFFFFFF80
03FFFFFFFF00
01FFFFFFFE00
00FFFFFFFC00
007FFFFFF800
001FFFFFE000
0007FFFF8000
0001FFFE0000
00003FF00000
ENDCHAR
STARTCHAR omacron
ENCODING 333
SWIDTH 634 0
DWIDTH 41 0
BBX 36 44 2 -1
BITMAP
01FFFFF800
01FFFFF800
01FFFFF800
01FFFFF800
01FFFFF800
01FFFFF800
0000000000
0000000000
0000000000
0003FE0000
001FFFC000
007FFFE000
01FFFFF800
03FFFFFC00
07FFFFFE00
0FFFFFFF00
1FFFFFFF80
1FFE03FFC0
3FF801FFC0
3FF000FFE0
7FE0007FE0
7FE0003FF0
7FC0001FF0
FFC0001FF0
FF80001FF0
FF80001FF0
FF80001FF0
FF80001FF0
FF80001FF0
FFC0001FF0
7FC0001FF0
7FE0003FF0
7FE0007FE0
3FF000FFE0
3FF801FFC0
1FFE07FFC0
1FFFFFFF80
0FFFFFFF00
07FFFFFE00
03FFFFFC00
00FFFFF800
007FFFF000
001FFFC000
0003FE0000
ENDCHAR
STARTCHAR Ohungarumlaut
ENCODING 336
SWIDTH 812 0
DWIDTH 52 0
BBX 46 59 3 -1
BITMAP
000018003000
00003FE07F80
00007FC0FFC0
00007F80FF00
0000FF01FE00
0001FE03FC00
0003FC07F800
0003F807F000
0007F00FE000
000FE01FC000
000000000000
000000000000
000000000000
00003FF00000
0001FFFE0000
000FFFFF8000
001FFFFFE000
007FFFFFF800
00FFFFFFFC00
01FFFFFFFE00
03FFFFFFFF00
07FFFFFFFF80
0FFFC00FFFC0
1FFF0003FFC0
1FFE0001FFE0
3FFC0000FFF0
3FF800007FF0
7FF000003FF8
7FE000001FF8
7FE000001FF8
FFC000000FFC
FFC000000FFC
FFC000000FFC
FFC000000FFC
FF80000007FC
FF80000007FC
FF80000007FC
FF80000007FC
FFC000000FFC
FFC000000FFC
FFC000000FFC
FFC000000FFC
7FE000001FF8
7FE000001FF8
7FF000003FF8
3FF800007FF0
3FFC0000FFF0
1FFE0001FFE0
1FFF0003FFC0
0FFFC00FFFC0
07FFFFFFFF80
03FFFFFFFF00
01FFFFFFFE00
00FFFFFFFC00
007FFFFFF800
001FFFFFE000
0007FFFF8000
0001FFFE0000
00003FF00000
ENDCHAR
STARTCHAR ohungarumlaut
ENCODING 337
SWIDTH 634 0
DWIDTH 41 0
BBX 38 48 2 -1
BITMAP
0003800700
0003FC07F8
0007FE0FFC
000FF81FF0
001FF03FE0
001FE03FC0
003FC07F80
007F00FF00
00FE01FC00
00FC01F800
0000000000
0000000000
0000000000
0003FE0000
001FFFC000
007FFFE000
01FFFFF800
03FFFFFC00
07FFFFFE00
0FFFFFFF00
1FFFFFFF80
1FFE03FFC0
3FF801FFC0
3FF000FFE0
7FE0007FE0
7FE0003FF0
7FC0001FF0
FFC0001FF0
FF80001FF0
FF80001FF0
FF80001FF0
FF80001FF0
FF80001FF0
FFC0001FF0
7FC0001FF0
7FE0003FF0
7FE0007FE0
3FF000FFE0
3FF801FFC0
1FFE07FFC0
1FFFFFFF80
0FFFFFFF00
07FFFFFE00
03FFFFFC00
00FFFFF800
007FFFF000
001FFFC000
0003FE0000
ENDCHAR
STARTCHAR OE
ENCODING 338
SWIDTH 1040 0
DWIDTH 67 0
BBX 61 46 3 -1
BITMAP
00003FFFFFFFFFF8
0001FFFFFFFFFFF8
000FFFFFFFFFFFF8
001FFFFFFFFFFFF8
007FFFFFFFFFFFF8
00FFFFFFFFFFFFF8
01FFFFFFFFFFFFF8
03FFFFFFFFFFFFF8
07FFFFFFFFFFFFF8
0FFFC01FF0000000
1FFF001FF0000000
1FFE001FF0000000
3FFC001FF0000000
3FF8001FF0000000
7FF0001FF0000000
7FF0001FF0000000
7FE0001FF0000000
FFE0001FF0000000
FFC0001FFFFFFFC0
FFC0001FFFFFFFC0
FFC0001FFFFFFFC0
FF80001FFFFFFFC0
FF80001FFFFFFFC0
FF80001FFFFFFFC0
FF80001FFFFFFFC0
FF80001FFFFFFFC0
FFC0001FFFFFFFC0
FFC0001FF0000000
FFC0001FF0000000
FFE0001FF0000000
7FE0001FF0000000
7FF0001FF0000000
7FF8001FF0000000
3FF8001FF0000000
1FFE001FF0000000
1FFF001FF0000000
0FFFC01FF0000000
07FFFFFFFFFFFFF8
07FFFFFFFFFFFFF8
03FFFFFFFFFFFFF8
00FFFFFFFFFFFFF8
007FFFFFFFFFFFF8
003FFFFFFFFFFFF8
000FFFFFFFFFFFF8
0001FFFFFFFFFFF8
00003FFFFFFFFFF8
ENDCHAR
STARTCHAR oe
ENCODING 339
SWIDTH 1020 0
DWIDTH 65 0
BBX 61 35 2 -1
BITMAP
0003FE0000FF8000
001FFFC007FFF000
007FFFE01FFFFC00
01FFFFF83FFFFE00
03FFFFFC7FFFFF00
07FFFFFEFFFFFF80
0FFFFFFFFFFFFF80
1FFFFFFFFFFFFFC0
1FFE07FFFFE1FFE0
3FF801FFFF807FE0
3FF000FFFF003FE0
7FE0007FFE001FF0
7FE0003FFC000FF0
7FC0001FFC000FF0
FFC0001FFFFFFFF8
FF80001FFFFFFFF8
FF80001FFFFFFFF8
FF80001FFFFFFFF8
FF80001FFFFFFFF8
FF80001FFFFFFFF8
FFC0001FFFFFFFF8
7FC0001FF8000000
7FC0003FFC000000
7FE0007FFE000000
3FF0007FFE000800
3FF801FFFF803C00
1FFE07FFFFE1FE00
1FFFFFFFFFFFFF00
0FFFFFFFFFFFFF80
07FFFFFEFFFFFFC0
03FFFFFC7FFFFFC0
00FFFFF83FFFFF80
007FFFF00FFFFE00
001FFFC003FFF800
0003FE00007FC000
ENDCHAR
STARTCHAR Racute
ENCODING 340
SWIDTH 678 0
DWIDTH 43 0
BBX 37 60 4 -1
BITMAP
0000300000
00003F8000
00007FC000
0000FF8000
0001FF0000
0001FE0000
0003FC0000
0007F80000
000FE00000
000FC00000
0000000000
0000000000
0000000000
0000000000
FFFFFF8000
FFFFFFF000
FFFFFFFC00
FFFFFFFE00
FFFFFFFF00
FFFFFFFF80
FFFFFFFFC0
FFFFFFFFE0
FFFFFFFFE0
FFC001FFF0
FFC0007FF0
FFC0003FF0
FFC0003FF0
FFC0001FF8
FFC0001FF8
FFC0001FF8
FFC0001FF8
FFC0001FF8
FFC0003FF0
FFC0007FF0
FFC000FFF0
FFC003FFF0
FFFFFFFFE0
FFFFFFFFC0
FFFFFFFFC0
FFFFFFFF80
FFFFFFFF00
FFFFFFFE00
FFFFFFF800
FFFFFFE000
FFFFFFE000
FFC07FF000
FFC03FF800
FFC01FF800
FFC01FFC00
FFC00FFE00
FFC007FE00
FFC007FF00
FFC003FF80
FFC001FF80
FFC001FFC0
FFC000FFE0
FFC000FFE0
FFC0007FF0
FFC0003FF8
FFC0003FF8
ENDCHAR
STARTCHAR racute
ENCODING 341
SWIDTH 407 0
DWIDTH 26 0
BBX 21 49 4 -1
BITMAP
001000
003FC0
003FE0
007FC0
00FF80
01FF00
01FE00
03F800
07F000
07E000
080000
000000
000000
000000
FF8078
FF81F8
FF87F8
FF8FF8
FF9FF8
FFBFF8
FFBFF8
FFFFF8
FFFF00
FFFC00
FFF800
FFF000
FFE000
FFC000
FFC000
FFC000
FFC000
FF8000
FF8000
FF8000
FF8000
FF8000
FF8000
FF8000
FF8000
FF8000
FF8000
FF8000
FF8000
FF8000
FF8000
FF8000
FF8000
FF8000
FF8000
ENDCHAR
STARTCHAR Rcommaaccent
ENCODING 342
SWIDTH 678 0
DWIDTH 43 0
BBX 37 64 4 -19
BITMAP
FFFFFF8000
FFFFFFF000
FFFFFFFC00
FFFFFFFE00
FFFFFFFF00
FFFFFFFF80
FFFFFFFFC0
FFFFFFFFE0
FFFFFFFFE0
FFC001FFF0
FFC0007FF0
FFC0003FF0
FFC0003FF0
FFC0001FF8
FFC0001FF8
FFC0001FF8
FFC0001FF8
FFC0001FF8
FFC0003FF0
FFC0007FF0
FFC000FFF0
FFC003FFF0
FFFFFFFFE0
FFFFFFFFC0
FFFFFFFFC0
FFFFFFFF80
FFFFFFFF00
FFFFFFFE00
FFFFFFF800
FFFFFFE000
FFFFFFE000
FFC07FF000
FFC03FF800
FFC01FF800
FFC01FFC00
FFC00FFE00
FFC007FE00
FFC007FF00
FFC003FF80
FFC001FF80
FFC001FFC0
FFC000FFE0
FFC000FFE0
FFC0007FF0
FFC0003FF8
FFC0003FF8
0000000000
0000000000
0000000000
0001F00000
0003F80000
0003F80000
0007FC0000
0007FC0000
0007FC0000
0003FC0000
0003FC0000
0000FC0000
00007C0000
0000780000
0000F00000
0001F00000
0001E00000
0000C00000
ENDCHAR
STARTCHAR rcommaaccent
ENCODING 343
SWIDTH 407 0
DWIDTH 26 0
BBX 21 54 4 -20
BITMAP
FF8078
FF81F8
FF87F8
FF8FF8
FF9FF8
FFBFF8
FFBFF8
FFFFF8
FFFF00
FFFC00
FFF800
FFF000
FFE000
FFC000
FFC000
FFC000
FFC000
FF8000
FF8000
FF8000
FF8000
FF8000
FF8000
FF8000
FF8000
FF8000
FF8000
FF8000
FF8000
FF8000
FF8000
FF8000
FF8000
FF8000
FF8000
000000
000000
000000
03C000
07E000
0FF000
0FF000
0FF800
0FF800
0FF800
07F800
03F000
00F000
01E000
01E000
03C000
078000
038000
010000
ENDCHAR
STARTCHAR Rcaron
ENCODING 344
SWIDTH 678 0
DWIDTH 43 0
BBX 37 59 4 -1
BITMAP
01F803F000
00FC07E000
007E0FE000
003F1FC000
003FBF8000
001FFF0000
000FFF0000
000FFE0000
0007FC0000
0000000000
0000000000
0000000000
0000000000
FFFFFF8000
FFFFFFF000
FFFFFFFC00
FFFFFFFE00
FFFFFFFF00
FFFFFFFF80
FFFFFFFFC0
FFFFFFFFE0
FFFFFFFFE0
FFC001FFF0
FFC0007FF0
FFC0003FF0
FFC0003FF0
FFC0001FF8
FFC0001FF8
FFC0001FF8
FFC0001FF8
FFC0001FF8
FFC0003FF0
FFC0007FF0
FFC000FFF0
FFC003FFF0
FFFFFFFFE0
FFFFFFFFC0
FFFFFFFFC0
FFFFFFFF80
FFFFFFFF00
FFFFFFFE00
FFFFFFF800
FFFFFFE000
FFFFFFE000
FFC07FF000
FFC03FF800
FFC01FF800
FFC01FFC00
FFC00FFE00
FFC007FE00
FFC007FF00
FFC003FF80
FFC001FF80
FFC001FFC0
FFC000FFE0
FFC000FFE0
FFC0007FF0
FFC0003FF8
FFC0003FF8
ENDCHAR
STARTCHAR rcaron
ENCODING 345
SWIDTH 407 0
DWIDTH 26 0
BBX 21 47 4 -1
BITMAP
FE03F8
7F07F0
3F8FE0
1FDFC0
1FFFC0
0FFF80
07FF00
03FF00
03FE00
000000
000000
000000
FF8078
FF81F8
FF87F8
FF8FF8
FF9FF8
FFBFF8
FFBFF8
FFFFF8
FFFF00
FFFC00
FFF800
FFF000
FFE000
FFC000
FFC000
FFC000
FFC000
FF8000
FF8000
FF8000
FF8000
FF8000
FF8000
FF8000
FF8000
FF8000
FF8000
FF8000
FF8000
FF8000
FF8000
FF8000
FF8000
FF8000
FF8000
ENDCHAR
STARTCHAR Sacute
ENCODING 346
SWIDTH 633 0
DWIDTH 41 0
BBX 36 59 2 -1
BITMAP
0000380000
00007FC000
00007FC000
0000FF8000
0001FF0000
0003FE0000
0003F80000
0007F00000
000FE00000
001FC00000
0000000000
0000000000
0000000000
0007FE0000
003FFFE000
00FFFFF800
03FFFFFE00
07FFFFFF80
0FFFFFFFC0
1FFFFFFFE0
1FFFFFFFC0
3FFC07FF80
3FF800FF00
3FF0003F00
3FE0000E00
7FE0000400
7FE0000000
7FE0000000
7FF0000000
3FF8000000
3FFF000000
3FFFE00000
1FFFFE0000
1FFFFFE000
0FFFFFF800
07FFFFFE00
01FFFFFF00
007FFFFF80
001FFFFFC0
0003FFFFE0
00003FFFE0
000003FFF0
000000FFF0
0000003FF0
0000003FF0
0000003FF0
0E00003FF0
1F00003FF0
3FC0003FF0
7FF0007FE0
FFFE01FFE0
FFFFFFFFE0
FFFFFFFFC0
3FFFFFFF80
1FFFFFFF00
07FFFFFE00
01FFFFFC00
007FFFF000
0007FF0000
ENDCHAR
STARTCHAR sacute
ENCODING 347
SWIDTH 502 0
DWIDTH 32 0
BBX 28 48 2 -1
BITMAP
00018000
0003FE00
0007FC00
000FF800
000FF000
001FE000
003FC000
007F8000
007F0000
00FC0000
00000000
00000000
00000000
003FE000
01FFFC00
07FFFF00
0FFFFFC0
1FFFFFE0
3FFFFFC0
3FFFFFC0
3FFFFF80
7FE03F80
7FC00700
7FC00000
7FE00000
7FF80000
7FFF0000
3FFFE000
3FFFFC00
1FFFFF00
0FFFFF80
03FFFFC0
00FFFFE0
001FFFE0
0001FFF0
00007FF0
00001FF0
18001FF0
3E001FF0
3F803FF0
7FFFFFE0
7FFFFFE0
FFFFFFE0
FFFFFFC0
3FFFFF80
0FFFFF00
03FFFC00
003FE000
ENDCHAR
STARTCHAR Scedilla
ENCODING 350
SWIDTH 633 0
DWIDTH 41 0
BBX 36 58 2 -13
BITMAP
0007FE0000
003FFFE000
00FFFFF800
03FFFFFE00
07FFFFFF80
0FFFFFFFC0
1FFFFFFFE0
1FFFFFFFC0
3FFC07FF80
3FF800FF00
3FF0003F00
3FE0000E00
7FE0000400
7FE0000000
7FE0000000
7FF0000000
3FF8000000
3FFF000000
3FFFE00000
1FFFFE0000
1FFFFFE000
0FFFFFF800
07FFFFFE00
01FFFFFF00
007FFFFF80
001FFFFFC0
0003FFFFE0
00003FFFE0
000003FFF0
000000FFF0
0000003FF0
0000003FF0
0000003FF0
0C00003FF0
1F00003FF0
3F80003FF0
7FE0007FE0
7FFC01FFE0
FFFFFFFFE0
FFFFFFFFC0
7FFFFFFF80
1FFFFFFF00
07FFFFFE00
01FFFFFC00
007FFFF000
000FFF8000
0000F80000
0001F00000
0001FC0000
0001FF0000
00001F0000
00000F8000
00040F8000
00061F8000
0007FF0000
000FFF0000
000FFE0000
0001F80000
ENDCHAR
STARTCHAR scedilla
ENCODING 351
SWIDTH 502 0
DWIDTH 32 0
BBX 28 47 2 -13
BITMAP
003FE000
01FFFC00
07FFFF00
0FFFFFC0
1FFFFFE0
3FFFFFC0
3FFFFFC0
3FFFFF80
7FE03F80
7FC00700
7FC00000
7FE00000
7FF80000
7FFF0000
3FFFF000
3FFFFC00
1FFFFF00
0FFFFF80
03FFFFC0
00FFFFE0
001FFFE0
0001FFF0
00007FF0
00001FF0
18001FF0
3E001FF0
3F803FF0
7FFFFFE0
7FFFFFE0
FFFFFFE0
FFFFFFC0
3FFFFF80
1FFFFF00
03FFFC00
007FF000
000F0000
001F0000
001FC000
001FF000
0001F000
0000F000
0000F800
0061F000
00FFF000
00FFF000
00FFE000
003F8000
ENDCHAR
STARTCHAR Scaron
ENCODING 352
SWIDTH 633 0
DWIDTH 41 0
BBX 36 58 2 -1
BITMAP
00FC03F000
00FE07E000
007F0FC000
003F9FC000
001FFF8000
001FFF0000
000FFE0000
0007FE0000
0007FC0000
0000000000
0000000000
0000000000
0007FE0000
003FFFE000
00FFFFF800
03FFFFFE00
07FFFFFF80
0FFFFFFFC0
1FFFFFFFE0
1FFFFFFFC0
3FFC07FF80
3FF800FF00
3FF0003F00
3FE0000E00
7FE0000400
7FE0000000
7FE0000000
7FF0000000
3FF8000000
3FFF000000
3FFFE00000
1FFFFE0000
1FFFFFE000
0FFFFFF800
07FFFFFE00
01FFFFFF00
007FFFFF80
001FFFFFC0
0003FFFFE0
00003FFFE0
000003FFF0
000000FFF0
0000003FF0
0000003FF0
0000003FF0
0E00003FF0
1F00003FF0
3FC0003FF0
7FF0007FE0
FFFE01FFE0
FFFFFFFFE0
FFFFFFFFC0
3FFFFFFF80
1FFFFFFF00
07FFFFFE00
01FFFFFC00
007FFFF000
0007FF0000
ENDCHAR
STARTCHAR scaron
ENCODING 353
SWIDTH 502 0
DWIDTH 32 0
BBX 28 47 2 -1
BITMAP
0FC03F00
07E07E00
07F0FE00
03F9FC00
01FFF800
00FFF000
00FFF000
007FE000
003FC000
00000000
00000000
00000000
003FE000
01FFFC00
07FFFF00
0FFFFFC0
1FFFFFE0
3FFFFFC0
3FFFFFC0
3FFFFF80
7FE03F80
7FC00700
7FC00000
7FE00000
7FF80000
7FFF0000
3FFFE000
3FFFFC00
1FFFFF00
0FFFFF80
03FFFFC0
00FFFFE0
001FFFE0
0001FFF0
00007FF0
00001FF0
18001FF0
3E001FF0
3F803FF0
7FFFFFE0
7FFFFFE0
FFFFFFE0
FFFFFFC0
3FFFFF80
0FFFFF00
03FFFC00
003FE000
ENDCHAR
STARTCHAR uni0162
ENCODING 354
SWIDTH 639 0
DWIDTH 41 0
BBX 37 59 2 -14
BITMAP
FFFFFFFFF8
FFFFFFFFF8
FFFFFFFFF8
FFFFFFFFF8
FFFFFFFFF8
FFFFFFFFF8
FFFFFFFFF8
FFFFFFFFF8
FFFFFFFFF8
0003FE0000
0003FE0000
0003FE0000
0003FE0000
0003FE0000
0003FE0000
0003FE0000
0003FE0000
0003FE0000
0003FE0000
0003FE0000
0003FE0000
0003FE0000
0003FE0000
0003FE0000
0003FE0000
0003FE0000
0003FE0000
0003FE0000
0003FE0000
0003FE0000
0003FE0000
0003FE0000
0003FE0000
0003FE0000
0003FE0000
0003FE0000
0003FE0000
0003FE0000
0003FE0000
0003FE0000
0003FE0000
0003FE0000
0003FE0000
0003FE0000
0003FE0000
0003FE0000
0000F80000
0000F00000
0001F00000
0001FE0000
0001FF0000
00001F0000
00000F8000
00040F8000
00061F8000
000FFF0000
000FFF0000
000FFE0000
0003F80000
ENDCHAR
STARTCHAR uni0163
ENCODING 355
SWIDTH 398 0
DWIDTH 25 0
BBX 22 56 2 -13
BITMAP
0FF800
0FF800
0FF800
0FF800
0FF800
0FF800
0FF800
0FF800
0FF800
FFFFF0
FFFFF0
FFFFF0
FFFFF0
FFFFF0
FFFFF0
FFFFF0
FFFFF0
0FF800
0FF800
0FF800
0FF800
0FF800
0FF800
0FF800
0FF800
0FF800
0FF800
0FF800
0FF800
0FF800
0FF800
0FF800
0FF800
0FF800
0FFC00
0FFE30
07FFF0
07FFF0
07FFF8
03FFF8
03FFFC
01FFF8
00FFF0
003FC0
000F80
001F00
001FC0
001FF0
0001F0
0000F8
0040F8
0061F8
007FF0
00FFF0
00FFE0
003F80
ENDCHAR
STARTCHAR Tcaron
ENCODING 356
SWIDTH 639 0
DWIDTH 41 0
BBX 37 59 2 -1
BITMAP
00FC01F800
007E03F000
003F07E000
003F8FE000
001FDFC000
000FFF8000
0007FF0000
0007FF0000
0003FE0000
0000000000
0000000000
0000000000
0000000000
FFFFFFFFF8
FFFFFFFFF8
FFFFFFFFF8
FFFFFFFFF8
FFFFFFFFF8
FFFFFFFFF8
FFFFFFFFF8
FFFFFFFFF8
FFFFFFFFF8
0003FE0000
0003FE0000
0003FE0000
0003FE0000
0003FE0000
0003FE0000
0003FE0000
0003FE0000
0003FE0000
0003FE0000
0003FE0000
0003FE0000
0003FE0000
0003FE0000
0003FE0000
0003FE0000
0003FE0000
0003FE0000
0003FE0000
0003FE0000
0003FE0000
0003FE0000
0003FE0000
0003FE0000
0003FE0000
0003FE0000
0003FE0000
0003FE0000
0003FE0000
0003FE0000
0003FE0000
0003FE0000
0003FE0000
0003FE0000
0003FE0000
0003FE0000
0003FE0000
ENDCHAR
STARTCHAR tcaron
ENCODING 357
SWIDTH 398 0
DWIDTH 25 0
BBX 34 46 2 -1
BITMAP
0000001E00
0000003F00
0FF8007F80
0FF8007F80
0FF8007F80
0FF8007FC0
0FF8007FC0
0FF8003FC0
0FF8001F80
0FF8000780
0FF8000F00
FFFFF01F00
FFFFF03E00
FFFFF03C00
FFFFF00800
FFFFF00000
FFFFF00000
FFFFF00000
FFFFF00000
0FF8000000
0FF8000000
0FF8000000
0FF8000000
0FF8000000
0FF8000000
0FF8000000
0FF8000000
0FF8000000
0FF8000000
0FF8000000
0FF8000000
0FF8000000
0FF8000000
0FF8000000
0FF8000000
0FF8000000
0FFC000000
0FFE100000
0FFFF00000
07FFF00000
07FFF80000
03FFF80000
03FFFC0000
01FFF80000
007FF00000
001F800000
ENDCHAR
STARTCHAR Umacron
ENCODING 362
SWIDTH 755 0
DWIDTH 48 0
BBX 40 56 4 -1
BITMAP
007FFFFE00
007FFFFE00
007FFFFE00
007FFFFE00
007FFFFE00
007FFFFE00
0000000000
0000000000
0000000000
0000000000
FFC00001FF
FFC00001FF
FFC00001FF
FFC00001FF
FFC00001FF
FFC00001FF
FFC00001FF
FFC00001FF
FFC00001FF
FFC00001FF
FFC00001FF
FFC00001FF
FFC00001FF
FFC00001FF
FFC00001FF
FFC00001FF
FFC00001FF
FFC00001FF
FFC00001FF
FFC00001FF
FFC00001FF
FFC00001FF
FFC00001FF
FFC00001FF
FFC00001FF
FFC00001FF
FFC00001FF
FFC00003FF
FFC00003FF
7FC00003FF
7FE00003FF
7FE00007FE
7FE00007FE
3FF0000FFE
3FF8001FFC
3FFC003FFC
1FFF00FFF8
1FFFFFFFF8
0FFFFFFFF0
07FFFFFFE0
03FFFFFFC0
01FFFFFF80
00FFFFFF00
003FFFFC00
000FFFF000
0001FF8000
ENDCHAR
STARTCHAR umacron
ENCODING 363
SWIDTH 614 0
DWIDTH 39 0
BBX 31 45 4 -1
BITMAP
0FFFFFE0
0FFFFFE0
0FFFFFE0
0FFFFFE0
0FFFFFE0
0FFFFFE0
00000000
00000000
00000000
00000000
FF8003FE
FF8003FE
FF8003FE
FF8003FE
FF8003FE
FF8003FE
FF8003FE
FF8003FE
FF8003FE
FF8003FE
FF8003FE
FF8003FE
FF8003FE
FF8003FE
FF8003FE
FF8003FE
FF8003FE
FF8003FE
FF8003FE
FF8003FE
FF8003FE
FF8003FE
FF8003FE
FF8007FE
FFC007FE
FFE00FFE
FFF03FFE
7FFFFFFE
7FFFFFFE
3FFFFFFE
3FFFFFFE
1FFFFBFE
0FFFF3FE
03FFC3FE
00FF03FE
ENDCHAR
STARTCHAR Uring
ENCODING 366
SWIDTH 755 0
DWIDTH 48 0
BBX 40 65 4 -1
BITMAP
00003E0000
0000FF0000
0001FFC000
0003FFC000
0007C3E000
000781E000
000781E000
000780E000
000781E000
000781E000
0003C3E000
0003FFC000
0001FFC000
0000FF0000
00003C0000
0000000000
0000000000
0000000000
0000000000
FFC00001FF
FFC00001FF
FFC00001FF
FFC00001FF
FFC00001FF
FFC00001FF
FFC00001FF
FFC00001FF
FFC00001FF
FFC00001FF
FFC00001FF
FFC00001FF
FFC00001FF
FFC00001FF
FFC00001FF
FFC00001FF
FFC00001FF
FFC00001FF
FFC00001FF
FFC00001FF
FFC00001FF
FFC00001FF
FFC00001FF
FFC00001FF
FFC00001FF
FFC00001FF
FFC00001FF
FFC00003FF
FFC00003FF
7FC00003FF
7FE00003FF
7FE00007FE
7FE00007FE
3FF0000FFE
3FF8001FFC
3FFC003FFC
1FFF00FFF8
1FFFFFFFF8
0FFFFFFFF0
07FFFFFFE0
03FFFFFFC0
01FFFFFF80
00FFFFFF00
003FFFFC00
000FFFF000
0001FF8000
ENDCHAR
STARTCHAR uring
ENCODING 367
SWIDTH 614 0
DWIDTH 39 0
BBX 31 54 4 -1
BITMAP
0007C000
001FF000
003FF800
007FFC00
007C7C00
00F83E00
00F01E00
00F01E00
00F01E00
00F83E00
007C7C00
007FFC00
003FF800
001FF000
0007C000
00000000
00000000
00000000
00000000
FF8003FE
FF8003FE
FF8003FE
FF8003FE
FF8003FE
FF8003FE
FF8003FE
FF8003FE
FF8003FE
FF8003FE
FF8003FE
FF8003FE
FF8003FE
FF8003FE
FF8003FE
FF8003FE
FF8003FE
FF8003FE
FF8003FE
FF8003FE
FF8003FE
FF8003FE
FF8003FE
FF8007FE
FFC007FE
FFE00FFE
FFF03FFE
7FFFFFFE
7FFFFFFE
3FFFFFFE
3FFFFFFE
1FFFFBFE
0FFFF3FE
03FFC3FE
00FF03FE
ENDCHAR
STARTCHAR Uhungarumlaut
ENCODING 368
SWIDTH 755 0
DWIDTH 48 0
BBX 40 60 4 -1
BITMAP
0001800000
0001FC03F8
0003FF07FE
0007FC0FF8
0007F80FF0
000FF01FE0
001FE03FC0
003FC07F80
003F807F00
007F00FE00
0000000000
0000000000
0000000000
0000000000
FFC00001FF
FFC00001FF
FFC00001FF
FFC00001FF
FFC00001FF
FFC00001FF
FFC00001FF
FFC00001FF
FFC00001FF
FFC00001FF
FFC00001FF
FFC00001FF
FFC00001FF
FFC00001FF
FFC00001FF
FFC00001FF
FFC00001FF
FFC00001FF
FFC00001FF
FFC00001FF
FFC00001FF
FFC00001FF
FFC00001FF
FFC00001FF
FFC00001FF
FFC00001FF
FFC00001FF
FFC00003FF
FFC00003FF
7FC00003FF
7FE00003FF
7FE00007FE
7FE00007FE
3FF0000FFE
3FF8001FFC
3FFC003FFC
1FFF00FFF8
1FFFFFFFF8
0FFFFFFFF0
07FFFFFFE0
03FFFFFFC0
01FFFFFF80
00FFFFFF00
003FFFFC00
000FFFF000
0001FF8000
ENDCHAR
STARTCHAR uhungarumlaut
ENCODING 369
SWIDTH 614 0
DWIDTH 39 0
BBX 34 49 4 -1
BITMAP
0010002000
003FC07F80
003FE07FC0
007FC0FF80
00FF81FF00
00FF01FE00
01FE03FC00
03F807F800
07F00FE000
07E00FC000
0800100000
0000000000
0000000000
0000000000
FF8003FE00
FF8003FE00
FF8003FE00
FF8003FE00
FF8003FE00
FF8003FE00
FF8003FE00
FF8003FE00
FF8003FE00
FF8003FE00
FF8003FE00
FF8003FE00
FF8003FE00
FF8003FE00
FF8003FE00
FF8003FE00
FF8003FE00
FF8003FE00
FF8003FE00
FF8003FE00
FF8003FE00
FF8003FE00
FF8003FE00
FF8007FE00
FFC007FE00
FFE00FFE00
FFF03FFE00
7FFFFFFE00
7FFFFFFE00
3FFFFFFE00
3FFFFFFE00
1FFFFBFE00
0FFFF3FE00
03FFC3FE00
00FF03FE00
ENDCHAR
STARTCHAR Uogonek
ENCODING 370
SWIDTH 755 0
DWIDTH 48 0
BBX 40 57 4 -12
BITMAP
FFC00001FF
FFC00001FF
FFC00001FF
FFC00001FF
FFC00001FF
FFC00001FF
FFC00001FF
FFC00001FF
FFC00001FF
FFC00001FF
FFC00001FF
FFC00001FF
FFC00001FF
FFC00001FF
FFC00001FF
FFC00001FF
FFC00001FF
FFC00001FF
FFC00001FF
FFC00001FF
FFC00001FF
FFC00001FF
FFC00001FF
FFC00001FF
FFC00001FF
FFC00001FF
FFC00001FF
FFC00003FF
FFC00003FF
7FC00003FF
7FC00003FF
7FE00007FE
7FE00007FE
7FF0000FFE
3FF8001FFE
3FFC003FFC
1FFE007FFC
1FFFC3FFF8
0FFFFFFFF0
07FFFFFFF0
03FFFFFFE0
03FFFFFFC0
00FFFFFF80
007FFFFE00
001FFFF800
0007FFE000
0001FE0000
0003F00000
0003F00000
0003F00000
0003F80000
0003FFC000
0003FFC000
0001FFC000
0001FFE000
0000FFC000
00003F0000
ENDCHAR
STARTCHAR uogonek
ENCODING 371
SWIDTH 614 0
DWIDTH 39 0
BBX 35 45 4 -11
BITMAP
FF8003FE00
FF8003FE00
FF8003FE00
FF8003FE00
FF8003FE00
FF8003FE00
FF8003FE00
FF8003FE00
FF8003FE00
FF8003FE00
FF8003FE00
FF8003FE00
FF8003FE00
FF8003FE00
FF8003FE00
FF8003FE00
FF8003FE00
FF8003FE00
FF8003FE00
FF8003FE00
FF8003FE00
FF8003FE00
FF8003FE00
FF8007FE00
FFC007FE00
FFE00FFE00
FFF03FFE00
7FFFFFFE00
7FFFFFFE00
3FFFFFFE00
3FFFFFFE00
1FFFFBFE00
0FFFF3FE00
03FFC3FE00
00FF03FE00
000001F800
000001F800
000001F000
000001F800
000001FFC0
000001FFC0
000001FFE0
000000FFE0
0000007FE0
0000001F80
ENDCHAR
STARTCHAR Wcircumflex
ENCODING 372
SWIDTH 1078 0
DWIDTH 69 0
BBX 67 59 1 -1
BITMAP
00000007FC00000000
00000007FE00000000
0000000FFE00000000
0000001FFF00000000
0000003FFF80000000
0000003FBF80000000
0000007F1FC0000000
000000FE0FE0000000
000000FC07F0000000
000001000000000000
000000000000000000
000000000000000000
000000000000000000
FFE0000FFE0000FFE0
7FE0000FFE0000FFC0
7FE0000FFE0000FFC0
7FE0001FFF0000FFC0
3FF0001FFF0001FF80
3FF0001FFF0001FF80
3FF0003FFF8001FF80
3FF8003FFF8003FF80
1FF8003FFF8003FF00
1FF8007FFFC003FF00
1FF8007FFFC003FF00
0FFC007FFFC007FE00
0FFC00FFFFE007FE00
0FFC00FFFFE007FE00
0FFC00FFFFE007FE00
07FE01FFBFF00FFC00
07FE01FFBFF00FFC00
07FE01FF9FF00FFC00
03FE01FF1FF00FF800
03FF03FF1FF81FF800
03FF03FF0FF81FF800
03FF03FE0FF81FF000
01FF07FE0FFC1FF000
01FF87FE07FC3FF000
01FF87FC07FC3FF000
00FF8FFC07FE3FE000
00FFCFFC03FE7FE000
00FFCFF803FE7FE000
00FFDFF803FF7FC000
007FDFF803FF7FC000
007FFFF001FFFFC000
007FFFF001FFFFC000
003FFFF001FFFF8000
003FFFE000FFFF8000
003FFFE000FFFF8000
001FFFE000FFFF0000
001FFFC0007FFF0000
001FFFC0007FFF0000
001FFFC0007FFF0000
000FFF80003FFE0000
000FFF80003FFE0000
000FFF80003FFE0000
0007FF00001FFC0000
0007FF00001FFC0000
0007FF00001FFC0000
0007FE00000FFC0000
ENDCHAR
STARTCHAR wcircumflex
ENCODING 373
SWIDTH 841 0
DWIDTH 54 0
BBX 52 48 1 -1
BITMAP
000003FC000000
000007FE000000
00000FFF000000
00000FFF000000
00001FFF800000
00003F9FC00000
00003F0FE00000
00007E07E00000
0000FC03F00000
00000000000000
00000000000000
00000000000000
00000000000000
FF8003FC003FF0
7FC003FC003FE0
7FC007FE003FE0
7FC007FE003FE0
3FE007FE007FC0
3FE00FFF007FC0
3FE00FFF007FC0
1FE00FFF00FF80
1FF00FFF00FF80
1FF01FFF80FF80
0FF01FFF80FF00
0FF81FFF81FF00
0FF83FFFC1FF00
0FF83FFFC1FE00
07F83FFFC3FE00
07FC7F9FC3FE00
07FC7F9FE3FC00
03FC7F9FE3FC00
03FE7F0FE7FC00
03FEFF0FF7FC00
01FEFF0FF7F800
01FEFF0FFFF800
01FFFE07FFF800
00FFFE07FFF000
00FFFE07FFF000
00FFFC07FFF000
007FFC03FFE000
007FFC03FFE000
007FFC03FFE000
003FF801FFC000
003FF801FFC000
003FF801FFC000
001FF801FF8000
001FF000FF8000
001FF000FF8000
ENDCHAR
STARTCHAR Ycircumflex
ENCODING 374
SWIDTH 694 0
DWIDTH 44 0
BBX 43 59 1 -1
BITMAP
00007F800000
0000FFC00000
0000FFE00000
0001FFF00000
0003FFF00000
0007F3F80000
0007E1FC0000
000FC0FE0000
001F807E0000
000000000000
000000000000
000000000000
000000000000
FFE00000FFE0
FFE00000FFC0
7FF00001FFC0
7FF00001FF80
3FF80003FF80
3FF80007FF00
1FFC0007FE00
0FFC000FFE00
0FFE000FFC00
07FE001FFC00
07FF001FF800
03FF803FF000
01FF803FF000
01FFC07FE000
00FFC0FFE000
00FFE0FFC000
007FE1FFC000
007FF1FF8000
003FF3FF0000
001FFBFF0000
001FFFFE0000
000FFFFE0000
000FFFFC0000
0007FFF80000
0003FFF80000
0003FFF00000
0001FFF00000
0001FFE00000
0000FFE00000
0000FFC00000
0000FFC00000
0000FFC00000
0000FFC00000
0000FFC00000
0000FFC00000
0000FFC00000
0000FFC00000
0000FFC00000
0000FFC00000
0000FFC00000
0000FFC00000
0000FFC00000
0000FFC00000
0000FFC00000
0000FFC00000
0000FFC00000
ENDCHAR
STARTCHAR ycircumflex
ENCODING 375
SWIDTH 601 0
DWIDTH 38 0
BBX 36 59 1 -12
BITMAP
0003FE0000
0007FE0000
0007FF0000
000FFF8000
001FFF8000
001F9FC000
003F0FE000
007E07F000
00FC03F000
0000000800
0000000000
0000000000
0000000000
FFC0003FF0
7FC0003FF0
7FE0003FE0
7FE0007FE0
3FE0007FC0
3FF0007FC0
1FF000FFC0
1FF000FF80
1FF800FF80
0FF801FF80
0FF801FF00
07FC01FF00
07FC03FE00
07FE03FE00
03FE03FE00
03FE07FC00
03FF07FC00
01FF07FC00
01FF0FF800
00FF8FF800
00FF8FF000
00FF9FF000
007FDFF000
007FDFE000
003FFFE000
003FFFE000
003FFFC000
001FFFC000
001FFF8000
000FFF8000
000FFF8000
000FFF0000
0007FF0000
0007FF0000
0003FE0000
0007FE0000
0007FC0000
000FFC0000
0C1FF80000
0FFFF80000
1FFFF00000
1FFFF00000
1FFFE00000
3FFFC00000
0FFF000000
03FC000000
ENDCHAR
STARTCHAR Ydieresis
ENCODING 376
SWIDTH 694 0
DWIDTH 44 0
BBX 43 59 1 -1
BITMAP
000F803C0000
001FC07E0000
003FC0FF0000
003FE0FF0000
003FE0FF0000
003FE0FF0000
003FC0FF0000
001FC07E0000
000F003C0000
000000000000
000000000000
000000000000
000000000000
FFE00000FFE0
FFE00000FFC0
7FF00001FFC0
7FF00001FF80
3FF80003FF80
3FF80007FF00
1FFC0007FE00
0FFC000FFE00
0FFE000FFC00
07FE001FFC00
07FF001FF800
03FF803FF000
01FF803FF000
01FFC07FE000
00FFC0FFE000
00FFE0FFC000
007FE1FFC000
007FF1FF8000
003FF3FF0000
001FFBFF0000
001FFFFE0000
000FFFFE0000
000FFFFC0000
0007FFF80000
0003FFF80000
0003FFF00000
0001FFF00000
0001FFE00000
0000FFE00000
0000FFC00000
0000FFC00000
0000FFC00000
0000FFC00000
0000FFC00000
0000FFC00000
0000FFC00000
0000FFC00000
0000FFC00000
0000FFC00000
0000FFC00000
0000FFC00000
0000FFC00000
0000FFC00000
0000FFC00000
0000FFC00000
0000FFC00000
ENDCHAR
STARTCHAR Zacute
ENCODING 377
SWIDTH 661 0
DWIDTH 42 0
BBX 36 60 3 -1
BITMAP
0000100000
00003FC000
00003FE000
00007FC000
0000FF8000
0001FF0000
0001FC0000
0003F80000
0007F00000
000FE00000
0000000000
0000000000
0000000000
0000000000
7FFFFFFFF0
7FFFFFFFF0
7FFFFFFFF0
7FFFFFFFF0
7FFFFFFFF0
7FFFFFFFF0
7FFFFFFFF0
7FFFFFFFF0
7FFFFFFFE0
000003FFC0
000003FFC0
000007FF80
00000FFF00
00001FFE00
00001FFE00
00003FFC00
00007FF800
0000FFF000
0001FFE000
0001FFE000
0003FFC000
0007FF8000
000FFF0000
000FFF0000
001FFE0000
003FFC0000
007FF80000
007FF80000
00FFF00000
01FFE00000
03FFC00000
03FFC00000
07FF800000
0FFF000000
1FFE000000
1FFE000000
3FFC000000
7FFFFFFFF0
FFFFFFFFF0
FFFFFFFFF0
FFFFFFFFF0
FFFFFFFFF0
FFFFFFFFF0
FFFFFFFFF0
FFFFFFFFF0
FFFFFFFFF0
ENDCHAR
STARTCHAR zacute
ENCODING 378
SWIDTH 532 0
DWIDTH 34 0
BBX 29 49 3 -1
BITMAP
00010000
0003FC00
0003FE00
0007FC00
000FF800
001FF000
001FC000
003F8000
007F0000
00FE0000
00000000
00000000
00000000
00000000
FFFFFFF0
FFFFFFF0
FFFFFFF0
FFFFFFF0
FFFFFFF0
FFFFFFF0
FFFFFFF0
FFFFFFF0
0000FFE0
0001FFC0
0003FF80
0007FF00
0007FF00
000FFE00
001FFC00
003FF800
007FF000
00FFF000
00FFE000
01FFC000
03FF8000
07FF0000
0FFF0000
0FFE0000
1FFC0000
3FF80000
7FF00000
FFFFFFF8
FFFFFFF8
FFFFFFF8
FFFFFFF8
FFFFFFF8
FFFFFFF8
FFFFFFF8
FFFFFFF8
ENDCHAR
STARTCHAR Zdotaccent
ENCODING 379
SWIDTH 661 0
DWIDTH 42 0
BBX 36 59 3 -1
BITMAP
0000F00000
0001FC0000
0003FC0000
0003FE0000
0003FE0000
0003FE0000
0003FC0000
0001FC0000
0000F00000
0000000000
0000000000
0000000000
0000000000
7FFFFFFFF0
7FFFFFFFF0
7FFFFFFFF0
7FFFFFFFF0
7FFFFFFFF0
7FFFFFFFF0
7FFFFFFFF0
7FFFFFFFF0
7FFFFFFFE0
000003FFC0
000003FFC0
000007FF80
00000FFF00
00001FFE00
00001FFE00
00003FFC00
00007FF800
0000FFF000
0001FFE000
0001FFE000
0003FFC000
0007FF8000
000FFF0000
000FFF0000
001FFE0000
003FFC0000
007FF80000
007FF80000
00FFF00000
01FFE00000
03FFC00000
03FFC00000
07FF800000
0FFF000000
1FFE000000
1FFE000000
3FFC000000
7FFFFFFFF0
FFFFFFFFF0
FFFFFFFFF0
FFFFFFFFF0
FFFFFFFFF0
FFFFFFFFF0
FFFFFFFFF0
FFFFFFFFF0
FFFFFFFFF0
ENDCHAR
STARTCHAR zdotaccent
ENCODING 380
SWIDTH 532 0
DWIDTH 34 0
BBX 29 48 3 -1
BITMAP
000F8000
001FC000
003FC000
003FE000
003FE000
003FE000
003FC000
001FC000
000F0000
00000000
00000000
00000000
00000000
FFFFFFF0
FFFFFFF0
FFFFFFF0
FFFFFFF0
FFFFFFF0
FFFFFFF0
FFFFFFF0
FFFFFFF0
0000FFE0
0001FFC0
0003FF80
0007FF00
0007FF00
000FFE00
001FFC00
003FF800
007FF000
00FFF000
00FFE000
01FFC000
03FF8000
07FF0000
0FFF0000
0FFE0000
1FFC0000
3FF80000
7FF00000
FFFFFFF8
FFFFFFF8
FFFFFFF8
FFFFFFF8
FFFFFFF8
FFFFFFF8
FFFFFFF8
FFFFFFF8
ENDCHAR
STARTCHAR Zcaron
ENCODING 381
SWIDTH 661 0
DWIDTH 42 0
BBX 36 59 3 -1
BITMAP
00FC01F800
007E03F000
003F07E000
003F8FE000
001FDFC000
000FFF8000
000FFF0000
0007FF0000
0003FE0000
0000000000
0000000000
0000000000
0000000000
7FFFFFFFF0
7FFFFFFFF0
7FFFFFFFF0
7FFFFFFFF0
7FFFFFFFF0
7FFFFFFFF0
7FFFFFFFF0
7FFFFFFFF0
7FFFFFFFE0
000003FFC0
000003FFC0
000007FF80
00000FFF00
00001FFE00
00001FFE00
00003FFC00
00007FF800
0000FFF000
0001FFE000
0001FFE000
0003FFC000
0007FF8000
000FFF0000
000FFF0000
001FFE0000
003FFC0000
007FF80000
007FF80000
00FFF00000
01FFE00000
03FFC00000
03FFC00000
07FF800000
0FFF000000
1FFE000000
1FFE000000
3FFC000000
7FFFFFFFF0
FFFFFFFFF0
FFFFFFFFF0
FFFFFFFFF0
FFFFFFFFF0
FFFFFFFFF0
FFFFFFFFF0
FFFFFFFFF0
FFFFFFFFF0
ENDCHAR
STARTCHAR zcaron
ENCODING 382
SWIDTH 532 0
DWIDTH 34 0
BBX 29 48 3 -1
BITMAP
0FC01F80
07E03F00
03F07E00
03F8FE00
01FDFC00
00FFF800
007FF000
007FF000
003FE000
00000000
00000000
00000000
00000000
FFFFFFF0
FFFFFFF0
FFFFFFF0
FFFFFFF0
FFFFFFF0
FFFFFFF0
FFFFFFF0
FFFFFFF0
0000FFE0
0001FFC0
0003FF80
0007FF00
0007FF00
000FFE00
001FFC00
003FF800
007FF000
00FFF000
00FFE000
01FFC000
03FF8000
07FF0000
0FFF0000
0FFE0000
1FFC0000
3FF80000
7FF00000
FFFFFFF8
FFFFFFF8
FFFFFFF8
FFFFFFF8
FFFFFFF8
FFFFFFF8
FFFFFFF8
FFFFFFF8
ENDCHAR
STARTCHAR uni0237
ENCODING 567
SWIDTH 272 0
DWIDTH 17 0
BBX 16 46 -3 -12
BITMAP
01FF
01FF
01FF
01FF
01FF
01FF
01FF
01FF
01FF
01FF
01FF
01FF
01FF
01FF
01FF
01FF
01FF
01FF
01FF
01FF
01FF
01FF
01FF
01FF
01FF
01FF
01FF
01FF
01FF
01FF
01FF
01FF
01FF
01FF
01FF
01FF
03FF
87FF
FFFF
FFFF
FFFE
FFFE
FFFC
FFF8
FFE0
0F00
ENDCHAR
STARTCHAR circumflex
ENCODING 710
SWIDTH 458 0
DWIDTH 29 0
BBX 21 9 4 37
BITMAP
03FE00
07FF00
07FF80
0FFF80
1FDFC0
1F8FE0
3F07E0
7E03F0
FC01F8
ENDCHAR
STARTCHAR caron
ENCODING 711
SWIDTH 458 0
DWIDTH 29 0
BBX 20 9 5 37
BITMAP
FC03F0
FE07E0
7F1FC0
3FBF80
1FFF80
1FFF00
0FFE00
07FE00
07FC00
ENDCHAR
STARTCHAR breve
ENCODING 728
SWIDTH 448 0
DWIDTH 29 0
BBX 20 8 4 37
BITMAP
180080
3C03C0
7FFFE0
FFFFF0
7FFFF0
3FFFE0
0FFF80
01FC00
ENDCHAR
STARTCHAR dotaccent
ENCODING 729
SWIDTH 267 0
DWIDTH 17 0
BBX 9 9 4 37
BITMAP
3E00
7F00
FF80
FF80
FF80
FF80
FF80
7F00
1E00
ENDCHAR
STARTCHAR ring
ENCODING 730
SWIDTH 354 0
DWIDTH 23 0
BBX 15 15 4 37
BITMAP
07C0
1FF0
3FF8
7FF8
7C7C
F83C
F01E
F01E
F01E
F83C
7C7C
7FF8
3FF8
1FF0
07C0
ENDCHAR
STARTCHAR ogonek
ENCODING 731
SWIDTH 326 0
DWIDTH 21 0
BBX 13 13 4 -12
BITMAP
1800
3E00
7F00
FC00
FC00
FC00
FC00
FFF0
FFF0
7FF0
7FF8
3FF0
0FC0
ENDCHAR
STARTCHAR tilde
ENCODING 732
SWIDTH 444 0
DWIDTH 28 0
BBX 22 9 3 37
BITMAP
07803C
1FE07C
3FF87C
7FFFFC
7FFFFC
FFFFF8
FC7FF8
F81FF0
F80FC0
ENDCHAR
STARTCHAR hungarumlaut
ENCODING 733
SWIDTH 608 0
DWIDTH 39 0
BBX 30 10 4 37
BITMAP
01C00380
03FF07FC
03FE07FC
07FC0FF8
0FF81FF0
1FE03FE0
1FC03F80
3F807F00
7F00FE00
FE01FC00
ENDCHAR
STARTCHAR uni0326
ENCODING 806
SWIDTH 0 0
DWIDTH 0 0
BBX 9 15 -14 -18
BITMAP
3E00
7F00
7F00
FF80
FF80
FF80
7F80
7F80
1F80
0F80
0F00
1E00
3E00
3C00
1800
ENDCHAR
STARTCHAR Wgrave
ENCODING 7808
SWIDTH 1078 0
DWIDTH 69 0
BBX 67 60 1 -1
BITMAP
000000080000000000
000001FC0000000000
000007FE0000000000
000001FF0000000000
000000FF0000000000
0000007F8000000000
0000003FC000000000
0000001FE000000000
0000000FE000000000
00000007F000000000
000000000000000000
000000000000000000
000000000000000000
000000000000000000
FFE0000FFE0000FFE0
7FE0000FFE0000FFC0
7FE0000FFE0000FFC0
7FE0001FFF0000FFC0
3FF0001FFF0001FF80
3FF0001FFF0001FF80
3FF0003FFF8001FF80
3FF8003FFF8003FF80
1FF8003FFF8003FF00
1FF8007FFFC003FF00
1FF8007FFFC003FF00
0FFC007FFFC007FE00
0FFC00FFFFE007FE00
0FFC00FFFFE007FE00
0FFC00FFFFE007FE00
07FE01FFBFF00FFC00
07FE01FFBFF00FFC00
07FE01FF9FF00FFC00
03FE01FF1FF00FF800
03FF03FF1FF81FF800
03FF03FF0FF81FF800
03FF03FE0FF81FF000
01FF07FE0FFC1FF000
01FF87FE07FC3FF000
01FF87FC07FC3FF000
00FF8FFC07FE3FE000
00FFCFFC03FE7FE000
00FFCFF803FE7FE000
00FFDFF803FF7FC000
007FDFF803FF7FC000
007FFFF001FFFFC000
007FFFF001FFFFC000
003FFFF001FFFF8000
003FFFE000FFFF8000
003FFFE000FFFF8000
001FFFE000FFFF0000
001FFFC0007FFF0000
001FFFC0007FFF0000
001FFFC0007FFF0000
000FFF80003FFE0000
000FFF80003FFE0000
000FFF80003FFE0000
0007FF00001FFC0000
0007FF00001FFC0000
0007FF00001FFC0000
0007FE00000FFC0000
ENDCHAR
STARTCHAR wgrave
ENCODING 7809
SWIDTH 841 0
DWIDTH 54 0
BBX 52 49 1 -1
BITMAP
00000400000000
0001FE00000000
0003FE00000000
0001FF00000000
0000FF80000000
00007FC0000000
00001FC0000000
00000FE0000000
000007F0000000
000003F8000000
00000000000000
00000000000000
00000000000000
00000000000000
FF8003FC003FF0
7FC003FC003FE0
7FC007FE003FE0
7FC007FE003FE0
3FE007FE007FC0
3FE00FFF007FC0
3FE00FFF007FC0
1FE00FFF00FF80
1FF00FFF00FF80
1FF01FFF80FF80
0FF01FFF80FF00
0FF81FFF81FF00
0FF83FFFC1FF00
0FF83FFFC1FE00
07F83FFFC3FE00
07FC7F9FC3FE00
07FC7F9FE3FC00
03FC7F9FE3FC00
03FE7F0FE7FC00
03FEFF0FF7FC00
01FEFF0FF7F800
01FEFF0FFFF800
01FFFE07FFF800
00FFFE07FFF000
00FFFE07FFF000
00FFFC07FFF000
007FFC03FFE000
007FFC03FFE000
007FFC03FFE000
003FF801FFC000
003FF801FFC000
003FF801FFC000
001FF801FF8000
001FF000FF8000
001FF000FF8000
ENDCHAR
STARTCHAR Wacute
ENCODING 7810
SWIDTH 1078 0
DWIDTH 69 0
BBX 67 60 1 -1
BITMAP
000000000600000000
0000000007F0000000
000000000FFC000000
000000001FF0000000
000000001FE0000000
000000003FC0000000
000000007F80000000
00000000FF00000000
00000000FE00000000
00000001F800000000
000000000000000000
000000000000000000
000000000000000000
000000000000000000
FFE0000FFE0000FFE0
7FE0000FFE0000FFC0
7FE0000FFE0000FFC0
7FE0001FFF0000FFC0
3FF0001FFF0001FF80
3FF0001FFF0001FF80
3FF0003FFF8001FF80
3FF8003FFF8003FF80
1FF8003FFF8003FF00
1FF8007FFFC003FF00
1FF8007FFFC003FF00
0FFC007FFFC007FE00
0FFC00FFFFE007FE00
0FFC00FFFFE007FE00
0FFC00FFFFE007FE00
07FE01FFBFF00FFC00
07FE01FFBFF00FFC00
07FE01FF9FF00FFC00
03FE01FF1FF00FF800
03FF03FF1FF81FF800
03FF03FF0FF81FF800
03FF03FE0FF81FF000
01FF07FE0FFC1FF000
01FF87FE07FC3FF000
01FF87FC07FC3FF000
00FF8FFC07FE3FE000
00FFCFFC03FE7FE000
00FFCFF803FE7FE000
00FFDFF803FF7FC000
007FDFF803FF7FC000
007FFFF001FFFFC000
007FFFF001FFFFC000
003FFFF001FFFF8000
003FFFE000FFFF8000
003FFFE000FFFF8000
001FFFE000FFFF0000
001FFFC0007FFF0000
001FFFC0007FFF0000
001FFFC0007FFF0000
000FFF80003FFE0000
000FFF80003FFE0000
000FFF80003FFE0000
0007FF00001FFC0000
0007FF00001FFC0000
0007FF00001FFC0000
0007FE00000FFC0000
ENDCHAR
STARTCHAR wacute
ENCODING 7811
SWIDTH 841 0
DWIDTH 54 0
BBX 52 49 1 -1
BITMAP
00000002000000
00000007F80000
00000007FC0000
0000000FF80000
0000001FF00000
0000003FC00000
0000003F800000
0000007F000000
000000FE000000
000001FC000000
00000000000000
00000000000000
00000000000000
00000000000000
FF8003FC003FF0
7FC003FC003FE0
7FC007FE003FE0
7FC007FE003FE0
3FE007FE007FC0
3FE00FFF007FC0
3FE00FFF007FC0
1FE00FFF00FF80
1FF00FFF00FF80
1FF01FFF80FF80
0FF01FFF80FF00
0FF81FFF81FF00
0FF83FFFC1FF00
0FF83FFFC1FE00
07F83FFFC3FE00
07FC7F9FC3FE00
07FC7F9FE3FC00
03FC7F9FE3FC00
03FE7F0FE7FC00
03FEFF0FF7FC00
01FEFF0FF7F800
01FEFF0FFFF800
01FFFE07FFF800
00FFFE07FFF000
00FFFE07FFF000
00FFFC07FFF000
007FFC03FFE000
007FFC03FFE000
007FFC03FFE000
003FF801FFC000
003FF801FFC000
003FF801FFC000
001FF801FF8000
001FF000FF8000
001FF000FF8000
ENDCHAR
STARTCHAR Wdieresis
ENCODING 7812
SWIDTH 1078 0
DWIDTH 69 0
BBX 67 59 1 -1
BITMAP
0000007803C0000000
000001FC07F0000000
000001FE0FF0000000
000003FE0FF8000000
000003FE0FF8000000
000003FE0FF8000000
000001FE0FF0000000
000001FC07F0000000
0000007803C0000000
000000000000000000
000000000000000000
000000000000000000
000000000000000000
FFE0000FFE0000FFE0
7FE0000FFE0000FFC0
7FE0000FFE0000FFC0
7FE0001FFF0000FFC0
3FF0001FFF0001FF80
3FF0001FFF0001FF80
3FF0003FFF8001FF80
3FF8003FFF8003FF80
1FF8003FFF8003FF00
1FF8007FFFC003FF00
1FF8007FFFC003FF00
0FFC007FFFC007FE00
0FFC00FFFFE007FE00
0FFC00FFFFE007FE00
0FFC00FFFFE007FE00
07FE01FFBFF00FFC00
07FE01FFBFF00FFC00
07FE01FF9FF00FFC00
03FE01FF1FF00FF800
03FF03FF1FF81FF800
03FF03FF0FF81FF800
03FF03FE0FF81FF000
01FF07FE0FFC1FF000
01FF87FE07FC3FF000
01FF87FC07FC3FF000
00FF8FFC07FE3FE000
00FFCFFC03FE7FE000
00FFCFF803FE7FE000
00FFDFF803FF7FC000
007FDFF803FF7FC000
007FFFF001FFFFC000
007FFFF001FFFFC000
003FFFF001FFFF8000
003FFFE000FFFF8000
003FFFE000FFFF8000
001FFFE000FFFF0000
001FFFC0007FFF0000
001FFFC0007FFF0000
001FFFC0007FFF0000
000FFF80003FFE0000
000FFF80003FFE0000
000FFF80003FFE0000
0007FF00001FFC0000
0007FF00001FFC0000
0007FF00001FFC0000
0007FE00000FFC0000
ENDCHAR
STARTCHAR wdieresis
ENCODING 7813
SWIDTH 841 0
DWIDTH 54 0
BBX 52 48 1 -1
BITMAP
00007801E00000
0000FE07F00000
0001FE07F80000
0001FF0FF80000
0001FF0FF80000
0001FF0FF80000
0001FE07F80000
0000FE07F00000
00007801E00000
00000000000000
00000000000000
00000000000000
00000000000000
FF8003FC003FF0
7FC003FC003FE0
7FC007FE003FE0
7FC007FE003FE0
3FE007FE007FC0
3FE00FFF007FC0
3FE00FFF007FC0
1FE00FFF00FF80
1FF00FFF00FF80
1FF01FFF80FF80
0FF01FFF80FF00
0FF81FFF81FF00
0FF83FFFC1FF00
0FF83FFFC1FE00
07F83FFFC3FE00
07FC7F9FC3FE00
07FC7F9FE3FC00
03FC7F9FE3FC00
03FE7F0FE7FC00
03FEFF0FF7FC00
01FEFF0FF7F800
01FEFF0FFFF800
01FFFE07FFF800
00FFFE07FFF000
00FFFE07FFF000
00FFFC07FFF000
007FFC03FFE000
007FFC03FFE000
007FFC03FFE000
003FF801FFC000
003FF801FFC000
003FF801FFC000
001FF801FF8000
001FF000FF8000
001FF000FF8000
ENDCHAR
STARTCHAR uni1EB8
ENCODING 7864
SWIDTH 641 0
DWIDTH 41 0
BBX 34 59 4 -14
BITMAP
FFFFFFFFC0
FFFFFFFFC0
FFFFFFFFC0
FFFFFFFFC0
FFFFFFFFC0
FFFFFFFFC0
FFFFFFFFC0
FFFFFFFFC0
FFFFFFFFC0
FFC0000000
FFC0000000
FFC0000000
FFC0000000
FFC0000000
FFC0000000
FFC0000000
FFC0000000
FFC0000000
FFFFFFFF00
FFFFFFFF00
FFFFFFFF00
FFFFFFFF00
FFFFFFFF00
FFFFFFFF00
FFFFFFFF00
FFFFFFFF00
FFFFFFFF00
FFC0000000
FFC0000000
FFC0000000
FFC0000000
FFC0000000
FFC0000000
FFC0000000
FFC0000000
FFC0000000
FFC0000000
FFFFFFFFC0
FFFFFFFFC0
FFFFFFFFC0
FFFFFFFFC0
FFFFFFFFC0
FFFFFFFFC0
FFFFFFFFC0
FFFFFFFFC0
FFFFFFFFC0
0000000000
0000000000
0000000000
0000000000
0001E00000
0003F80000
0007F80000
0007FC0000
0007FC0000
0007FC0000
0007F80000
0003F80000
0001E00000
ENDCHAR
STARTCHAR uni1EB9
ENCODING 7865
SWIDTH 592 0
DWIDTH 38 0
BBX 34 48 2 -14
BITMAP
0007FC0000
003FFF0000
00FFFFC000
01FFFFE000
07FFFFF000
07FFFFF800
0FFFFFFC00
1FFFFFFE00
3FFF0FFE00
3FF803FF00
7FF001FF00
7FE000FF00
7FE000FF80
7FC0007F80
FFFFFFFF80
FFFFFFFF80
FFFFFFFF80
FFFFFFFFC0
FFFFFFFFC0
FFFFFFFFC0
FFFFFFFFC0
7FC0000000
7FE0000000
7FE0000000
3FF000C000
3FF801E000
3FFF0FF000
1FFFFFF800
0FFFFFFC00
07FFFFFE00
03FFFFFE00
01FFFFF800
00FFFFF000
003FFFC000
0007FC0000
0000000000
0000000000
0000000000
0000000000
0001E00000
0003F00000
0007F80000
0007F80000
0007FC0000
0007F80000
0007F80000
0003F00000
0001E00000
ENDCHAR
STARTCHAR uni1EBC
ENCODING 7868
SWIDTH 641 0
DWIDTH 41 0
BBX 34 59 4 -1
BITMAP
001E000000
007F80F800
00FFE1F800
01FFF1F000
01FFFFF000
03FFFFF000
03F3FFE000
03E0FFE000
03E03FC000
00000F0000
0000000000
0000000000
0000000000
FFFFFFFFC0
FFFFFFFFC0
FFFFFFFFC0
FFFFFFFFC0
FFFFFFFFC0
FFFFFFFFC0
FFFFFFFFC0
FFFFFFFFC0
FFFFFFFFC0
FFC0000000
FFC0000000
FFC0000000
FFC0000000
FFC0000000
FFC0000000
FFC0000000
FFC0000000
FFC0000000
FFFFFFFF00
FFFFFFFF00
FFFFFFFF00
FFFFFFFF00
FFFFFFFF00
FFFFFFFF00
FFFFFFFF00
FFFFFFFF00
FFFFFFFF00
FFC0000000
FFC0000000
FFC0000000
FFC0000000
FFC0000000
FFC0000000
FFC0000000
FFC0000000
FFC0000000
FFC0000000
FFFFFFFFC0
FFFFFFFFC0
FFFFFFFFC0
FFFFFFFFC0
FFFFFFFFC0
FFFFFFFFC0
FFFFFFFFC0
FFFFFFFFC0
FFFFFFFFC0
ENDCHAR
STARTCHAR uni1EBD
ENCODING 7869
SWIDTH 593 0
DWIDTH 38 0
BBX 34 47 2 -1
BITMAP
001E00F000
007F80F800
00FFE1F000
01FFFFF000
01FFFFF000
03FFFFE000
03F1FFE000
03E07FC000
03E01F0000
0000000000
0000000000
0000000000
0007FC0000
003FFF0000
00FFFFC000
01FFFFE000
07FFFFF000
07FFFFF800
0FFFFFFC00
1FFFFFFE00
3FFF0FFE00
3FF803FF00
7FF001FF00
7FE000FF00
7FE000FF80
7FC0007F80
FFFFFFFF80
FFFFFFFF80
FFFFFFFF80
FFFFFFFFC0
FFFFFFFFC0
FFFFFFFFC0
FFFFFFFFC0
7FC0000000
7FE0000000
7FE0000000
3FF000C000
3FF801E000
3FFF0FF000
1FFFFFF800
0FFFFFFC00
07FFFFFE00
03FFFFFE00
01FFFFF800
00FFFFF000
003FFFC000
0007FC0000
ENDCHAR
STARTCHAR Ygrave
ENCODING 7922
SWIDTH 694 0
DWIDTH 44 0
BBX 43 60 1 -1
BITMAP
000010000000
0007F8000000
000FF8000000
0007FC000000
0003FE000000
0001FF000000
00007F000000
00003F800000
00001FC00000
00000FE00000
000000000000
000000000000
000000000000
000000000000
FFE00000FFE0
FFE00000FFC0
7FF00001FFC0
7FF00001FF80
3FF80003FF80
3FF80007FF00
1FFC0007FE00
0FFC000FFE00
0FFE000FFC00
07FE001FFC00
07FF001FF800
03FF803FF000
01FF803FF000
01FFC07FE000
00FFC0FFE000
00FFE0FFC000
007FE1FFC000
007FF1FF8000
003FF3FF0000
001FFBFF0000
001FFFFE0000
000FFFFE0000
000FFFFC0000
0007FFF80000
0003FFF80000
0003FFF00000
0001FFF00000
0001FFE00000
0000FFE00000
0000FFC00000
0000FFC00000
0000FFC00000
0000FFC00000
0000FFC00000
0000FFC00000
0000FFC00000
0000FFC00000
0000FFC00000
0000FFC00000
0000FFC00000
0000FFC00000
0000FFC00000
0000FFC00000
0000FFC00000
0000FFC00000
0000FFC00000
ENDCHAR
STARTCHAR ygrave
ENCODING 7923
SWIDTH 601 0
DWIDTH 38 0
BBX 36 60 1 -12
BITMAP
0000800000
003FC00000
007FE00000
003FE00000
001FF00000
0007F80000
0003FC0000
0001FC0000
0000FE0000
00007F0000
0000000000
0000000000
0000000000
0000000000
FFC0003FF0
7FC0003FF0
7FE0003FE0
7FE0007FE0
3FE0007FC0
3FF0007FC0
1FF000FFC0
1FF000FF80
1FF800FF80
0FF801FF80
0FF801FF00
07FC01FF00
07FC03FE00
07FE03FE00
03FE03FE00
03FE07FC00
03FF07FC00
01FF07FC00
01FF0FF800
00FF8FF800
00FF8FF000
00FF9FF000
007FDFF000
007FDFE000
003FFFE000
003FFFE000
003FFFC000
001FFFC000
001FFF8000
000FFF8000
000FFF8000
000FFF0000
0007FF0000
0007FF0000
0003FE0000
0007FE0000
0007FC0000
000FFC0000
0C1FF80000
0FFFF80000
1FFFF00000
1FFFF00000
1FFFE00000
3FFFC00000
0FFF000000
03FC000000
ENDCHAR
STARTCHAR endash
ENCODING 8211
SWIDTH 571 0
DWIDTH 37 0
BBX 31 8 3 14
BITMAP
FFFFFFFE
FFFFFFFE
FFFFFFFE
FFFFFFFE
FFFFFFFE
FFFFFFFE
FFFFFFFE
FFFFFFFE
ENDCHAR
STARTCHAR emdash
ENCODING 8212
SWIDTH 876 0
DWIDTH 56 0
BBX 50 8 3 14
BITMAP
FFFFFFFFFFFFC0
FFFFFFFFFFFFC0
FFFFFFFFFFFFC0
FFFFFFFFFFFFC0
FFFFFFFFFFFFC0
FFFFFFFFFFFFC0
FFFFFFFFFFFFC0
FFFFFFFFFFFFC0
ENDCHAR
STARTCHAR quoteleft
ENCODING 8216
SWIDTH 293 0
DWIDTH 19 0
BBX 12 21 3 24
BITMAP
0100
0380
07C0
0FC0
1F80
1F00
3F00
3E00
7E00
7F80
7FC0
FFE0
FFF0
FFF0
FFF0
7FF0
7FF0
7FF0
3FE0
1FC0
0700
ENDCHAR
STARTCHAR quoteright
ENCODING 8217
SWIDTH 293 0
DWIDTH 19 0
BBX 11 20 4 25
BITMAP
1F00
7F80
7FC0
FFC0
FFE0
FFE0
FFE0
FFE0
FFE0
7FE0
3FE0
0FE0
07C0
0FC0
0F80
1F80
3F00
7E00
3C00
0800
ENDCHAR
STARTCHAR quotedblleft
ENCODING 8220
SWIDTH 553 0
DWIDTH 35 0
BBX 29 21 3 24
BITMAP
01000100
038003C0
07C007E0
0FC007C0
1F800F80
1F001F80
3F001F00
3E003F00
7E003E00
7F807F80
7FC07FE0
FFE07FF0
FFF07FF0
FFF07FF8
FFF07FF8
7FF07FF8
7FF03FF8
7FF03FF0
3FE01FE0
1FC00FC0
07000300
ENDCHAR
STARTCHAR quotedblright
ENCODING 8221
SWIDTH 553 0
DWIDTH 35 0
BBX 28 20 4 25
BITMAP
1F000F00
7F803FC0
7FC07FE0
FFC07FE0
FFE0FFE0
FFE0FFF0
FFE0FFF0
FFE0FFF0
FFE07FF0
7FE07FF0
3FE01FF0
0FE007E0
07C003E0
0FC007E0
0F8007C0
1F800F80
3F001F80
7E003F00
3C001E00
08000C00
ENDCHAR
STARTCHAR ellipsis
ENCODING 8230
SWIDTH 811 0
DWIDTH 52 0
BBX 45 12 3 -1
BITMAP
070003000380
1FC01FC00FE0
3FE03FE01FF0
7FE03FF03FF8
7FF07FF03FF8
FFF07FF83FF8
FFF07FF83FF8
7FF07FF83FF8
7FF03FF03FF8
3FE03FF01FF0
3FC01FE00FE0
0F80078007C0
ENDCHAR
STARTCHAR perthousand
ENCODING 8240
SWIDTH 1220 0
DWIDTH 78 0
BBX 74 46 2 -1
BITMAP
00FE00000FE000000000
03FF80000FE000000000
0FFFC0001FC000000000
1FFFE0003F8000000000
3FFFF0003F8000000000
3FFFF8007F0000000000
7F83F800FE0000000000
7F01FC00FE0000000000
7E01FC01FC0000000000
FE00FC03F80000000000
FE00FC03F80000000000
FE00FC07F00000000000
FE00FC0FE00000000000
FE00FC0FE00000000000
7E01FC1FC00000000000
7F01FC3F800000000000
7F87F83F800000000000
3FFFF87F000000000000
3FFFF0FE000000000000
1FFFE0FE000000000000
0FFFC1FC000000000000
07FF83F8000000000000
00FE03F8000000000000
000007F01F80001FC000
00000FE0FFF0007FF000
00000FE1FFF800FFFC00
00001FC3FFFC01FFFE00
00003F87FFFE03FFFF00
00003F87FFFF07FFFF00
00007F0FE07F07F07F80
0000FE0FC03F0FE03F80
0000FE1FC03F8FE01F80
0001FC1FC01F8FC01F80
0003F81FC01F8FC01FC0
0003F81F801F8FC01FC0
0007F01F801F8FC01FC0
000FE01FC01F8FC01F80
000FE01FC03F8FE01F80
001FC00FE03F8FE03F80
003F800FE07F07F07F80
003F8007FFFF07FFFF00
007F0007FFFE03FFFF00
00FE0003FFFC01FFFE00
00FE0001FFF800FFFC00
01FC0000FFF0007FF000
03F800001FC0001FC000
ENDCHAR
STARTCHAR Euro
ENCODING 8364
SWIDTH 696 0
DWIDTH 45 0
BBX 44 46 -1 -1
BITMAP
000003FF0000
00001FFFE000
0000FFFFFC00
0001FFFFFE00
0007FFFFFF80
000FFFFFFFC0
001FFFFFFFE0
003FFFFFFFF0
007FFFFFFFE0
00FFFC00FFC0
01FFF0003F80
01FFE0001E00
03FFC0000C00
03FF80000000
07FF00000000
FFFFFFFE0000
FFFFFFFE0000
FFFFFFFE0000
FFFFFFFE0000
FFFFFFFE0000
0FFC00000000
0FF800000000
0FF800000000
0FF800000000
0FF800000000
FFFFFFFE0000
FFFFFFFE0000
FFFFFFFE0000
FFFFFFFE0000
FFFFFFFE0000
07FE00000000
07FF00000000
03FF80000000
03FFC0000C00
01FFE0001E00
01FFF0003F80
00FFFC00FFC0
007FFFFFFFE0
003FFFFFFFF0
001FFFFFFFE0
000FFFFFFFC0
0007FFFFFF80
0001FFFFFE00
00007FFFF800
00001FFFE000
000003FF0000
ENDCHAR
STARTCHAR minus
ENCODING 8722
SWIDTH 603 0
DWIDTH 39 0
BBX 31 8 4 17
BITMAP
FFFFFFFE
FFFFFFFE
FFFFFFFE
FFFFFFFE
FFFFFFFE
FFFFFFFE
FFFFFFFE
FFFFFFFE
ENDCHAR
STARTCHAR .notdef
ENCODING -1
SWIDTH 500 0
DWIDTH 32 0
BBX 20 66 6 -14
BITMAP
FFFFF0
FFFFF0
FFFFF0
FFFFF0
F801F0
F801F0
F801F0
FF9FF0
FF9FF0
F801F0
F801F0
FFFFF0
FFFFF0
F81FF0
F81FF0
F81FF0
F99FF0
F99FF0
F801F0
F801F0
FFFFF0
FFFFF0
F801F0
F801F0
FF9FF0
FF9FF0
F819F0
F819F0
F819F0
FFF9F0
F801F0
F801F0
F801F0
FFFFF0
F981F0
F981F0
F999F0
F9F9F0
F9F9F0
F801F0
F801F0
FFFFF0
FFFFF0
FFFFF0
FFFFF0
F801F0
F801F0
F9F9F0
F9F9F0
F9F9F0
F801F0
F801F0
F801F0
FFFFF0
F801F0
F801F0
FF0FF0
FE1FF0
F83FF0
F841F0
F801F0
F801F0
FFFFF0
FFFFF0
FFFFF0
FFFFF0
ENDCHAR
STARTCHAR a.alt
ENCODING -1
SWIDTH 660 0
DWIDTH 42 0
BBX 36 35 2 -1
BITMAP
000FE01FF0
007FFC1FF0
01FFFF1FF0
03FFFF9FF0
07FFFFDFF0
0FFFFFFFF0
1FFFFFFFF0
1FFFFFFFF0
3FFE03FFF0
3FF801FFF0
7FF000FFF0
7FE0007FF0
7FE0003FF0
7FC0003FF0
7FC0003FF0
FFC0001FF0
FFC0001FF0
FFC0001FF0
FFC0001FF0
FFC0001FF0
7FC0003FF0
7FC0003FF0
7FE0003FF0
7FE0007FF0
3FF000FFF0
3FF801FFF0
3FFE03FFF0
1FFFFFFFF0
1FFFFFFFF0
0FFFFFFFF0
07FFFFDFF0
03FFFF9FF0
01FFFF1FF0
007FFC1FF0
000FF01FF0
ENDCHAR
STARTCHAR aacute.alt
ENCODING -1
SWIDTH 660 0
DWIDTH 42 0
BBX 36 48 2 -1
BITMAP
00000E0000
00001FF000
00001FF000
00003FE000
00007FC000
0000FF0000
0000FE0000
0001FC0000
0003F80000
0007F00000
0000000000
0000000000
0000000000
000FE01FF0
007FFC1FF0
01FFFF1FF0
03FFFF9FF0
07FFFFDFF0
0FFFFFFFF0
1FFFFFFFF0
1FFFFFFFF0
3FFE03FFF0
3FF801FFF0
7FF000FFF0
7FE0007FF0
7FE0003FF0
7FC0003FF0
7FC0003FF0
FFC0001FF0
FFC0001FF0
FFC0001FF0
FFC0001FF0
FFC0001FF0
7FC0003FF0
7FC0003FF0
7FE0003FF0
7FE0007FF0
3FF000FFF0
3FF801FFF0
3FFE03FFF0
1FFFFFFFF0
1FFFFFFFF0
0FFFFFFFF0
07FFFFDFF0
03FFFF9FF0
01FFFF1FF0
007FFC1FF0
000FF01FF0
ENDCHAR
STARTCHAR abreve.alt
ENCODING -1
SWIDTH 660 0
DWIDTH 42 0
BBX 36 47 2 -1
BITMAP
0004006000
000F01F000
001FFFF800
003FFFFC00
003FFFF800
001FFFF000
0007FFC000
0000FE0000
0000000000
0000000000
0000000000
0000000000
000FE01FF0
007FFC1FF0
01FFFF1FF0
03FFFF9FF0
07FFFFDFF0
0FFFFFFFF0
1FFFFFFFF0
1FFFFFFFF0
3FFE03FFF0
3FF801FFF0
7FF000FFF0
7FE0007FF0
7FE0003FF0
7FC0003FF0
7FC0003FF0
FFC0001FF0
FFC0001FF0
FFC0001FF0
FFC0001FF0
FFC0001FF0
7FC0003FF0
7FC0003FF0
7FE0003FF0
7FE0007FF0
3FF000FFF0
3FF801FFF0
3FFE03FFF0
1FFFFFFFF0
1FFFFFFFF0
0FFFFFFFF0
07FFFFDFF0
03FFFF9FF0
01FFFF1FF0
007FFC1FF0
000FF01FF0
ENDCHAR
STARTCHAR acircumflex.alt
ENCODING -1
SWIDTH 660 0
DWIDTH 42 0
BBX 36 48 2 -1
BITMAP
0001FF0000
0001FF8000
0003FF8000
0007FFC000
000FFFE000
000FEFE000
001FC7F000
003F83F800
003F01FC00
0040000000
0000000000
0000000000
0000000000
000FE01FF0
007FFC1FF0
01FFFF1FF0
03FFFF9FF0
07FFFFDFF0
0FFFFFFFF0
1FFFFFFFF0
1FFFFFFFF0
3FFE03FFF0
3FF801FFF0
7FF000FFF0
7FE0007FF0
7FE0003FF0
7FC0003FF0
7FC0003FF0
FFC0001FF0
FFC0001FF0
FFC0001FF0
FFC0001FF0
FFC0001FF0
7FC0003FF0
7FC0003FF0
7FE0003FF0
7FE0007FF0
3FF000FFF0
3FF801FFF0
3FFE03FFF0
1FFFFFFFF0
1FFFFFFFF0
0FFFFFFFF0
07FFFFDFF0
03FFFF9FF0
01FFFF1FF0
007FFC1FF0
000FF01FF0
ENDCHAR
STARTCHAR adieresis.alt
ENCODING -1
SWIDTH 660 0
DWIDTH 42 0
BBX 36 48 2 -1
BITMAP
001E00F000
007F01FC00
007F83FC00
00FF83FE00
00FF83FE00
00FF83FE00
007F83FC00
007F01FC00
001E00F000
0000000000
0000000000
0000000000
0000000000
000FE01FF0
007FFC1FF0
01FFFF1FF0
03FFFF9FF0
07FFFFDFF0
0FFFFFFFF0
1FFFFFFFF0
1FFFFFFFF0
3FFE03FFF0
3FF801FFF0
7FF000FFF0
7FE0007FF0
7FE0003FF0
7FC0003FF0
7FC0003FF0
FFC0001FF0
FFC0001FF0
FFC0001FF0
FFC0001FF0
FFC0001FF0
7FC0003FF0
7FC0003FF0
7FE0003FF0
7FE0007FF0
3FF000FFF0
3FF801FFF0
3FFE03FFF0
1FFFFFFFF0
1FFFFFFFF0
0FFFFFFFF0
07FFFFDFF0
03FFFF9FF0
01FFFF1FF0
007FFC1FF0
000FF01FF0
ENDCHAR
STARTCHAR agrave.alt
ENCODING -1
SWIDTH 660 0
DWIDTH 42 0
BBX 36 48 2 -1
BITMAP
0000C00000
003FE00000
001FF00000
000FF80000
0007F80000
0003FC0000
0001FE0000
0000FF0000
00007F0000
00001F8000
0000000000
0000000000
0000000000
000FE01FF0
007FFC1FF0
01FFFF1FF0
03FFFF9FF0
07FFFFDFF0
0FFFFFFFF0
1FFFFFFFF0
1FFFFFFFF0
3FFE03FFF0
3FF801FFF0
7FF000FFF0
7FE0007FF0
7FE0003FF0
7FC0003FF0
7FC0003FF0
FFC0001FF0
FFC0001FF0
FFC0001FF0
FFC0001FF0
FFC0001FF0
7FC0003FF0
7FC0003FF0
7FE0003FF0
7FE0007FF0
3FF000FFF0
3FF801FFF0
3FFE03FFF0
1FFFFFFFF0
1FFFFFFFF0
0FFFFFFFF0
07FFFFDFF0
03FFFF9FF0
01FFFF1FF0
007FFC1FF0
000FF01FF0
ENDCHAR
STARTCHAR amacron.alt
ENCODING -1
SWIDTH 660 0
DWIDTH 42 0
BBX 36 45 2 -1
BITMAP
00FFFFFE00
00FFFFFE00
00FFFFFE00
00FFFFFE00
00FFFFFE00
00FFFFFE00
0000000000
0000000000
0000000000
0000000000
000FE01FF0
007FFC1FF0
01FFFF1FF0
03FFFF9FF0
07FFFFDFF0
0FFFFFFFF0
1FFFFFFFF0
1FFFFFFFF0
3FFE03FFF0
3FF801FFF0
7FF000FFF0
7FE0007FF0
7FE0003FF0
7FC0003FF0
7FC0003FF0
FFC0001FF0
FFC0001FF0
FFC0001FF0
FFC0001FF0
FFC0001FF0
7FC0003FF0
7FC0003FF0
7FE0003FF0
7FE0007FF0
3FF000FFF0
3FF801FFF0
3FFE03FFF0
1FFFFFFFF0
1FFFFFFFF0
0FFFFFFFF0
07FFFFDFF0
03FFFF9FF0
01FFFF1FF0
007FFC1FF0
000FF01FF0
ENDCHAR
STARTCHAR aogonek.alt
ENCODING -1
SWIDTH 660 0
DWIDTH 42 0
BBX 40 45 2 -11
BITMAP
000FE01FF0
007FFC1FF0
01FFFF1FF0
03FFFF9FF0
07FFFFDFF0
0FFFFFFFF0
1FFFFFFFF0
1FFFFFFFF0
3FFE03FFF0
3FF801FFF0
7FF000FFF0
7FE0007FF0
7FE0003FF0
7FC0003FF0
7FC0003FF0
FFC0001FF0
FFC0001FF0
FFC0001FF0
FFC0001FF0
FFC0001FF0
7FC0003FF0
7FC0003FF0
7FE0003FF0
7FE0007FF0
3FF000FFF0
3FF801FFF0
3FFE03FFF0
1FFFFFFFF0
1FFFFFFFF0
0FFFFFFFF0
07FFFFDFF0
03FFFF9FF0
01FFFF1FF0
007FFC1FF0
000FF01FF0
0000000FC0
0000000F80
0000001F80
0000001FC0
0000001FFE
0000000FFE
0000000FFF
00000007FF
00000003FE
00000000F8
ENDCHAR
STARTCHAR aring.alt
ENCODING -1
SWIDTH 660 0
DWIDTH 42 0
BBX 36 54 2 -1
BITMAP
00007C0000
0001FF0000
0003FF8000
0007FFC000
0007C7C000
000F83E000
000F01E000
000F01E000
000F01E000
000F83E000
0007C7C000
0007FFC000
0003FF8000
0001FF0000
00007C0000
0000000000
0000000000
0000000000
0000000000
000FE01FF0
007FFC1FF0
01FFFF1FF0
03FFFF9FF0
07FFFFDFF0
0FFFFFFFF0
1FFFFFFFF0
1FFFFFFFF0
3FFE03FFF0
3FF801FFF0
7FF000FFF0
7FE0007FF0
7FE0003FF0
7FC0003FF0
7FC0003FF0
FFC0001FF0
FFC0001FF0
FFC0001FF0
FFC0001FF0
FFC0001FF0
7FC0003FF0
7FC0003FF0
7FE0003FF0
7FE0007FF0
3FF000FFF0
3FF801FFF0
3FFE03FFF0
1FFFFFFFF0
1FFFFFFFF0
0FFFFFFFF0
07FFFFDFF0
03FFFF9FF0
01FFFF1FF0
007FFC1FF0
000FF01FF0
ENDCHAR
STARTCHAR atilde.alt
ENCODING -1
SWIDTH 660 0
DWIDTH 42 0
BBX 36 48 2 -1
BITMAP
0007800000
001FE03E00
003FF83E00
003FFC7E00
007FFFFC00
007FFFFC00
007C7FFC00
00F83FF800
00F80FF000
003803C000
0000000000
0000000000
0000000000
000FE01FF0
007FFC1FF0
01FFFF1FF0
03FFFF9FF0
07FFFFDFF0
0FFFFFFFF0
1FFFFFFFF0
1FFFFFFFF0
3FFE03FFF0
3FF801FFF0
7FF000FFF0
7FE0007FF0
7FE0003FF0
7FC0003FF0
7FC0003FF0
FFC0001FF0
FFC0001FF0
FFC0001FF0
FFC0001FF0
FFC0001FF0
7FC0003FF0
7FC0003FF0
7FE0003FF0
7FE0007FF0
3FF000FFF0
3FF801FFF0
3FFE03FFF0
1FFFFFFFF0
1FFFFFFFF0
0FFFFFFFF0
07FFFFDFF0
03FFFF9FF0
01FFFF1FF0
007FFC1FF0
000FF01FF0
ENDCHAR
STARTCHAR ascender
ENCODING -1
SWIDTH 660 0
DWIDTH 42 0
BBX 9 46 4 -1
BITMAP
FF80
FF80
FF80
FF80
FF80
FF80
FF80
FF80
FF80
FF80
FF80
FF80
FF80
FF80
FF80
FF80
FF80
FF80
FF80
FF80
FF80
FF80
FF80
FF80
FF80
FF80
FF80
FF80
FF80
FF80
FF80
FF80
FF80
FF80
FF80
FF80
FF80
FF80
FF80
FF80
FF80
FF80
FF80
FF80
FF80
FF80
ENDCHAR
STARTCHAR descender
ENCODING -1
SWIDTH 660 0
DWIDTH 42 0
BBX 9 44 4 -10
BITMAP
FF80
FF80
FF80
FF80
FF80
FF80
FF80
FF80
FF80
FF80
FF80
FF80
FF80
FF80
FF80
FF80
FF80
FF80
FF80
FF80
FF80
FF80
FF80
FF80
FF80
FF80
FF80
FF80
FF80
FF80
FF80
FF80
FF80
FF80
FF80
FF80
FF80
FF80
FF80
FF80
FF80
FF80
FF80
FF80
ENDCHAR
ENDFONT
